<ttFont>
    <TTGlyph name="A" xMin="-12" yMin="0" xMax="621" yMax="625">
      <contour>
        <pt x="199" y="0" on="1"/>
        <pt x="-12" y="0" on="1"/>
        <pt x="150" y="625" on="1"/>
        <pt x="459" y="625" on="1"/>
        <pt x="621" y="0" on="1"/>
        <pt x="410" y="0" on="1"/>
        <pt x="387" y="99" on="1"/>
        <pt x="222" y="99" on="1"/>
      </contour>
      <contour>
        <pt x="299" y="433" on="1"/>
        <pt x="258" y="258" on="1"/>
        <pt x="350" y="258" on="1"/>
        <pt x="310" y="433" on="1"/>
      </contour>
    </TTGlyph>
    <TTGlyph name="AE" xMin="-12" yMin="0" xMax="791" yMax="625">
      <contour>
        <pt x="199" y="0" on="1"/>
        <pt x="-12" y="0" on="1"/>
        <pt x="150" y="625" on="1"/>
        <pt x="740" y="625" on="1"/>
        <pt x="715" y="465" on="1"/>
        <pt x="500" y="465" on="1"/>
        <pt x="522" y="381" on="1"/>
        <pt x="700" y="381" on="1"/>
        <pt x="700" y="236" on="1"/>
        <pt x="560" y="236" on="1"/>
        <pt x="579" y="160" on="1"/>
        <pt x="791" y="160" on="1"/>
        <pt x="791" y="0" on="1"/>
        <pt x="410" y="0" on="1"/>
        <pt x="387" y="99" on="1"/>
        <pt x="222" y="99" on="1"/>
      </contour>
      <contour>
        <pt x="299" y="433" on="1"/>
        <pt x="258" y="258" on="1"/>
        <pt x="350" y="258" on="1"/>
        <pt x="310" y="433" on="1"/>
      </contour>
    </TTGlyph>
    <TTGlyph name="Aacute" xMin="-12" yMin="0" xMax="621" yMax="849">
      <component glyphName="A" x="0" y="0" flags="0x1004"/>
      <component glyphName="acute" x="90" y="110" flags="0x1004"/>
    </TTGlyph>
    <TTGlyph name="Acircumflex" xMin="-12" yMin="0" xMax="621" yMax="864">
      <component glyphName="A" x="0" y="0" flags="0x1004"/>
      <component glyphName="circumflex" x="112" y="124" flags="0x1004"/>
    </TTGlyph>
    <TTGlyph name="Adieresis" xMin="-12" yMin="0" xMax="621" yMax="832">
      <component glyphName="A" x="0" y="0" flags="0x1004"/>
      <component glyphName="dieresis" x="89" y="124" flags="0x1004"/>
    </TTGlyph>
    <TTGlyph name="Agrave" xMin="-12" yMin="0" xMax="621" yMax="864">
      <contour>
        <pt x="199" y="0" on="1"/>
        <pt x="-12" y="0" on="1"/>
        <pt x="150" y="625" on="1"/>
        <pt x="459" y="625" on="1"/>
        <pt x="621" y="0" on="1"/>
        <pt x="410" y="0" on="1"/>
        <pt x="387" y="99" on="1"/>
        <pt x="222" y="99" on="1"/>
      </contour>
      <contour>
        <pt x="299" y="433" on="1"/>
        <pt x="258" y="258" on="1"/>
        <pt x="350" y="258" on="1"/>
        <pt x="310" y="433" on="1"/>
      </contour>
      <contour>
        <pt x="378" y="664" on="1"/>
        <pt x="204" y="699" on="1"/>
        <pt x="188" y="702" on="0"/>
        <pt x="178" y="711" on="1"/>
        <pt x="133" y="750" on="1"/>
        <pt x="129" y="756" on="0"/>
        <pt x="129" y="768" on="0"/>
        <pt x="138" y="779" on="1"/>
        <pt x="201" y="853" on="1"/>
        <pt x="210" y="864" on="0"/>
        <pt x="224" y="864" on="0"/>
        <pt x="230" y="860" on="1"/>
        <pt x="419" y="721" on="1"/>
      </contour>
    </TTGlyph>
    <TTGlyph name="Aring" xMin="-12" yMin="0" xMax="621" yMax="882">
      <component glyphName="A" x="0" y="0" flags="0x1004"/>
      <component glyphName="ring" x="172" y="124" flags="0x1004"/>
    </TTGlyph>
    <TTGlyph name="Atilde" xMin="-12" yMin="0" xMax="621" yMax="845">
      <contour>
        <pt x="199" y="0" on="1"/>
        <pt x="-12" y="0" on="1"/>
        <pt x="150" y="625" on="1"/>
        <pt x="459" y="625" on="1"/>
        <pt x="621" y="0" on="1"/>
        <pt x="410" y="0" on="1"/>
        <pt x="387" y="99" on="1"/>
        <pt x="222" y="99" on="1"/>
      </contour>
      <contour>
        <pt x="299" y="433" on="1"/>
        <pt x="258" y="258" on="1"/>
        <pt x="350" y="258" on="1"/>
        <pt x="310" y="433" on="1"/>
      </contour>
      <contour>
        <pt x="447" y="840" on="1"/>
        <pt x="497" y="759" on="1"/>
        <pt x="378" y="679" on="0"/>
        <pt x="349" y="667" on="0"/>
        <pt x="321" y="667" on="0"/>
        <pt x="304" y="671" on="0"/>
        <pt x="284" y="682" on="0"/>
        <pt x="273" y="690" on="0"/>
        <pt x="248" y="708" on="0"/>
        <pt x="243" y="712" on="1"/>
        <pt x="161" y="672" on="1"/>
        <pt x="111" y="753" on="1"/>
        <pt x="230" y="833" on="0"/>
        <pt x="259" y="845" on="0"/>
        <pt x="287" y="845" on="0"/>
        <pt x="304" y="841" on="0"/>
        <pt x="324" y="830" on="0"/>
        <pt x="335" y="822" on="0"/>
        <pt x="360" y="804" on="0"/>
        <pt x="365" y="800" on="1"/>
      </contour>
    </TTGlyph>
    <TTGlyph name="B" xMin="50" yMin="0" xMax="572" yMax="625">
      <contour>
        <pt x="50" y="0" on="1"/>
        <pt x="50" y="625" on="1"/>
        <pt x="374" y="625" on="1"/>
        <pt x="464" y="625" on="0"/>
        <pt x="541" y="555" on="0"/>
        <pt x="541" y="421" on="0"/>
        <pt x="492" y="348" on="0"/>
        <pt x="451" y="337" on="1"/>
        <pt x="451" y="331" on="1"/>
        <pt x="572" y="310" on="0"/>
        <pt x="572" y="166" on="1"/>
        <pt x="572" y="91" on="0"/>
        <pt x="492" y="0" on="0"/>
        <pt x="409" y="0" on="1"/>
      </contour>
      <contour>
        <pt x="328" y="249" on="1"/>
        <pt x="250" y="249" on="1"/>
        <pt x="250" y="147" on="1"/>
        <pt x="327" y="147" on="1"/>
        <pt x="369" y="147" on="0"/>
        <pt x="369" y="249" on="0"/>
      </contour>
      <contour>
        <pt x="313" y="488" on="1"/>
        <pt x="250" y="488" on="1"/>
        <pt x="250" y="395" on="1"/>
        <pt x="312" y="395" on="1"/>
        <pt x="350" y="395" on="0"/>
        <pt x="350" y="488" on="0"/>
      </contour>
    </TTGlyph>
    <TTGlyph name="C" xMin="20" yMin="-15" xMax="480" yMax="640">
      <contour>
        <pt x="465" y="179" on="1"/>
        <pt x="480" y="11" on="1"/>
        <pt x="417" y="-15" on="0"/>
        <pt x="227" y="-15" on="0"/>
        <pt x="112" y="25" on="0"/>
        <pt x="46" y="111" on="0"/>
        <pt x="20" y="227" on="0"/>
        <pt x="20" y="397" on="0"/>
        <pt x="46" y="514" on="0"/>
        <pt x="79" y="557" on="1"/>
        <pt x="143" y="640" on="0"/>
        <pt x="314" y="640" on="1"/>
        <pt x="352" y="640" on="0"/>
        <pt x="455" y="625" on="0"/>
        <pt x="480" y="614" on="1"/>
        <pt x="450" y="461" on="1"/>
        <pt x="385" y="475" on="0"/>
        <pt x="277" y="475" on="0"/>
        <pt x="235" y="455" on="0"/>
        <pt x="235" y="425" on="1"/>
        <pt x="235" y="163" on="1"/>
        <pt x="274" y="155" on="0"/>
        <pt x="314" y="155" on="1"/>
        <pt x="399" y="155" on="0"/>
      </contour>
    </TTGlyph>
    <TTGlyph name="Ccedilla" xMin="20" yMin="-165" xMax="480" yMax="640">
      <component glyphName="C" x="0" y="0" flags="0x1004"/>
      <component glyphName="cedilla" x="30" y="0" flags="0x1004"/>
    </TTGlyph>
    <TTGlyph name="D" xMin="50" yMin="0" xMax="625" yMax="625">
      <contour>
        <pt x="50" y="0" on="1"/>
        <pt x="50" y="625" on="1"/>
        <pt x="330" y="625" on="1"/>
        <pt x="499" y="625" on="0"/>
        <pt x="625" y="481" on="0"/>
        <pt x="625" y="144" on="0"/>
        <pt x="499" y="0" on="0"/>
        <pt x="330" y="0" on="1"/>
      </contour>
      <contour>
        <pt x="333" y="465" on="1"/>
        <pt x="250" y="465" on="1"/>
        <pt x="250" y="160" on="1"/>
        <pt x="333" y="160" on="1"/>
        <pt x="374" y="160" on="0"/>
        <pt x="411" y="179" on="0"/>
        <pt x="411" y="213" on="1"/>
        <pt x="411" y="412" on="1"/>
        <pt x="411" y="446" on="0"/>
        <pt x="374" y="465" on="0"/>
      </contour>
    </TTGlyph>
    <TTGlyph name="Delta" xMin="30" yMin="0" xMax="673" yMax="625">
      <contour>
        <pt x="250" y="625" on="1"/>
        <pt x="453" y="625" on="1"/>
        <pt x="673" y="52" on="1"/>
        <pt x="654" y="0" on="1"/>
        <pt x="49" y="0" on="1"/>
        <pt x="30" y="52" on="1"/>
      </contour>
      <contour>
        <pt x="219" y="150" on="1"/>
        <pt x="384" y="150" on="1"/>
        <pt x="413" y="150" on="0"/>
        <pt x="413" y="173" on="1"/>
        <pt x="413" y="182" on="0"/>
        <pt x="411" y="187" on="1"/>
        <pt x="327" y="445" on="1"/>
        <pt x="317" y="445" on="1"/>
      </contour>
    </TTGlyph>
    <TTGlyph name="E" xMin="50" yMin="0" xMax="495" yMax="625">
      <contour>
        <pt x="450" y="236" on="1"/>
        <pt x="250" y="236" on="1"/>
        <pt x="250" y="160" on="1"/>
        <pt x="495" y="160" on="1"/>
        <pt x="495" y="0" on="1"/>
        <pt x="50" y="0" on="1"/>
        <pt x="50" y="625" on="1"/>
        <pt x="490" y="625" on="1"/>
        <pt x="465" y="465" on="1"/>
        <pt x="250" y="465" on="1"/>
        <pt x="250" y="381" on="1"/>
        <pt x="450" y="381" on="1"/>
      </contour>
    </TTGlyph>
    <TTGlyph name="Eacute" xMin="50" yMin="0" xMax="495" yMax="849">
      <component glyphName="E" x="0" y="0" flags="0x1004"/>
      <component glyphName="acute" x="41" y="110" flags="0x1004"/>
    </TTGlyph>
    <TTGlyph name="Ecircumflex" xMin="50" yMin="0" xMax="495" yMax="864">
      <contour>
        <pt x="450" y="236" on="1"/>
        <pt x="250" y="236" on="1"/>
        <pt x="250" y="160" on="1"/>
        <pt x="495" y="160" on="1"/>
        <pt x="495" y="0" on="1"/>
        <pt x="50" y="0" on="1"/>
        <pt x="50" y="625" on="1"/>
        <pt x="490" y="625" on="1"/>
        <pt x="465" y="465" on="1"/>
        <pt x="250" y="465" on="1"/>
        <pt x="250" y="381" on="1"/>
        <pt x="450" y="381" on="1"/>
      </contour>
      <contour>
        <pt x="231" y="864" on="1"/>
        <pt x="279" y="864" on="1"/>
        <pt x="286" y="864" on="0"/>
        <pt x="295" y="855" on="1"/>
        <pt x="408" y="710" on="1"/>
        <pt x="348" y="661" on="1"/>
        <pt x="255" y="724" on="1"/>
        <pt x="162" y="661" on="1"/>
        <pt x="102" y="710" on="1"/>
        <pt x="215" y="855" on="1"/>
        <pt x="224" y="864" on="0"/>
      </contour>
    </TTGlyph>
    <TTGlyph name="Edieresis" xMin="50" yMin="0" xMax="495" yMax="832">
      <component glyphName="E" x="0" y="0" flags="0x1004"/>
      <component glyphName="dieresis" x="40" y="124" flags="0x1004"/>
    </TTGlyph>
    <TTGlyph name="Egrave" xMin="50" yMin="0" xMax="495" yMax="864">
      <contour>
        <pt x="450" y="236" on="1"/>
        <pt x="250" y="236" on="1"/>
        <pt x="250" y="160" on="1"/>
        <pt x="495" y="160" on="1"/>
        <pt x="495" y="0" on="1"/>
        <pt x="50" y="0" on="1"/>
        <pt x="50" y="625" on="1"/>
        <pt x="490" y="625" on="1"/>
        <pt x="465" y="465" on="1"/>
        <pt x="250" y="465" on="1"/>
        <pt x="250" y="381" on="1"/>
        <pt x="450" y="381" on="1"/>
      </contour>
      <contour>
        <pt x="328" y="664" on="1"/>
        <pt x="154" y="699" on="1"/>
        <pt x="138" y="702" on="0"/>
        <pt x="128" y="711" on="1"/>
        <pt x="83" y="750" on="1"/>
        <pt x="79" y="756" on="0"/>
        <pt x="79" y="768" on="0"/>
        <pt x="88" y="779" on="1"/>
        <pt x="151" y="853" on="1"/>
        <pt x="160" y="864" on="0"/>
        <pt x="174" y="864" on="0"/>
        <pt x="180" y="860" on="1"/>
        <pt x="369" y="721" on="1"/>
      </contour>
    </TTGlyph>
    <TTGlyph name="Eth" xMin="0" yMin="0" xMax="625" yMax="625">
      <contour>
        <pt x="0" y="243" on="1"/>
        <pt x="0" y="341" on="1"/>
        <pt x="0" y="363" on="0"/>
        <pt x="24" y="377" on="0"/>
        <pt x="50" y="378" on="1"/>
        <pt x="50" y="625" on="1"/>
        <pt x="330" y="625" on="1"/>
        <pt x="499" y="625" on="0"/>
        <pt x="625" y="481" on="0"/>
        <pt x="625" y="144" on="0"/>
        <pt x="499" y="0" on="0"/>
        <pt x="330" y="0" on="1"/>
        <pt x="50" y="0" on="1"/>
        <pt x="50" y="243" on="1"/>
      </contour>
      <contour>
        <pt x="333" y="465" on="1"/>
        <pt x="250" y="465" on="1"/>
        <pt x="250" y="378" on="1"/>
        <pt x="330" y="378" on="1"/>
        <pt x="330" y="281" on="1"/>
        <pt x="330" y="257" on="0"/>
        <pt x="300" y="243" on="0"/>
        <pt x="268" y="243" on="1"/>
        <pt x="250" y="243" on="1"/>
        <pt x="250" y="160" on="1"/>
        <pt x="333" y="160" on="1"/>
        <pt x="374" y="160" on="0"/>
        <pt x="411" y="179" on="0"/>
        <pt x="411" y="213" on="1"/>
        <pt x="411" y="412" on="1"/>
        <pt x="411" y="446" on="0"/>
        <pt x="374" y="465" on="0"/>
      </contour>
    </TTGlyph>
    <TTGlyph name="Euro" xMin="15" yMin="-15" xMax="523" yMax="640">
      <contour>
        <pt x="439" y="206" on="1"/>
        <pt x="279" y="206" on="1"/>
        <pt x="277" y="153" on="1"/>
        <pt x="316" y="145" on="0"/>
        <pt x="356" y="145" on="1"/>
        <pt x="436" y="145" on="0"/>
        <pt x="503" y="169" on="1"/>
        <pt x="512" y="11" on="1"/>
        <pt x="448" y="-15" on="0"/>
        <pt x="345" y="-15" on="1"/>
        <pt x="201" y="-15" on="0"/>
        <pt x="76" y="85" on="0"/>
        <pt x="64" y="206" on="1"/>
        <pt x="15" y="206" on="1"/>
        <pt x="22" y="288" on="1"/>
        <pt x="446" y="288" on="1"/>
      </contour>
      <contour>
        <pt x="453" y="338" on="1"/>
        <pt x="29" y="338" on="1"/>
        <pt x="36" y="420" on="1"/>
        <pt x="78" y="420" on="1"/>
        <pt x="97" y="539" on="0"/>
        <pt x="232" y="640" on="0"/>
        <pt x="375" y="640" on="1"/>
        <pt x="447" y="640" on="0"/>
        <pt x="523" y="621" on="1"/>
        <pt x="495" y="475" on="1"/>
        <pt x="360" y="475" on="1"/>
        <pt x="340" y="475" on="0"/>
        <pt x="315" y="470" on="0"/>
        <pt x="294" y="447" on="0"/>
        <pt x="293" y="426" on="1"/>
        <pt x="293" y="420" on="1"/>
        <pt x="460" y="420" on="1"/>
      </contour>
    </TTGlyph>
    <TTGlyph name="F" xMin="50" yMin="0" xMax="460" yMax="625">
      <contour>
        <pt x="420" y="232" on="1"/>
        <pt x="250" y="232" on="1"/>
        <pt x="250" y="0" on="1"/>
        <pt x="50" y="0" on="1"/>
        <pt x="50" y="625" on="1"/>
        <pt x="460" y="625" on="1"/>
        <pt x="435" y="465" on="1"/>
        <pt x="250" y="465" on="1"/>
        <pt x="250" y="381" on="1"/>
        <pt x="420" y="381" on="1"/>
      </contour>
    </TTGlyph>
    <TTGlyph name="G" xMin="20" yMin="-15" xMax="560" yMax="640">
      <contour>
        <pt x="370" y="184" on="1"/>
        <pt x="370" y="211" on="1"/>
        <pt x="319" y="211" on="1"/>
        <pt x="319" y="364" on="1"/>
        <pt x="560" y="364" on="1"/>
        <pt x="560" y="30" on="1"/>
        <pt x="441" y="-15" on="0"/>
        <pt x="314" y="-15" on="1"/>
        <pt x="143" y="-15" on="0"/>
        <pt x="79" y="68" on="1"/>
        <pt x="46" y="111" on="0"/>
        <pt x="20" y="227" on="0"/>
        <pt x="20" y="398" on="0"/>
        <pt x="47" y="513" on="0"/>
        <pt x="82" y="556" on="1"/>
        <pt x="148" y="640" on="0"/>
        <pt x="337" y="640" on="1"/>
        <pt x="376" y="640" on="0"/>
        <pt x="501" y="624" on="0"/>
        <pt x="530" y="614" on="1"/>
        <pt x="500" y="461" on="1"/>
        <pt x="419" y="475" on="0"/>
        <pt x="288" y="475" on="0"/>
        <pt x="235" y="455" on="0"/>
        <pt x="235" y="425" on="1"/>
        <pt x="235" y="142" on="1"/>
        <pt x="301" y="142" on="1"/>
        <pt x="337" y="142" on="0"/>
        <pt x="370" y="157" on="0"/>
      </contour>
    </TTGlyph>
    <TTGlyph name="H" xMin="50" yMin="0" xMax="600" yMax="625">
      <contour>
        <pt x="400" y="0" on="1"/>
        <pt x="400" y="221" on="1"/>
        <pt x="250" y="221" on="1"/>
        <pt x="250" y="0" on="1"/>
        <pt x="50" y="0" on="1"/>
        <pt x="50" y="625" on="1"/>
        <pt x="250" y="625" on="1"/>
        <pt x="250" y="404" on="1"/>
        <pt x="400" y="404" on="1"/>
        <pt x="400" y="625" on="1"/>
        <pt x="600" y="625" on="1"/>
        <pt x="600" y="0" on="1"/>
      </contour>
    </TTGlyph>
    <TTGlyph name="I" xMin="50" yMin="0" xMax="250" yMax="625">
      <contour>
        <pt x="50" y="0" on="1"/>
        <pt x="50" y="625" on="1"/>
        <pt x="250" y="625" on="1"/>
        <pt x="250" y="0" on="1"/>
      </contour>
    </TTGlyph>
    <TTGlyph name="Iacute" xMin="6" yMin="0" xMax="296" yMax="849">
      <component glyphName="I" x="0" y="0" flags="0x1004"/>
      <component glyphName="acute" x="-64" y="110" flags="0x1004"/>
    </TTGlyph>
    <TTGlyph name="Icircumflex" xMin="-3" yMin="0" xMax="303" yMax="864">
      <contour>
        <pt x="50" y="0" on="1"/>
        <pt x="50" y="625" on="1"/>
        <pt x="250" y="625" on="1"/>
        <pt x="250" y="0" on="1"/>
      </contour>
      <contour>
        <pt x="126" y="864" on="1"/>
        <pt x="174" y="864" on="1"/>
        <pt x="181" y="864" on="0"/>
        <pt x="190" y="855" on="1"/>
        <pt x="303" y="710" on="1"/>
        <pt x="243" y="661" on="1"/>
        <pt x="150" y="724" on="1"/>
        <pt x="57" y="661" on="1"/>
        <pt x="-3" y="710" on="1"/>
        <pt x="110" y="855" on="1"/>
        <pt x="119" y="864" on="0"/>
      </contour>
    </TTGlyph>
    <TTGlyph name="Idieresis" xMin="-39" yMin="0" xMax="339" yMax="832">
      <component glyphName="I" x="0" y="0" flags="0x1004"/>
      <component glyphName="dieresis" x="-65" y="124" flags="0x1004"/>
    </TTGlyph>
    <TTGlyph name="Igrave" xMin="-25" yMin="0" xMax="265" yMax="864">
      <contour>
        <pt x="50" y="0" on="1"/>
        <pt x="50" y="625" on="1"/>
        <pt x="250" y="625" on="1"/>
        <pt x="250" y="0" on="1"/>
      </contour>
      <contour>
        <pt x="224" y="664" on="1"/>
        <pt x="50" y="699" on="1"/>
        <pt x="34" y="702" on="0"/>
        <pt x="24" y="711" on="1"/>
        <pt x="-21" y="750" on="1"/>
        <pt x="-25" y="756" on="0"/>
        <pt x="-25" y="768" on="0"/>
        <pt x="-16" y="779" on="1"/>
        <pt x="47" y="853" on="1"/>
        <pt x="56" y="864" on="0"/>
        <pt x="70" y="864" on="0"/>
        <pt x="76" y="860" on="1"/>
        <pt x="265" y="721" on="1"/>
      </contour>
    </TTGlyph>
    <TTGlyph name="J" xMin="0" yMin="0" xMax="331" yMax="625">
      <contour>
        <pt x="20" y="0" on="1"/>
        <pt x="0" y="160" on="1"/>
        <pt x="83" y="160" on="1"/>
        <pt x="114" y="160" on="0"/>
        <pt x="131" y="177" on="0"/>
        <pt x="131" y="190" on="1"/>
        <pt x="131" y="465" on="1"/>
        <pt x="48" y="465" on="1"/>
        <pt x="48" y="625" on="1"/>
        <pt x="331" y="625" on="1"/>
        <pt x="331" y="165" on="1"/>
        <pt x="331" y="84" on="0"/>
        <pt x="251" y="0" on="0"/>
        <pt x="176" y="0" on="1"/>
      </contour>
    </TTGlyph>
    <TTGlyph name="K" xMin="50" yMin="0" xMax="583" yMax="625">
      <contour>
        <pt x="250" y="272" on="1"/>
        <pt x="250" y="0" on="1"/>
        <pt x="50" y="0" on="1"/>
        <pt x="50" y="625" on="1"/>
        <pt x="250" y="625" on="1"/>
        <pt x="250" y="370" on="1"/>
        <pt x="254" y="370" on="1"/>
        <pt x="256" y="400" on="0"/>
        <pt x="264" y="418" on="1"/>
        <pt x="362" y="625" on="1"/>
        <pt x="578" y="625" on="1"/>
        <pt x="428" y="318" on="1"/>
        <pt x="583" y="0" on="1"/>
        <pt x="367" y="0" on="1"/>
        <pt x="264" y="224" on="1"/>
        <pt x="256" y="242" on="0"/>
        <pt x="254" y="272" on="1"/>
      </contour>
    </TTGlyph>
    <TTGlyph name="L" xMin="50" yMin="0" xMax="450" yMax="625">
      <contour>
        <pt x="450" y="0" on="1"/>
        <pt x="50" y="0" on="1"/>
        <pt x="50" y="625" on="1"/>
        <pt x="250" y="625" on="1"/>
        <pt x="250" y="160" on="1"/>
        <pt x="450" y="160" on="1"/>
      </contour>
    </TTGlyph>
    <TTGlyph name="Lslash" xMin="-33" yMin="0" xMax="450" yMax="625">
      <contour>
        <pt x="0" y="220" on="1"/>
        <pt x="-33" y="321" on="0"/>
        <pt x="-33" y="328" on="1"/>
        <pt x="-33" y="351" on="0"/>
        <pt x="17" y="367" on="1"/>
        <pt x="319" y="466" on="1"/>
        <pt x="351" y="365" on="0"/>
        <pt x="351" y="354" on="1"/>
        <pt x="351" y="334" on="0"/>
        <pt x="301" y="318" on="1"/>
      </contour>
      <contour>
        <pt x="450" y="0" on="1"/>
        <pt x="50" y="0" on="1"/>
        <pt x="50" y="625" on="1"/>
        <pt x="250" y="625" on="1"/>
        <pt x="250" y="160" on="1"/>
        <pt x="450" y="160" on="1"/>
      </contour>
    </TTGlyph>
    <TTGlyph name="M" xMin="25" yMin="0" xMax="786" yMax="625">
      <contour>
        <pt x="234" y="0" on="1"/>
        <pt x="25" y="0" on="1"/>
        <pt x="63" y="625" on="1"/>
        <pt x="324" y="625" on="1"/>
        <pt x="402" y="307" on="1"/>
        <pt x="409" y="307" on="1"/>
        <pt x="487" y="625" on="1"/>
        <pt x="748" y="625" on="1"/>
        <pt x="786" y="0" on="1"/>
        <pt x="577" y="0" on="1"/>
        <pt x="565" y="303" on="1"/>
        <pt x="558" y="303" on="1"/>
        <pt x="482" y="0" on="1"/>
        <pt x="329" y="0" on="1"/>
        <pt x="252" y="303" on="1"/>
        <pt x="246" y="303" on="1"/>
      </contour>
    </TTGlyph>
    <TTGlyph name="N" xMin="50" yMin="0" xMax="605" yMax="625">
      <contour>
        <pt x="417" y="0" on="1"/>
        <pt x="264" y="222" on="1"/>
        <pt x="256" y="233" on="0"/>
        <pt x="254" y="270" on="1"/>
        <pt x="250" y="270" on="1"/>
        <pt x="250" y="0" on="1"/>
        <pt x="50" y="0" on="1"/>
        <pt x="50" y="625" on="1"/>
        <pt x="238" y="625" on="1"/>
        <pt x="391" y="403" on="1"/>
        <pt x="399" y="392" on="0"/>
        <pt x="401" y="355" on="1"/>
        <pt x="405" y="355" on="1"/>
        <pt x="405" y="625" on="1"/>
        <pt x="605" y="625" on="1"/>
        <pt x="605" y="0" on="1"/>
      </contour>
    </TTGlyph>
    <TTGlyph name="Ntilde" xMin="50" yMin="0" xMax="605" yMax="845">
      <component glyphName="N" x="0" y="0" flags="0x1004"/>
      <component glyphName="tilde" x="98" y="124" flags="0x1004"/>
    </TTGlyph>
    <TTGlyph name="O" xMin="20" yMin="-15" xMax="610" yMax="640">
      <contour>
        <pt x="20" y="312" on="1"/>
        <pt x="20" y="483" on="0"/>
        <pt x="148" y="640" on="0"/>
        <pt x="482" y="640" on="0"/>
        <pt x="610" y="483" on="0"/>
        <pt x="610" y="312" on="1"/>
        <pt x="610" y="227" on="0"/>
        <pt x="583" y="111" on="0"/>
        <pt x="517" y="25" on="0"/>
        <pt x="401" y="-15" on="0"/>
        <pt x="229" y="-15" on="0"/>
        <pt x="113" y="25" on="0"/>
        <pt x="47" y="111" on="0"/>
        <pt x="20" y="227" on="0"/>
      </contour>
      <contour>
        <pt x="235" y="416" on="1"/>
        <pt x="235" y="156" on="1"/>
        <pt x="318" y="156" on="1"/>
        <pt x="359" y="156" on="0"/>
        <pt x="396" y="175" on="0"/>
        <pt x="396" y="209" on="1"/>
        <pt x="396" y="469" on="1"/>
        <pt x="312" y="469" on="1"/>
        <pt x="272" y="469" on="0"/>
        <pt x="235" y="450" on="0"/>
      </contour>
    </TTGlyph>
    <TTGlyph name="OE" xMin="20" yMin="-15" xMax="821" yMax="640">
      <contour>
        <pt x="821" y="0" on="1"/>
        <pt x="441" y="0" on="1"/>
        <pt x="388" y="-15" on="0"/>
        <pt x="229" y="-15" on="0"/>
        <pt x="113" y="25" on="0"/>
        <pt x="47" y="111" on="0"/>
        <pt x="20" y="227" on="0"/>
        <pt x="20" y="312" on="1"/>
        <pt x="20" y="483" on="0"/>
        <pt x="148" y="640" on="0"/>
        <pt x="315" y="640" on="1"/>
        <pt x="388" y="640" on="0"/>
        <pt x="441" y="625" on="1"/>
        <pt x="816" y="625" on="1"/>
        <pt x="791" y="465" on="1"/>
        <pt x="596" y="465" on="1"/>
        <pt x="596" y="381" on="1"/>
        <pt x="776" y="381" on="1"/>
        <pt x="776" y="236" on="1"/>
        <pt x="596" y="236" on="1"/>
        <pt x="596" y="160" on="1"/>
        <pt x="821" y="160" on="1"/>
      </contour>
      <contour>
        <pt x="235" y="416" on="1"/>
        <pt x="235" y="156" on="1"/>
        <pt x="318" y="156" on="1"/>
        <pt x="344" y="156" on="0"/>
        <pt x="372" y="161" on="0"/>
        <pt x="395" y="182" on="0"/>
        <pt x="396" y="202" on="1"/>
        <pt x="396" y="469" on="1"/>
        <pt x="312" y="469" on="1"/>
        <pt x="272" y="469" on="0"/>
        <pt x="235" y="450" on="0"/>
      </contour>
    </TTGlyph>
    <TTGlyph name="Oacute" xMin="20" yMin="-15" xMax="610" yMax="849">
      <component glyphName="O" x="0" y="0" flags="0x1004"/>
      <component glyphName="acute" x="101" y="110" flags="0x1004"/>
    </TTGlyph>
    <TTGlyph name="Ocircumflex" xMin="20" yMin="-15" xMax="610" yMax="864">
      <contour>
        <pt x="20" y="312" on="1"/>
        <pt x="20" y="483" on="0"/>
        <pt x="148" y="640" on="0"/>
        <pt x="482" y="640" on="0"/>
        <pt x="610" y="483" on="0"/>
        <pt x="610" y="312" on="1"/>
        <pt x="610" y="227" on="0"/>
        <pt x="583" y="111" on="0"/>
        <pt x="517" y="25" on="0"/>
        <pt x="401" y="-15" on="0"/>
        <pt x="229" y="-15" on="0"/>
        <pt x="113" y="25" on="0"/>
        <pt x="47" y="111" on="0"/>
        <pt x="20" y="227" on="0"/>
      </contour>
      <contour>
        <pt x="235" y="416" on="1"/>
        <pt x="235" y="156" on="1"/>
        <pt x="318" y="156" on="1"/>
        <pt x="359" y="156" on="0"/>
        <pt x="396" y="175" on="0"/>
        <pt x="396" y="209" on="1"/>
        <pt x="396" y="469" on="1"/>
        <pt x="312" y="469" on="1"/>
        <pt x="272" y="469" on="0"/>
        <pt x="235" y="450" on="0"/>
      </contour>
      <contour>
        <pt x="291" y="864" on="1"/>
        <pt x="339" y="864" on="1"/>
        <pt x="346" y="864" on="0"/>
        <pt x="355" y="855" on="1"/>
        <pt x="468" y="710" on="1"/>
        <pt x="408" y="661" on="1"/>
        <pt x="315" y="724" on="1"/>
        <pt x="222" y="661" on="1"/>
        <pt x="162" y="710" on="1"/>
        <pt x="275" y="855" on="1"/>
        <pt x="284" y="864" on="0"/>
      </contour>
    </TTGlyph>
    <TTGlyph name="Odieresis" xMin="20" yMin="-15" xMax="610" yMax="832">
      <component glyphName="O" x="0" y="0" flags="0x1004"/>
      <component glyphName="dieresis" x="100" y="124" flags="0x1004"/>
    </TTGlyph>
    <TTGlyph name="Ograve" xMin="20" yMin="-15" xMax="610" yMax="864">
      <contour>
        <pt x="20" y="312" on="1"/>
        <pt x="20" y="483" on="0"/>
        <pt x="148" y="640" on="0"/>
        <pt x="482" y="640" on="0"/>
        <pt x="610" y="483" on="0"/>
        <pt x="610" y="312" on="1"/>
        <pt x="610" y="227" on="0"/>
        <pt x="583" y="111" on="0"/>
        <pt x="517" y="25" on="0"/>
        <pt x="401" y="-15" on="0"/>
        <pt x="229" y="-15" on="0"/>
        <pt x="113" y="25" on="0"/>
        <pt x="47" y="111" on="0"/>
        <pt x="20" y="227" on="0"/>
      </contour>
      <contour>
        <pt x="235" y="416" on="1"/>
        <pt x="235" y="156" on="1"/>
        <pt x="318" y="156" on="1"/>
        <pt x="359" y="156" on="0"/>
        <pt x="396" y="175" on="0"/>
        <pt x="396" y="209" on="1"/>
        <pt x="396" y="469" on="1"/>
        <pt x="312" y="469" on="1"/>
        <pt x="272" y="469" on="0"/>
        <pt x="235" y="450" on="0"/>
      </contour>
      <contour>
        <pt x="388" y="664" on="1"/>
        <pt x="214" y="699" on="1"/>
        <pt x="198" y="702" on="0"/>
        <pt x="188" y="711" on="1"/>
        <pt x="143" y="750" on="1"/>
        <pt x="139" y="756" on="0"/>
        <pt x="139" y="768" on="0"/>
        <pt x="148" y="779" on="1"/>
        <pt x="211" y="853" on="1"/>
        <pt x="220" y="864" on="0"/>
        <pt x="234" y="864" on="0"/>
        <pt x="240" y="860" on="1"/>
        <pt x="429" y="721" on="1"/>
      </contour>
    </TTGlyph>
    <TTGlyph name="Omega" xMin="15" yMin="0" xMax="688" yMax="640">
      <contour>
        <pt x="303" y="250" on="1"/>
        <pt x="288" y="0" on="1"/>
        <pt x="15" y="0" on="1"/>
        <pt x="15" y="143" on="1"/>
        <pt x="165" y="152" on="1"/>
        <pt x="171" y="166" on="1"/>
        <pt x="92" y="194" on="0"/>
        <pt x="29" y="296" on="0"/>
        <pt x="29" y="434" on="0"/>
        <pt x="57" y="523" on="0"/>
        <pt x="91" y="562" on="1"/>
        <pt x="160" y="640" on="0"/>
        <pt x="353" y="640" on="1"/>
        <pt x="573" y="640" on="0"/>
        <pt x="640" y="531" on="1"/>
        <pt x="677" y="470" on="0"/>
        <pt x="677" y="295" on="0"/>
        <pt x="612" y="192" on="0"/>
        <pt x="532" y="164" on="1"/>
        <pt x="538" y="152" on="1"/>
        <pt x="688" y="143" on="1"/>
        <pt x="688" y="0" on="1"/>
        <pt x="415" y="0" on="1"/>
        <pt x="400" y="250" on="1"/>
        <pt x="425" y="250" on="0"/>
        <pt x="451" y="254" on="0"/>
        <pt x="473" y="274" on="0"/>
        <pt x="474" y="293" on="1"/>
        <pt x="474" y="480" on="1"/>
        <pt x="303" y="480" on="1"/>
        <pt x="264" y="480" on="0"/>
        <pt x="229" y="462" on="0"/>
        <pt x="229" y="430" on="1"/>
        <pt x="229" y="300" on="1"/>
        <pt x="229" y="268" on="0"/>
        <pt x="264" y="250" on="0"/>
      </contour>
    </TTGlyph>
    <TTGlyph name="Oslash" xMin="20" yMin="-40" xMax="610" yMax="665">
      <contour>
        <pt x="464" y="486" on="1"/>
        <pt x="449" y="486" on="1"/>
        <pt x="256" y="149" on="1"/>
        <pt x="271" y="149" on="1"/>
        <pt x="177" y="-15" on="1"/>
        <pt x="172" y="-25" on="0"/>
        <pt x="168" y="-29" on="1"/>
        <pt x="157" y="-40" on="0"/>
        <pt x="134" y="-40" on="1"/>
        <pt x="63" y="-40" on="1"/>
        <pt x="171" y="149" on="1"/>
        <pt x="185" y="149" on="1"/>
        <pt x="378" y="486" on="1"/>
        <pt x="364" y="486" on="1"/>
        <pt x="452" y="640" on="1"/>
        <pt x="457" y="650" on="0"/>
        <pt x="461" y="654" on="1"/>
        <pt x="472" y="665" on="0"/>
        <pt x="495" y="665" on="1"/>
        <pt x="566" y="665" on="1"/>
      </contour>
      <contour>
        <pt x="20" y="312" on="1"/>
        <pt x="20" y="483" on="0"/>
        <pt x="148" y="640" on="0"/>
        <pt x="482" y="640" on="0"/>
        <pt x="610" y="483" on="0"/>
        <pt x="610" y="312" on="1"/>
        <pt x="610" y="227" on="0"/>
        <pt x="583" y="111" on="0"/>
        <pt x="517" y="25" on="0"/>
        <pt x="401" y="-15" on="0"/>
        <pt x="229" y="-15" on="0"/>
        <pt x="113" y="25" on="0"/>
        <pt x="47" y="111" on="0"/>
        <pt x="20" y="227" on="0"/>
      </contour>
      <contour>
        <pt x="235" y="416" on="1"/>
        <pt x="235" y="156" on="1"/>
        <pt x="318" y="156" on="1"/>
        <pt x="359" y="156" on="0"/>
        <pt x="396" y="175" on="0"/>
        <pt x="396" y="209" on="1"/>
        <pt x="396" y="469" on="1"/>
        <pt x="312" y="469" on="1"/>
        <pt x="272" y="469" on="0"/>
        <pt x="235" y="450" on="0"/>
      </contour>
    </TTGlyph>
    <TTGlyph name="Otilde" xMin="20" yMin="-15" xMax="610" yMax="845">
      <component glyphName="O" x="0" y="0" flags="0x1004"/>
      <component glyphName="tilde" x="86" y="124" flags="0x1004"/>
    </TTGlyph>
    <TTGlyph name="P" xMin="50" yMin="0" xMax="580" yMax="625">
      <contour>
        <pt x="380" y="151" on="1"/>
        <pt x="250" y="151" on="1"/>
        <pt x="250" y="0" on="1"/>
        <pt x="50" y="0" on="1"/>
        <pt x="50" y="625" on="1"/>
        <pt x="365" y="625" on="1"/>
        <pt x="580" y="625" on="0"/>
        <pt x="580" y="394" on="1"/>
        <pt x="580" y="267" on="0"/>
        <pt x="524" y="206" on="1"/>
        <pt x="503" y="183" on="0"/>
        <pt x="429" y="151" on="0"/>
      </contour>
      <contour>
        <pt x="250" y="465" on="1"/>
        <pt x="250" y="311" on="1"/>
        <pt x="296" y="311" on="1"/>
        <pt x="332" y="311" on="0"/>
        <pt x="365" y="326" on="0"/>
        <pt x="365" y="353" on="1"/>
        <pt x="365" y="423" on="1"/>
        <pt x="365" y="450" on="0"/>
        <pt x="332" y="465" on="0"/>
        <pt x="296" y="465" on="1"/>
      </contour>
    </TTGlyph>
    <TTGlyph name="Q" xMin="20" yMin="-50" xMax="629" yMax="640">
      <contour>
        <pt x="385" y="23" on="1"/>
        <pt x="300" y="0" on="1"/>
        <pt x="132" y="0" on="0"/>
        <pt x="74" y="86" on="1"/>
        <pt x="44" y="129" on="0"/>
        <pt x="20" y="236" on="0"/>
        <pt x="20" y="312" on="1"/>
        <pt x="20" y="483" on="0"/>
        <pt x="148" y="640" on="0"/>
        <pt x="480" y="640" on="0"/>
        <pt x="610" y="482" on="0"/>
        <pt x="610" y="312" on="1"/>
        <pt x="610" y="185" on="0"/>
        <pt x="557" y="107" on="1"/>
        <pt x="629" y="65" on="1"/>
        <pt x="577" y="-50" on="1"/>
        <pt x="385" y="-15" on="1"/>
      </contour>
      <contour>
        <pt x="235" y="156" on="1"/>
        <pt x="318" y="156" on="1"/>
        <pt x="359" y="156" on="0"/>
        <pt x="396" y="175" on="0"/>
        <pt x="396" y="209" on="1"/>
        <pt x="396" y="469" on="1"/>
        <pt x="312" y="469" on="1"/>
        <pt x="272" y="469" on="0"/>
        <pt x="235" y="450" on="0"/>
        <pt x="235" y="416" on="1"/>
      </contour>
    </TTGlyph>
    <TTGlyph name="R" xMin="50" yMin="0" xMax="595" yMax="625">
      <contour>
        <pt x="595" y="0" on="1"/>
        <pt x="375" y="0" on="1"/>
        <pt x="293" y="186" on="1"/>
        <pt x="250" y="186" on="1"/>
        <pt x="250" y="0" on="1"/>
        <pt x="50" y="0" on="1"/>
        <pt x="50" y="625" on="1"/>
        <pt x="365" y="625" on="1"/>
        <pt x="580" y="625" on="0"/>
        <pt x="580" y="406" on="1"/>
        <pt x="580" y="256" on="0"/>
        <pt x="487" y="208" on="1"/>
      </contour>
      <contour>
        <pt x="250" y="465" on="1"/>
        <pt x="250" y="340" on="1"/>
        <pt x="296" y="340" on="1"/>
        <pt x="332" y="340" on="0"/>
        <pt x="365" y="355" on="0"/>
        <pt x="365" y="382" on="1"/>
        <pt x="365" y="423" on="1"/>
        <pt x="365" y="450" on="0"/>
        <pt x="332" y="465" on="0"/>
        <pt x="296" y="465" on="1"/>
      </contour>
    </TTGlyph>
    <TTGlyph name="S" xMin="25" yMin="-15" xMax="552" yMax="640">
      <contour>
        <pt x="25" y="11" on="1"/>
        <pt x="53" y="176" on="1"/>
        <pt x="145" y="153" on="0"/>
        <pt x="292" y="153" on="0"/>
        <pt x="337" y="159" on="1"/>
        <pt x="337" y="209" on="1"/>
        <pt x="247" y="217" on="1"/>
        <pt x="125" y="228" on="0"/>
        <pt x="34" y="323" on="0"/>
        <pt x="34" y="416" on="1"/>
        <pt x="34" y="544" on="0"/>
        <pt x="145" y="640" on="0"/>
        <pt x="411" y="640" on="0"/>
        <pt x="518" y="615" on="1"/>
        <pt x="493" y="455" on="1"/>
        <pt x="400" y="470" on="0"/>
        <pt x="288" y="470" on="0"/>
        <pt x="249" y="465" on="1"/>
        <pt x="249" y="416" on="1"/>
        <pt x="321" y="409" on="1"/>
        <pt x="452" y="396" on="0"/>
        <pt x="552" y="297" on="0"/>
        <pt x="552" y="209" on="1"/>
        <pt x="552" y="146" on="0"/>
        <pt x="518" y="59" on="0"/>
        <pt x="471" y="14" on="0"/>
        <pt x="385" y="-10" on="0"/>
        <pt x="320" y="-15" on="0"/>
        <pt x="266" y="-15" on="1"/>
        <pt x="136" y="-15" on="0"/>
      </contour>
    </TTGlyph>
    <TTGlyph name="Scaron" xMin="25" yMin="-15" xMax="552" yMax="864">
      <component glyphName="S" x="0" y="0" flags="0x1004"/>
      <component glyphName="caron" x="96" y="124" flags="0x1004"/>
    </TTGlyph>
    <TTGlyph name="T" xMin="5" yMin="0" xMax="495" yMax="625">
      <contour>
        <pt x="495" y="465" on="1"/>
        <pt x="350" y="465" on="1"/>
        <pt x="350" y="0" on="1"/>
        <pt x="150" y="0" on="1"/>
        <pt x="150" y="465" on="1"/>
        <pt x="5" y="465" on="1"/>
        <pt x="5" y="625" on="1"/>
        <pt x="495" y="625" on="1"/>
      </contour>
    </TTGlyph>
    <TTGlyph name="Thorn" xMin="50" yMin="0" xMax="580" yMax="625">
      <contour>
        <pt x="380" y="76" on="1"/>
        <pt x="250" y="76" on="1"/>
        <pt x="250" y="0" on="1"/>
        <pt x="50" y="0" on="1"/>
        <pt x="50" y="625" on="1"/>
        <pt x="250" y="625" on="1"/>
        <pt x="250" y="550" on="1"/>
        <pt x="365" y="550" on="1"/>
        <pt x="580" y="550" on="0"/>
        <pt x="580" y="319" on="1"/>
        <pt x="580" y="192" on="0"/>
        <pt x="524" y="132" on="1"/>
        <pt x="503" y="108" on="0"/>
        <pt x="429" y="76" on="0"/>
      </contour>
      <contour>
        <pt x="250" y="390" on="1"/>
        <pt x="250" y="236" on="1"/>
        <pt x="296" y="236" on="1"/>
        <pt x="332" y="236" on="0"/>
        <pt x="365" y="251" on="0"/>
        <pt x="365" y="278" on="1"/>
        <pt x="365" y="348" on="1"/>
        <pt x="365" y="375" on="0"/>
        <pt x="332" y="390" on="0"/>
        <pt x="296" y="390" on="1"/>
      </contour>
    </TTGlyph>
    <TTGlyph name="U" xMin="35" yMin="-15" xMax="572" yMax="625">
      <contour>
        <pt x="235" y="625" on="1"/>
        <pt x="235" y="156" on="1"/>
        <pt x="306" y="156" on="1"/>
        <pt x="344" y="156" on="0"/>
        <pt x="372" y="175" on="0"/>
        <pt x="372" y="209" on="1"/>
        <pt x="372" y="625" on="1"/>
        <pt x="572" y="625" on="1"/>
        <pt x="572" y="274" on="1"/>
        <pt x="572" y="189" on="0"/>
        <pt x="550" y="85" on="0"/>
        <pt x="490" y="13" on="0"/>
        <pt x="386" y="-15" on="0"/>
        <pt x="220" y="-15" on="0"/>
        <pt x="117" y="13" on="0"/>
        <pt x="57" y="85" on="0"/>
        <pt x="35" y="189" on="0"/>
        <pt x="35" y="274" on="1"/>
        <pt x="35" y="625" on="1"/>
      </contour>
    </TTGlyph>
    <TTGlyph name="Uacute" xMin="40" yMin="-15" xMax="577" yMax="849">
      <contour>
        <pt x="240" y="625" on="1"/>
        <pt x="240" y="156" on="1"/>
        <pt x="311" y="156" on="1"/>
        <pt x="349" y="156" on="0"/>
        <pt x="377" y="175" on="0"/>
        <pt x="377" y="209" on="1"/>
        <pt x="377" y="625" on="1"/>
        <pt x="577" y="625" on="1"/>
        <pt x="577" y="274" on="1"/>
        <pt x="577" y="189" on="0"/>
        <pt x="555" y="85" on="0"/>
        <pt x="495" y="13" on="0"/>
        <pt x="391" y="-15" on="0"/>
        <pt x="225" y="-15" on="0"/>
        <pt x="122" y="13" on="0"/>
        <pt x="62" y="85" on="0"/>
        <pt x="40" y="189" on="0"/>
        <pt x="40" y="274" on="1"/>
        <pt x="40" y="625" on="1"/>
      </contour>
      <contour>
        <pt x="379" y="684" on="1"/>
        <pt x="205" y="649" on="1"/>
        <pt x="164" y="706" on="1"/>
        <pt x="353" y="845" on="1"/>
        <pt x="359" y="849" on="0"/>
        <pt x="373" y="849" on="0"/>
        <pt x="382" y="838" on="1"/>
        <pt x="445" y="764" on="1"/>
        <pt x="454" y="754" on="0"/>
        <pt x="454" y="741" on="0"/>
        <pt x="449" y="734" on="0"/>
        <pt x="405" y="696" on="1"/>
        <pt x="395" y="687" on="0"/>
      </contour>
    </TTGlyph>
    <TTGlyph name="Ucircumflex" xMin="40" yMin="-15" xMax="577" yMax="864">
      <contour>
        <pt x="240" y="625" on="1"/>
        <pt x="240" y="156" on="1"/>
        <pt x="311" y="156" on="1"/>
        <pt x="349" y="156" on="0"/>
        <pt x="377" y="175" on="0"/>
        <pt x="377" y="209" on="1"/>
        <pt x="377" y="625" on="1"/>
        <pt x="577" y="625" on="1"/>
        <pt x="577" y="274" on="1"/>
        <pt x="577" y="189" on="0"/>
        <pt x="555" y="85" on="0"/>
        <pt x="495" y="13" on="0"/>
        <pt x="391" y="-15" on="0"/>
        <pt x="225" y="-15" on="0"/>
        <pt x="122" y="13" on="0"/>
        <pt x="62" y="85" on="0"/>
        <pt x="40" y="189" on="0"/>
        <pt x="40" y="274" on="1"/>
        <pt x="40" y="625" on="1"/>
      </contour>
      <contour>
        <pt x="284" y="864" on="1"/>
        <pt x="332" y="864" on="1"/>
        <pt x="339" y="864" on="0"/>
        <pt x="348" y="855" on="1"/>
        <pt x="461" y="710" on="1"/>
        <pt x="401" y="661" on="1"/>
        <pt x="308" y="724" on="1"/>
        <pt x="215" y="661" on="1"/>
        <pt x="155" y="710" on="1"/>
        <pt x="268" y="855" on="1"/>
        <pt x="277" y="864" on="0"/>
      </contour>
    </TTGlyph>
    <TTGlyph name="Udieresis" xMin="40" yMin="-15" xMax="577" yMax="832">
      <contour>
        <pt x="240" y="625" on="1"/>
        <pt x="240" y="156" on="1"/>
        <pt x="311" y="156" on="1"/>
        <pt x="349" y="156" on="0"/>
        <pt x="377" y="175" on="0"/>
        <pt x="377" y="209" on="1"/>
        <pt x="377" y="625" on="1"/>
        <pt x="577" y="625" on="1"/>
        <pt x="577" y="274" on="1"/>
        <pt x="577" y="189" on="0"/>
        <pt x="555" y="85" on="0"/>
        <pt x="495" y="13" on="0"/>
        <pt x="391" y="-15" on="0"/>
        <pt x="225" y="-15" on="0"/>
        <pt x="122" y="13" on="0"/>
        <pt x="62" y="85" on="0"/>
        <pt x="40" y="189" on="0"/>
        <pt x="40" y="274" on="1"/>
        <pt x="40" y="625" on="1"/>
      </contour>
      <contour>
        <pt x="152" y="676" on="0"/>
        <pt x="119" y="710" on="0"/>
        <pt x="119" y="797" on="0"/>
        <pt x="152" y="832" on="0"/>
        <pt x="245" y="832" on="0"/>
        <pt x="278" y="797" on="0"/>
        <pt x="278" y="710" on="0"/>
        <pt x="246" y="676" on="0"/>
      </contour>
      <contour>
        <pt x="371" y="676" on="0"/>
        <pt x="338" y="710" on="0"/>
        <pt x="338" y="797" on="0"/>
        <pt x="371" y="832" on="0"/>
        <pt x="464" y="832" on="0"/>
        <pt x="497" y="797" on="0"/>
        <pt x="497" y="710" on="0"/>
        <pt x="465" y="676" on="0"/>
      </contour>
    </TTGlyph>
    <TTGlyph name="Ugrave" xMin="40" yMin="-15" xMax="577" yMax="864">
      <contour>
        <pt x="240" y="625" on="1"/>
        <pt x="240" y="156" on="1"/>
        <pt x="311" y="156" on="1"/>
        <pt x="349" y="156" on="0"/>
        <pt x="377" y="175" on="0"/>
        <pt x="377" y="209" on="1"/>
        <pt x="377" y="625" on="1"/>
        <pt x="577" y="625" on="1"/>
        <pt x="577" y="274" on="1"/>
        <pt x="577" y="189" on="0"/>
        <pt x="555" y="85" on="0"/>
        <pt x="495" y="13" on="0"/>
        <pt x="391" y="-15" on="0"/>
        <pt x="225" y="-15" on="0"/>
        <pt x="122" y="13" on="0"/>
        <pt x="62" y="85" on="0"/>
        <pt x="40" y="189" on="0"/>
        <pt x="40" y="274" on="1"/>
        <pt x="40" y="625" on="1"/>
      </contour>
      <contour>
        <pt x="382" y="664" on="1"/>
        <pt x="208" y="699" on="1"/>
        <pt x="192" y="702" on="0"/>
        <pt x="182" y="711" on="1"/>
        <pt x="137" y="750" on="1"/>
        <pt x="133" y="756" on="0"/>
        <pt x="133" y="768" on="0"/>
        <pt x="142" y="779" on="1"/>
        <pt x="205" y="853" on="1"/>
        <pt x="214" y="864" on="0"/>
        <pt x="228" y="864" on="0"/>
        <pt x="234" y="860" on="1"/>
        <pt x="423" y="721" on="1"/>
      </contour>
    </TTGlyph>
    <TTGlyph name="V" xMin="0" yMin="0" xMax="602" yMax="625">
      <contour>
        <pt x="391" y="625" on="1"/>
        <pt x="602" y="625" on="1"/>
        <pt x="447" y="0" on="1"/>
        <pt x="155" y="0" on="1"/>
        <pt x="0" y="625" on="1"/>
        <pt x="211" y="625" on="1"/>
        <pt x="296" y="228" on="1"/>
        <pt x="305" y="228" on="1"/>
      </contour>
    </TTGlyph>
    <TTGlyph name="W" xMin="0" yMin="0" xMax="821" yMax="625">
      <contour>
        <pt x="612" y="625" on="1"/>
        <pt x="821" y="625" on="1"/>
        <pt x="723" y="0" on="1"/>
        <pt x="462" y="0" on="1"/>
        <pt x="416" y="230" on="1"/>
        <pt x="404" y="230" on="1"/>
        <pt x="359" y="0" on="1"/>
        <pt x="98" y="0" on="1"/>
        <pt x="0" y="625" on="1"/>
        <pt x="209" y="625" on="1"/>
        <pt x="256" y="276" on="1"/>
        <pt x="262" y="276" on="1"/>
        <pt x="334" y="625" on="1"/>
        <pt x="487" y="625" on="1"/>
        <pt x="558" y="276" on="1"/>
        <pt x="564" y="276" on="1"/>
      </contour>
    </TTGlyph>
    <TTGlyph name="X" xMin="0" yMin="0" xMax="592" yMax="625">
      <contour>
        <pt x="227" y="625" on="1"/>
        <pt x="296" y="458" on="1"/>
        <pt x="306" y="458" on="1"/>
        <pt x="375" y="625" on="1"/>
        <pt x="592" y="625" on="1"/>
        <pt x="453" y="323" on="1"/>
        <pt x="592" y="0" on="1"/>
        <pt x="370" y="0" on="1"/>
        <pt x="295" y="180" on="1"/>
        <pt x="286" y="180" on="1"/>
        <pt x="212" y="0" on="1"/>
        <pt x="0" y="0" on="1"/>
        <pt x="136" y="317" on="1"/>
        <pt x="0" y="625" on="1"/>
      </contour>
    </TTGlyph>
    <TTGlyph name="Y" xMin="0" yMin="0" xMax="560" yMax="625">
      <contour>
        <pt x="221" y="625" on="1"/>
        <pt x="276" y="405" on="1"/>
        <pt x="283" y="405" on="1"/>
        <pt x="339" y="625" on="1"/>
        <pt x="560" y="625" on="1"/>
        <pt x="380" y="170" on="1"/>
        <pt x="380" y="0" on="1"/>
        <pt x="180" y="0" on="1"/>
        <pt x="180" y="170" on="1"/>
        <pt x="0" y="625" on="1"/>
      </contour>
    </TTGlyph>
    <TTGlyph name="Yacute" xMin="0" yMin="0" xMax="560" yMax="863">
      <component glyphName="Y" x="0" y="0" flags="0x1004"/>
      <component glyphName="acute" x="66" y="124" flags="0x1004"/>
    </TTGlyph>
    <TTGlyph name="Ydieresis" xMin="0" yMin="0" xMax="560" yMax="832">
      <contour>
        <pt x="221" y="625" on="1"/>
        <pt x="276" y="405" on="1"/>
        <pt x="283" y="405" on="1"/>
        <pt x="339" y="625" on="1"/>
        <pt x="560" y="625" on="1"/>
        <pt x="380" y="170" on="1"/>
        <pt x="380" y="0" on="1"/>
        <pt x="180" y="0" on="1"/>
        <pt x="180" y="170" on="1"/>
        <pt x="0" y="625" on="1"/>
      </contour>
      <contour>
        <pt x="124" y="676" on="0"/>
        <pt x="91" y="710" on="0"/>
        <pt x="91" y="797" on="0"/>
        <pt x="124" y="832" on="0"/>
        <pt x="217" y="832" on="0"/>
        <pt x="250" y="797" on="0"/>
        <pt x="250" y="710" on="0"/>
        <pt x="218" y="676" on="0"/>
      </contour>
      <contour>
        <pt x="343" y="676" on="0"/>
        <pt x="310" y="710" on="0"/>
        <pt x="310" y="797" on="0"/>
        <pt x="343" y="832" on="0"/>
        <pt x="436" y="832" on="0"/>
        <pt x="469" y="797" on="0"/>
        <pt x="469" y="710" on="0"/>
        <pt x="437" y="676" on="0"/>
      </contour>
    </TTGlyph>
    <TTGlyph name="Z" xMin="25" yMin="0" xMax="564" yMax="625">
      <contour>
        <pt x="564" y="0" on="1"/>
        <pt x="25" y="0" on="1"/>
        <pt x="25" y="125" on="1"/>
        <pt x="281" y="459" on="1"/>
        <pt x="278" y="465" on="1"/>
        <pt x="68" y="465" on="1"/>
        <pt x="50" y="625" on="1"/>
        <pt x="560" y="625" on="1"/>
        <pt x="560" y="500" on="1"/>
        <pt x="307" y="166" on="1"/>
        <pt x="310" y="160" on="1"/>
        <pt x="564" y="160" on="1"/>
      </contour>
    </TTGlyph>
    <TTGlyph name="Zcaron" xMin="25" yMin="0" xMax="564" yMax="864">
      <component glyphName="Z" x="0" y="0" flags="0x1004"/>
      <component glyphName="caron" x="102" y="124" flags="0x1004"/>
    </TTGlyph>
    <TTGlyph name="a" xMin="15" yMin="-15" xMax="527" yMax="515">
      <contour>
        <pt x="287" y="515" on="1"/>
        <pt x="527" y="515" on="0"/>
        <pt x="527" y="350" on="1"/>
        <pt x="527" y="0" on="1"/>
        <pt x="427" y="0" on="1"/>
        <pt x="370" y="57" on="1"/>
        <pt x="341" y="23" on="0"/>
        <pt x="241" y="-15" on="0"/>
        <pt x="152" y="-15" on="0"/>
        <pt x="98" y="-1" on="0"/>
        <pt x="72" y="16" on="1"/>
        <pt x="15" y="52" on="0"/>
        <pt x="15" y="150" on="1"/>
        <pt x="15" y="330" on="0"/>
        <pt x="287" y="330" on="1"/>
        <pt x="327" y="330" on="1"/>
        <pt x="327" y="366" on="1"/>
        <pt x="295" y="368" on="0"/>
        <pt x="274" y="368" on="1"/>
        <pt x="161" y="368" on="0"/>
        <pt x="80" y="341" on="1"/>
        <pt x="56" y="484" on="1"/>
        <pt x="156" y="515" on="0"/>
      </contour>
      <contour>
        <pt x="217" y="172" on="1"/>
        <pt x="217" y="131" on="1"/>
        <pt x="258" y="131" on="1"/>
        <pt x="302" y="131" on="0"/>
        <pt x="327" y="151" on="0"/>
        <pt x="327" y="167" on="1"/>
        <pt x="327" y="214" on="1"/>
        <pt x="286" y="214" on="1"/>
        <pt x="250" y="214" on="0"/>
        <pt x="217" y="199" on="0"/>
      </contour>
    </TTGlyph>
    <TTGlyph name="aacute" xMin="15" yMin="-15" xMax="527" yMax="739">
      <component glyphName="a" x="0" y="0" flags="0x1004"/>
      <component glyphName="acute" x="101" y="0" flags="0x1004"/>
    </TTGlyph>
    <TTGlyph name="acircumflex" xMin="15" yMin="-15" xMax="527" yMax="740">
      <contour>
        <pt x="287" y="515" on="1"/>
        <pt x="527" y="515" on="0"/>
        <pt x="527" y="350" on="1"/>
        <pt x="527" y="0" on="1"/>
        <pt x="427" y="0" on="1"/>
        <pt x="370" y="57" on="1"/>
        <pt x="341" y="23" on="0"/>
        <pt x="241" y="-15" on="0"/>
        <pt x="152" y="-15" on="0"/>
        <pt x="98" y="-1" on="0"/>
        <pt x="72" y="16" on="1"/>
        <pt x="15" y="52" on="0"/>
        <pt x="15" y="150" on="1"/>
        <pt x="15" y="330" on="0"/>
        <pt x="287" y="330" on="1"/>
        <pt x="327" y="330" on="1"/>
        <pt x="327" y="366" on="1"/>
        <pt x="295" y="368" on="0"/>
        <pt x="274" y="368" on="1"/>
        <pt x="161" y="368" on="0"/>
        <pt x="80" y="341" on="1"/>
        <pt x="56" y="484" on="1"/>
        <pt x="156" y="515" on="0"/>
      </contour>
      <contour>
        <pt x="217" y="172" on="1"/>
        <pt x="217" y="131" on="1"/>
        <pt x="258" y="131" on="1"/>
        <pt x="302" y="131" on="0"/>
        <pt x="327" y="151" on="0"/>
        <pt x="327" y="167" on="1"/>
        <pt x="327" y="214" on="1"/>
        <pt x="286" y="214" on="1"/>
        <pt x="250" y="214" on="0"/>
        <pt x="217" y="199" on="0"/>
      </contour>
      <contour>
        <pt x="256" y="740" on="1"/>
        <pt x="304" y="740" on="1"/>
        <pt x="311" y="740" on="0"/>
        <pt x="320" y="731" on="1"/>
        <pt x="433" y="586" on="1"/>
        <pt x="373" y="537" on="1"/>
        <pt x="280" y="600" on="1"/>
        <pt x="187" y="537" on="1"/>
        <pt x="127" y="586" on="1"/>
        <pt x="240" y="731" on="1"/>
        <pt x="249" y="740" on="0"/>
      </contour>
    </TTGlyph>
    <TTGlyph name="acute" xMin="70" yMin="539" xMax="360" yMax="739">
      <contour>
        <pt x="285" y="574" on="1"/>
        <pt x="111" y="539" on="1"/>
        <pt x="70" y="596" on="1"/>
        <pt x="259" y="735" on="1"/>
        <pt x="265" y="739" on="0"/>
        <pt x="279" y="739" on="0"/>
        <pt x="288" y="728" on="1"/>
        <pt x="351" y="654" on="1"/>
        <pt x="360" y="644" on="0"/>
        <pt x="360" y="631" on="0"/>
        <pt x="355" y="624" on="0"/>
        <pt x="311" y="586" on="1"/>
        <pt x="301" y="577" on="0"/>
      </contour>
    </TTGlyph>
    <TTGlyph name="adieresis" xMin="15" yMin="-15" xMax="527" yMax="708">
      <component glyphName="a" x="0" y="0" flags="0x1004"/>
      <component glyphName="dieresis" x="66" y="0" flags="0x1004"/>
    </TTGlyph>
    <TTGlyph name="ae" xMin="15" yMin="-15" xMax="822" yMax="515">
      <contour>
        <pt x="56" y="484" on="1"/>
        <pt x="156" y="515" on="0"/>
        <pt x="381" y="515" on="0"/>
        <pt x="438" y="490" on="1"/>
        <pt x="491" y="515" on="0"/>
        <pt x="577" y="515" on="1"/>
        <pt x="716" y="515" on="0"/>
        <pt x="822" y="439" on="0"/>
        <pt x="822" y="335" on="1"/>
        <pt x="822" y="247" on="0"/>
        <pt x="695" y="170" on="0"/>
        <pt x="527" y="170" on="1"/>
        <pt x="527" y="135" on="1"/>
        <pt x="557" y="132" on="0"/>
        <pt x="587" y="132" on="1"/>
        <pt x="685" y="132" on="0"/>
        <pt x="775" y="162" on="1"/>
        <pt x="799" y="15" on="1"/>
        <pt x="687" y="-15" on="0"/>
        <pt x="577" y="-15" on="1"/>
        <pt x="430" y="-15" on="0"/>
        <pt x="373" y="60" on="1"/>
        <pt x="313" y="-15" on="0"/>
        <pt x="198" y="-15" on="1"/>
        <pt x="107" y="-15" on="0"/>
        <pt x="15" y="62" on="0"/>
        <pt x="15" y="150" on="1"/>
        <pt x="15" y="330" on="0"/>
        <pt x="287" y="330" on="1"/>
        <pt x="327" y="330" on="1"/>
        <pt x="327" y="366" on="1"/>
        <pt x="295" y="368" on="0"/>
        <pt x="274" y="368" on="1"/>
        <pt x="161" y="368" on="0"/>
        <pt x="80" y="341" on="1"/>
      </contour>
      <contour>
        <pt x="527" y="327" on="1"/>
        <pt x="527" y="286" on="1"/>
        <pt x="568" y="286" on="1"/>
        <pt x="604" y="286" on="0"/>
        <pt x="637" y="301" on="0"/>
        <pt x="637" y="328" on="1"/>
        <pt x="637" y="369" on="1"/>
        <pt x="596" y="369" on="1"/>
        <pt x="560" y="369" on="0"/>
        <pt x="527" y="354" on="0"/>
      </contour>
      <contour>
        <pt x="217" y="172" on="1"/>
        <pt x="217" y="131" on="1"/>
        <pt x="258" y="131" on="1"/>
        <pt x="292" y="131" on="0"/>
        <pt x="325" y="144" on="0"/>
        <pt x="327" y="167" on="1"/>
        <pt x="327" y="214" on="1"/>
        <pt x="286" y="214" on="1"/>
        <pt x="250" y="214" on="0"/>
        <pt x="217" y="199" on="0"/>
      </contour>
    </TTGlyph>
    <TTGlyph name="agrave" xMin="15" yMin="-15" xMax="527" yMax="739">
      <contour>
        <pt x="287" y="515" on="1"/>
        <pt x="527" y="515" on="0"/>
        <pt x="527" y="350" on="1"/>
        <pt x="527" y="0" on="1"/>
        <pt x="427" y="0" on="1"/>
        <pt x="370" y="57" on="1"/>
        <pt x="341" y="23" on="0"/>
        <pt x="241" y="-15" on="0"/>
        <pt x="152" y="-15" on="0"/>
        <pt x="98" y="-1" on="0"/>
        <pt x="72" y="16" on="1"/>
        <pt x="15" y="52" on="0"/>
        <pt x="15" y="150" on="1"/>
        <pt x="15" y="330" on="0"/>
        <pt x="287" y="330" on="1"/>
        <pt x="327" y="330" on="1"/>
        <pt x="327" y="366" on="1"/>
        <pt x="295" y="368" on="0"/>
        <pt x="274" y="368" on="1"/>
        <pt x="161" y="368" on="0"/>
        <pt x="80" y="341" on="1"/>
        <pt x="56" y="484" on="1"/>
        <pt x="156" y="515" on="0"/>
      </contour>
      <contour>
        <pt x="217" y="172" on="1"/>
        <pt x="217" y="131" on="1"/>
        <pt x="258" y="131" on="1"/>
        <pt x="302" y="131" on="0"/>
        <pt x="327" y="151" on="0"/>
        <pt x="327" y="167" on="1"/>
        <pt x="327" y="214" on="1"/>
        <pt x="286" y="214" on="1"/>
        <pt x="250" y="214" on="0"/>
        <pt x="217" y="199" on="0"/>
      </contour>
      <contour>
        <pt x="354" y="539" on="1"/>
        <pt x="180" y="574" on="1"/>
        <pt x="164" y="577" on="0"/>
        <pt x="154" y="586" on="1"/>
        <pt x="109" y="625" on="1"/>
        <pt x="105" y="631" on="0"/>
        <pt x="105" y="644" on="0"/>
        <pt x="114" y="654" on="1"/>
        <pt x="177" y="728" on="1"/>
        <pt x="186" y="739" on="0"/>
        <pt x="200" y="739" on="0"/>
        <pt x="206" y="735" on="1"/>
        <pt x="395" y="596" on="1"/>
      </contour>
    </TTGlyph>
    <TTGlyph name="ampersand" xMin="45" yMin="-115" xMax="654" yMax="625">
      <contour>
        <pt x="439" y="-115" on="1"/>
        <pt x="414" y="21" on="1"/>
        <pt x="293" y="-15" on="0"/>
        <pt x="220" y="-15" on="1"/>
        <pt x="45" y="-15" on="0"/>
        <pt x="45" y="180" on="1"/>
        <pt x="45" y="345" on="0"/>
        <pt x="169" y="363" on="1"/>
        <pt x="169" y="367" on="1"/>
        <pt x="84" y="396" on="1"/>
        <pt x="84" y="529" on="0"/>
        <pt x="179" y="625" on="0"/>
        <pt x="366" y="625" on="0"/>
        <pt x="466" y="604" on="1"/>
        <pt x="437" y="457" on="1"/>
        <pt x="348" y="457" on="1"/>
        <pt x="315" y="457" on="0"/>
        <pt x="287" y="440" on="0"/>
        <pt x="287" y="415" on="1"/>
        <pt x="287" y="382" on="1"/>
        <pt x="654" y="382" on="1"/>
        <pt x="632" y="242" on="1"/>
        <pt x="562" y="242" on="1"/>
        <pt x="562" y="-100" on="1"/>
      </contour>
      <contour>
        <pt x="335" y="156" on="1"/>
        <pt x="364" y="156" on="0"/>
        <pt x="389" y="160" on="1"/>
        <pt x="374" y="242" on="1"/>
        <pt x="287" y="242" on="1"/>
        <pt x="287" y="201" on="1"/>
        <pt x="287" y="156" on="0"/>
      </contour>
    </TTGlyph>
    <TTGlyph name="approxequal" xMin="72" yMin="83" xMax="527" yMax="540">
      <contour>
        <pt x="72" y="121" on="1"/>
        <pt x="72" y="265" on="1"/>
        <pt x="115" y="227" on="0"/>
        <pt x="212" y="227" on="0"/>
        <pt x="387" y="302" on="0"/>
        <pt x="483" y="302" on="0"/>
        <pt x="527" y="265" on="1"/>
        <pt x="527" y="121" on="1"/>
        <pt x="483" y="158" on="0"/>
        <pt x="387" y="158" on="0"/>
        <pt x="212" y="83" on="0"/>
        <pt x="115" y="83" on="0"/>
      </contour>
      <contour>
        <pt x="72" y="359" on="1"/>
        <pt x="72" y="503" on="1"/>
        <pt x="115" y="465" on="0"/>
        <pt x="212" y="465" on="0"/>
        <pt x="387" y="540" on="0"/>
        <pt x="483" y="540" on="0"/>
        <pt x="527" y="503" on="1"/>
        <pt x="527" y="359" on="1"/>
        <pt x="483" y="396" on="0"/>
        <pt x="387" y="396" on="0"/>
        <pt x="212" y="321" on="0"/>
        <pt x="115" y="321" on="0"/>
      </contour>
    </TTGlyph>
    <TTGlyph name="aring" xMin="15" yMin="-15" xMax="527" yMax="758">
      <component glyphName="a" x="0" y="0" flags="0x1004"/>
      <component glyphName="ring" x="149" y="0" flags="0x1004"/>
    </TTGlyph>
    <TTGlyph name="asciicircum" xMin="58" yMin="218" xMax="548" yMax="587">
      <contour>
        <pt x="548" y="262" on="1"/>
        <pt x="414" y="218" on="1"/>
        <pt x="306" y="442" on="1"/>
        <pt x="300" y="442" on="1"/>
        <pt x="192" y="218" on="1"/>
        <pt x="58" y="262" on="1"/>
        <pt x="212" y="587" on="1"/>
        <pt x="394" y="587" on="1"/>
      </contour>
    </TTGlyph>
    <TTGlyph name="asciitilde" xMin="12" yMin="202" xMax="588" yMax="423">
      <contour>
        <pt x="556" y="272" on="0"/>
        <pt x="462" y="203" on="0"/>
        <pt x="359" y="203" on="0"/>
        <pt x="235" y="268" on="0"/>
        <pt x="191" y="268" on="0"/>
        <pt x="147" y="235" on="0"/>
        <pt x="118" y="202" on="1"/>
        <pt x="12" y="293" on="1"/>
        <pt x="55" y="350" on="0"/>
        <pt x="83" y="376" on="1"/>
        <pt x="133" y="423" on="0"/>
        <pt x="190" y="423" on="1"/>
        <pt x="228" y="423" on="0"/>
        <pt x="355" y="354" on="0"/>
        <pt x="385" y="354" on="1"/>
        <pt x="433" y="354" on="0"/>
        <pt x="481" y="420" on="1"/>
        <pt x="588" y="330" on="1"/>
      </contour>
    </TTGlyph>
    <TTGlyph name="asterisk" xMin="26" yMin="204" xMax="506" yMax="665">
      <contour>
        <pt x="341" y="580" on="1"/>
        <pt x="312" y="491" on="1"/>
        <pt x="387" y="548" on="1"/>
        <pt x="441" y="564" on="1"/>
        <pt x="449" y="566" on="0"/>
        <pt x="452" y="566" on="1"/>
        <pt x="470" y="566" on="0"/>
        <pt x="479" y="538" on="1"/>
        <pt x="502" y="467" on="1"/>
        <pt x="506" y="455" on="0"/>
        <pt x="506" y="446" on="1"/>
        <pt x="506" y="427" on="0"/>
        <pt x="489" y="422" on="1"/>
        <pt x="433" y="406" on="1"/>
        <pt x="338" y="406" on="1"/>
        <pt x="416" y="351" on="1"/>
        <pt x="449" y="304" on="1"/>
        <pt x="455" y="294" on="0"/>
        <pt x="455" y="276" on="0"/>
        <pt x="435" y="260" on="1"/>
        <pt x="375" y="216" on="1"/>
        <pt x="360" y="204" on="0"/>
        <pt x="336" y="204" on="0"/>
        <pt x="328" y="215" on="1"/>
        <pt x="286" y="263" on="1"/>
        <pt x="264" y="345" on="1"/>
        <pt x="238" y="262" on="1"/>
        <pt x="204" y="216" on="1"/>
        <pt x="196" y="205" on="0"/>
        <pt x="173" y="205" on="0"/>
        <pt x="158" y="216" on="1"/>
        <pt x="97" y="260" on="1"/>
        <pt x="76" y="275" on="0"/>
        <pt x="76" y="296" on="0"/>
        <pt x="82" y="304" on="1"/>
        <pt x="117" y="351" on="1"/>
        <pt x="190" y="404" on="1"/>
        <pt x="99" y="404" on="1"/>
        <pt x="44" y="422" on="1"/>
        <pt x="26" y="427" on="0"/>
        <pt x="26" y="446" on="1"/>
        <pt x="26" y="455" on="0"/>
        <pt x="30" y="466" on="1"/>
        <pt x="53" y="538" on="1"/>
        <pt x="63" y="567" on="0"/>
        <pt x="80" y="567" on="1"/>
        <pt x="84" y="567" on="0"/>
        <pt x="90" y="565" on="1"/>
        <pt x="146" y="547" on="1"/>
        <pt x="220" y="492" on="1"/>
        <pt x="191" y="580" on="1"/>
        <pt x="191" y="638" on="1"/>
        <pt x="191" y="665" on="0"/>
        <pt x="228" y="665" on="1"/>
        <pt x="304" y="665" on="1"/>
        <pt x="341" y="665" on="0"/>
        <pt x="341" y="638" on="1"/>
      </contour>
    </TTGlyph>
    <TTGlyph name="at" xMin="40" yMin="-165" xMax="817" yMax="600">
      <contour>
        <pt x="537" y="187" on="1"/>
        <pt x="537" y="131" on="1"/>
        <pt x="548" y="131" on="1"/>
        <pt x="582" y="131" on="0"/>
        <pt x="615" y="144" on="0"/>
        <pt x="617" y="167" on="1"/>
        <pt x="617" y="229" on="1"/>
        <pt x="606" y="229" on="1"/>
        <pt x="570" y="229" on="0"/>
        <pt x="537" y="214" on="0"/>
      </contour>
      <contour>
        <pt x="40" y="176" on="1"/>
        <pt x="40" y="259" on="1"/>
        <pt x="40" y="481" on="0"/>
        <pt x="210" y="557" on="1"/>
        <pt x="307" y="600" on="0"/>
        <pt x="645" y="600" on="0"/>
        <pt x="817" y="506" on="0"/>
        <pt x="817" y="407" on="1"/>
        <pt x="817" y="0" on="1"/>
        <pt x="717" y="0" on="1"/>
        <pt x="660" y="63" on="1"/>
        <pt x="600" y="-9" on="0"/>
        <pt x="484" y="-9" on="1"/>
        <pt x="331" y="-9" on="0"/>
        <pt x="331" y="159" on="1"/>
        <pt x="331" y="350" on="0"/>
        <pt x="577" y="350" on="1"/>
        <pt x="617" y="350" on="1"/>
        <pt x="617" y="423" on="1"/>
        <pt x="565" y="433" on="0"/>
        <pt x="432" y="433" on="0"/>
        <pt x="381" y="430" on="0"/>
        <pt x="317" y="414" on="0"/>
        <pt x="281" y="385" on="0"/>
        <pt x="255" y="329" on="0"/>
        <pt x="255" y="290" on="1"/>
        <pt x="255" y="93" on="1"/>
        <pt x="255" y="54" on="0"/>
        <pt x="281" y="-2" on="0"/>
        <pt x="317" y="-31" on="0"/>
        <pt x="349" y="-39" on="1"/>
        <pt x="393" y="-50" on="0"/>
        <pt x="472" y="-50" on="1"/>
        <pt x="660" y="-50" on="1"/>
        <pt x="660" y="-144" on="1"/>
        <pt x="555" y="-165" on="0"/>
        <pt x="384" y="-165" on="0"/>
        <pt x="264" y="-146" on="0"/>
        <pt x="156" y="-98" on="0"/>
        <pt x="120" y="-60" on="1"/>
        <pt x="40" y="23" on="0"/>
      </contour>
    </TTGlyph>
    <TTGlyph name="atilde" xMin="15" yMin="-15" xMax="527" yMax="721">
      <contour>
        <pt x="287" y="515" on="1"/>
        <pt x="527" y="515" on="0"/>
        <pt x="527" y="350" on="1"/>
        <pt x="527" y="0" on="1"/>
        <pt x="427" y="0" on="1"/>
        <pt x="370" y="57" on="1"/>
        <pt x="341" y="23" on="0"/>
        <pt x="241" y="-15" on="0"/>
        <pt x="152" y="-15" on="0"/>
        <pt x="98" y="-1" on="0"/>
        <pt x="72" y="16" on="1"/>
        <pt x="15" y="52" on="0"/>
        <pt x="15" y="150" on="1"/>
        <pt x="15" y="330" on="0"/>
        <pt x="287" y="330" on="1"/>
        <pt x="327" y="330" on="1"/>
        <pt x="327" y="366" on="1"/>
        <pt x="295" y="368" on="0"/>
        <pt x="274" y="368" on="1"/>
        <pt x="161" y="368" on="0"/>
        <pt x="80" y="341" on="1"/>
        <pt x="56" y="484" on="1"/>
        <pt x="156" y="515" on="0"/>
      </contour>
      <contour>
        <pt x="217" y="172" on="1"/>
        <pt x="217" y="131" on="1"/>
        <pt x="258" y="131" on="1"/>
        <pt x="302" y="131" on="0"/>
        <pt x="327" y="151" on="0"/>
        <pt x="327" y="167" on="1"/>
        <pt x="327" y="214" on="1"/>
        <pt x="286" y="214" on="1"/>
        <pt x="250" y="214" on="0"/>
        <pt x="217" y="199" on="0"/>
      </contour>
      <contour>
        <pt x="424" y="716" on="1"/>
        <pt x="474" y="635" on="1"/>
        <pt x="355" y="555" on="0"/>
        <pt x="326" y="543" on="0"/>
        <pt x="298" y="543" on="0"/>
        <pt x="281" y="547" on="0"/>
        <pt x="261" y="558" on="0"/>
        <pt x="250" y="566" on="0"/>
        <pt x="225" y="584" on="0"/>
        <pt x="220" y="588" on="1"/>
        <pt x="138" y="548" on="1"/>
        <pt x="88" y="629" on="1"/>
        <pt x="207" y="709" on="0"/>
        <pt x="236" y="721" on="0"/>
        <pt x="264" y="721" on="0"/>
        <pt x="281" y="717" on="0"/>
        <pt x="301" y="706" on="0"/>
        <pt x="312" y="698" on="0"/>
        <pt x="337" y="680" on="0"/>
        <pt x="342" y="676" on="1"/>
      </contour>
    </TTGlyph>
    <TTGlyph name="b" xMin="50" yMin="-15" xMax="565" yMax="665">
      <contour>
        <pt x="50" y="25" on="1"/>
        <pt x="50" y="650" on="1"/>
        <pt x="250" y="665" on="1"/>
        <pt x="250" y="499" on="1"/>
        <pt x="288" y="515" on="0"/>
        <pt x="411" y="515" on="0"/>
        <pt x="499" y="469" on="0"/>
        <pt x="522" y="429" on="1"/>
        <pt x="565" y="354" on="0"/>
        <pt x="565" y="250" on="1"/>
        <pt x="565" y="109" on="0"/>
        <pt x="435" y="-15" on="0"/>
        <pt x="171" y="-15" on="0"/>
      </contour>
      <contour>
        <pt x="250" y="332" on="1"/>
        <pt x="250" y="131" on="1"/>
        <pt x="281" y="131" on="1"/>
        <pt x="317" y="131" on="0"/>
        <pt x="350" y="146" on="0"/>
        <pt x="350" y="173" on="1"/>
        <pt x="350" y="369" on="1"/>
        <pt x="319" y="369" on="1"/>
        <pt x="297" y="369" on="0"/>
        <pt x="271" y="365" on="0"/>
        <pt x="251" y="348" on="0"/>
      </contour>
    </TTGlyph>
    <TTGlyph name="backslash" xMin="0" yMin="-40" xMax="503" yMax="665">
      <contour>
        <pt x="389" y="-15" on="1"/>
        <pt x="0" y="665" on="1"/>
        <pt x="71" y="665" on="1"/>
        <pt x="90" y="665" on="0"/>
        <pt x="106" y="654" on="0"/>
        <pt x="114" y="640" on="1"/>
        <pt x="503" y="-40" on="1"/>
        <pt x="432" y="-40" on="1"/>
        <pt x="413" y="-40" on="0"/>
        <pt x="397" y="-29" on="0"/>
      </contour>
    </TTGlyph>
    <TTGlyph name="bar" xMin="150" yMin="-180" xMax="270" yMax="704">
      <contour>
        <pt x="150" y="-180" on="1"/>
        <pt x="150" y="704" on="1"/>
        <pt x="270" y="704" on="1"/>
        <pt x="270" y="-180" on="1"/>
      </contour>
    </TTGlyph>
    <TTGlyph name="braceleft" xMin="0" yMin="-146" xMax="309" yMax="610">
      <contour>
        <pt x="241" y="102" on="1"/>
        <pt x="226" y="8" on="1"/>
        <pt x="309" y="1" on="1"/>
        <pt x="300" y="-146" on="1"/>
        <pt x="169" y="-146" on="0"/>
        <pt x="126" y="-131" on="1"/>
        <pt x="73" y="-113" on="0"/>
        <pt x="59" y="-84" on="1"/>
        <pt x="50" y="-65" on="0"/>
        <pt x="50" y="-41" on="1"/>
        <pt x="65" y="159" on="1"/>
        <pt x="0" y="175" on="1"/>
        <pt x="0" y="287" on="1"/>
        <pt x="65" y="303" on="1"/>
        <pt x="50" y="505" on="1"/>
        <pt x="50" y="555" on="0"/>
        <pt x="86" y="577" on="1"/>
        <pt x="125" y="600" on="0"/>
        <pt x="168" y="604" on="1"/>
        <pt x="231" y="610" on="0"/>
        <pt x="300" y="610" on="1"/>
        <pt x="309" y="463" on="1"/>
        <pt x="306" y="463" on="0"/>
        <pt x="226" y="456" on="1"/>
        <pt x="241" y="360" on="1"/>
        <pt x="241" y="270" on="0"/>
        <pt x="185" y="237" on="1"/>
        <pt x="185" y="225" on="1"/>
        <pt x="241" y="192" on="0"/>
      </contour>
    </TTGlyph>
    <TTGlyph name="braceright" xMin="30" yMin="-146" xMax="339" yMax="610">
      <contour>
        <pt x="113" y="8" on="1"/>
        <pt x="98" y="102" on="1"/>
        <pt x="98" y="192" on="0"/>
        <pt x="154" y="225" on="1"/>
        <pt x="154" y="237" on="1"/>
        <pt x="98" y="270" on="0"/>
        <pt x="98" y="360" on="1"/>
        <pt x="113" y="456" on="1"/>
        <pt x="33" y="463" on="0"/>
        <pt x="30" y="463" on="1"/>
        <pt x="39" y="610" on="1"/>
        <pt x="170" y="610" on="0"/>
        <pt x="214" y="595" on="1"/>
        <pt x="266" y="577" on="0"/>
        <pt x="280" y="548" on="1"/>
        <pt x="289" y="529" on="0"/>
        <pt x="289" y="505" on="1"/>
        <pt x="274" y="303" on="1"/>
        <pt x="339" y="287" on="1"/>
        <pt x="339" y="175" on="1"/>
        <pt x="274" y="159" on="1"/>
        <pt x="289" y="-41" on="1"/>
        <pt x="289" y="-91" on="0"/>
        <pt x="252" y="-113" on="1"/>
        <pt x="214" y="-136" on="0"/>
        <pt x="171" y="-140" on="1"/>
        <pt x="108" y="-146" on="0"/>
        <pt x="39" y="-146" on="1"/>
        <pt x="30" y="1" on="1"/>
      </contour>
    </TTGlyph>
    <TTGlyph name="bracketleft" xMin="50" yMin="-146" xMax="309" yMax="610">
      <contour>
        <pt x="50" y="-41" on="1"/>
        <pt x="50" y="505" on="1"/>
        <pt x="50" y="555" on="0"/>
        <pt x="86" y="577" on="1"/>
        <pt x="125" y="600" on="0"/>
        <pt x="168" y="604" on="1"/>
        <pt x="231" y="610" on="0"/>
        <pt x="300" y="610" on="1"/>
        <pt x="309" y="463" on="1"/>
        <pt x="306" y="463" on="0"/>
        <pt x="226" y="456" on="1"/>
        <pt x="226" y="8" on="1"/>
        <pt x="309" y="1" on="1"/>
        <pt x="300" y="-146" on="1"/>
        <pt x="169" y="-146" on="0"/>
        <pt x="126" y="-131" on="1"/>
        <pt x="73" y="-113" on="0"/>
        <pt x="59" y="-84" on="1"/>
        <pt x="50" y="-65" on="0"/>
      </contour>
    </TTGlyph>
    <TTGlyph name="bracketright" xMin="30" yMin="-146" xMax="289" yMax="610">
      <contour>
        <pt x="289" y="505" on="1"/>
        <pt x="289" y="-41" on="1"/>
        <pt x="289" y="-91" on="0"/>
        <pt x="252" y="-113" on="1"/>
        <pt x="214" y="-136" on="0"/>
        <pt x="171" y="-140" on="1"/>
        <pt x="108" y="-146" on="0"/>
        <pt x="39" y="-146" on="1"/>
        <pt x="30" y="1" on="1"/>
        <pt x="113" y="8" on="1"/>
        <pt x="113" y="456" on="1"/>
        <pt x="33" y="463" on="0"/>
        <pt x="30" y="463" on="1"/>
        <pt x="39" y="610" on="1"/>
        <pt x="170" y="610" on="0"/>
        <pt x="214" y="595" on="1"/>
        <pt x="266" y="577" on="0"/>
        <pt x="280" y="548" on="1"/>
        <pt x="289" y="529" on="0"/>
      </contour>
    </TTGlyph>
    <TTGlyph name="breve" xMin="21" yMin="550" xMax="363" yMax="704">
      <contour>
        <pt x="127" y="704" on="1"/>
        <pt x="133" y="678" on="0"/>
        <pt x="170" y="649" on="0"/>
        <pt x="214" y="649" on="0"/>
        <pt x="251" y="678" on="0"/>
        <pt x="257" y="704" on="1"/>
        <pt x="363" y="689" on="1"/>
        <pt x="347" y="622" on="0"/>
        <pt x="252" y="550" on="0"/>
        <pt x="132" y="550" on="0"/>
        <pt x="36" y="622" on="0"/>
        <pt x="21" y="689" on="1"/>
      </contour>
    </TTGlyph>
    <TTGlyph name="brokenbar" xMin="150" yMin="-180" xMax="270" yMax="704">
      <contour>
        <pt x="150" y="368" on="1"/>
        <pt x="150" y="704" on="1"/>
        <pt x="270" y="704" on="1"/>
        <pt x="270" y="368" on="1"/>
      </contour>
      <contour>
        <pt x="150" y="-180" on="1"/>
        <pt x="150" y="156" on="1"/>
        <pt x="270" y="156" on="1"/>
        <pt x="270" y="-180" on="1"/>
      </contour>
    </TTGlyph>
    <TTGlyph name="bullet" xMin="30" yMin="112" xMax="312" yMax="388">
      <contour>
        <pt x="30" y="172" on="0"/>
        <pt x="30" y="326" on="0"/>
        <pt x="88" y="388" on="0"/>
        <pt x="255" y="388" on="0"/>
        <pt x="312" y="326" on="0"/>
        <pt x="312" y="172" on="0"/>
        <pt x="255" y="112" on="0"/>
        <pt x="88" y="112" on="0"/>
      </contour>
    </TTGlyph>
    <TTGlyph name="c" xMin="30" yMin="-15" xMax="429" yMax="515">
      <contour>
        <pt x="417" y="150" on="1"/>
        <pt x="429" y="6" on="1"/>
        <pt x="377" y="-15" on="0"/>
        <pt x="295" y="-15" on="1"/>
        <pt x="155" y="-15" on="0"/>
        <pt x="30" y="116" on="0"/>
        <pt x="30" y="384" on="0"/>
        <pt x="155" y="515" on="0"/>
        <pt x="295" y="515" on="1"/>
        <pt x="382" y="515" on="0"/>
        <pt x="429" y="494" on="1"/>
        <pt x="405" y="358" on="1"/>
        <pt x="352" y="369" on="0"/>
        <pt x="321" y="369" on="1"/>
        <pt x="245" y="369" on="0"/>
        <pt x="245" y="316" on="1"/>
        <pt x="245" y="137" on="1"/>
        <pt x="274" y="131" on="0"/>
        <pt x="365" y="131" on="0"/>
      </contour>
    </TTGlyph>
    <TTGlyph name="caron" xMin="39" yMin="537" xMax="345" yMax="740">
      <contour>
        <pt x="216" y="537" on="1"/>
        <pt x="168" y="537" on="1"/>
        <pt x="161" y="537" on="0"/>
        <pt x="152" y="546" on="1"/>
        <pt x="39" y="691" on="1"/>
        <pt x="99" y="740" on="1"/>
        <pt x="192" y="677" on="1"/>
        <pt x="285" y="740" on="1"/>
        <pt x="345" y="691" on="1"/>
        <pt x="232" y="546" on="1"/>
        <pt x="223" y="537" on="0"/>
      </contour>
    </TTGlyph>
    <TTGlyph name="ccedilla" xMin="30" yMin="-165" xMax="429" yMax="515">
      <component glyphName="c" x="0" y="0" flags="0x1004"/>
      <component glyphName="cedilla" x="14" y="0" flags="0x1004"/>
    </TTGlyph>
    <TTGlyph name="cedilla" xMin="117" yMin="-165" xMax="333" yMax="21">
      <contour>
        <pt x="194" y="-26" on="1"/>
        <pt x="194" y="21" on="1"/>
        <pt x="255" y="21" on="1"/>
        <pt x="291" y="8" on="0"/>
        <pt x="333" y="-49" on="0"/>
        <pt x="333" y="-117" on="0"/>
        <pt x="276" y="-165" on="0"/>
        <pt x="177" y="-165" on="0"/>
        <pt x="117" y="-146" on="1"/>
        <pt x="128" y="-58" on="1"/>
        <pt x="161" y="-58" on="1"/>
        <pt x="182" y="-58" on="0"/>
        <pt x="194" y="-47" on="0"/>
      </contour>
    </TTGlyph>
    <TTGlyph name="cent" xMin="39" yMin="-64" xMax="419" yMax="600">
      <contour>
        <pt x="39" y="245" on="1"/>
        <pt x="39" y="464" on="0"/>
        <pt x="187" y="504" on="1"/>
        <pt x="191" y="600" on="1"/>
        <pt x="319" y="600" on="1"/>
        <pt x="315" y="513" on="1"/>
        <pt x="372" y="508" on="0"/>
        <pt x="419" y="496" on="1"/>
        <pt x="391" y="351" on="1"/>
        <pt x="321" y="351" on="1"/>
        <pt x="301" y="351" on="0"/>
        <pt x="277" y="346" on="0"/>
        <pt x="255" y="323" on="0"/>
        <pt x="254" y="302" on="1"/>
        <pt x="248" y="189" on="1"/>
        <pt x="274" y="186" on="0"/>
        <pt x="353" y="186" on="0"/>
        <pt x="401" y="201" on="1"/>
        <pt x="407" y="56" on="1"/>
        <pt x="357" y="36" on="0"/>
        <pt x="297" y="35" on="1"/>
        <pt x="293" y="-64" on="1"/>
        <pt x="164" y="-64" on="1"/>
        <pt x="168" y="44" on="1"/>
        <pt x="99" y="60" on="0"/>
        <pt x="39" y="154" on="0"/>
      </contour>
    </TTGlyph>
    <TTGlyph name="circumflex" xMin="39" yMin="537" xMax="345" yMax="740">
      <contour>
        <pt x="168" y="740" on="1"/>
        <pt x="216" y="740" on="1"/>
        <pt x="223" y="740" on="0"/>
        <pt x="232" y="731" on="1"/>
        <pt x="345" y="586" on="1"/>
        <pt x="285" y="537" on="1"/>
        <pt x="192" y="600" on="1"/>
        <pt x="99" y="537" on="1"/>
        <pt x="39" y="586" on="1"/>
        <pt x="152" y="731" on="1"/>
        <pt x="161" y="740" on="0"/>
      </contour>
    </TTGlyph>
    <TTGlyph name="colon" xMin="30" yMin="-6" xMax="247" yMax="506">
      <contour>
        <pt x="30" y="40" on="0"/>
        <pt x="30" y="158" on="0"/>
        <pt x="74" y="206" on="0"/>
        <pt x="203" y="206" on="0"/>
        <pt x="247" y="158" on="0"/>
        <pt x="247" y="40" on="0"/>
        <pt x="203" y="-6" on="0"/>
        <pt x="74" y="-6" on="0"/>
      </contour>
      <contour>
        <pt x="30" y="340" on="0"/>
        <pt x="30" y="458" on="0"/>
        <pt x="74" y="506" on="0"/>
        <pt x="203" y="506" on="0"/>
        <pt x="247" y="458" on="0"/>
        <pt x="247" y="340" on="0"/>
        <pt x="203" y="294" on="0"/>
        <pt x="74" y="294" on="0"/>
      </contour>
    </TTGlyph>
    <TTGlyph name="comma" xMin="30" yMin="-151" xMax="247" yMax="206">
      <contour>
        <pt x="247" y="99" on="1"/>
        <pt x="247" y="87" on="1"/>
        <pt x="244" y="43" on="0"/>
        <pt x="222" y="0" on="1"/>
        <pt x="215" y="-13" on="0"/>
        <pt x="214" y="-15" on="1"/>
        <pt x="146" y="-151" on="1"/>
        <pt x="57" y="-122" on="1"/>
        <pt x="90" y="22" on="1"/>
        <pt x="55" y="28" on="0"/>
        <pt x="30" y="63" on="0"/>
        <pt x="30" y="158" on="0"/>
        <pt x="74" y="206" on="0"/>
        <pt x="203" y="206" on="0"/>
        <pt x="247" y="158" on="0"/>
      </contour>
    </TTGlyph>
    <TTGlyph name="copyright" xMin="30" yMin="179" xMax="533" yMax="682">
      <contour>
        <pt x="261" y="364" on="1"/>
        <pt x="294" y="361" on="1"/>
        <pt x="334" y="361" on="0"/>
        <pt x="368" y="375" on="1"/>
        <pt x="376" y="288" on="1"/>
        <pt x="341" y="274" on="0"/>
        <pt x="294" y="274" on="1"/>
        <pt x="213" y="274" on="0"/>
        <pt x="153" y="348" on="0"/>
        <pt x="153" y="514" on="0"/>
        <pt x="213" y="588" on="0"/>
        <pt x="294" y="588" on="1"/>
        <pt x="346" y="588" on="0"/>
        <pt x="376" y="574" on="1"/>
        <pt x="361" y="496" on="1"/>
        <pt x="332" y="503" on="0"/>
        <pt x="279" y="503" on="0"/>
        <pt x="261" y="495" on="0"/>
        <pt x="261" y="484" on="1"/>
      </contour>
      <contour>
        <pt x="30" y="304" on="0"/>
        <pt x="30" y="558" on="0"/>
        <pt x="149" y="682" on="0"/>
        <pt x="414" y="682" on="0"/>
        <pt x="533" y="558" on="0"/>
        <pt x="533" y="304" on="0"/>
        <pt x="414" y="179" on="0"/>
        <pt x="149" y="179" on="0"/>
      </contour>
      <contour>
        <pt x="80" y="546" on="0"/>
        <pt x="80" y="316" on="0"/>
        <pt x="172" y="225" on="0"/>
        <pt x="392" y="225" on="0"/>
        <pt x="483" y="316" on="0"/>
        <pt x="483" y="546" on="0"/>
        <pt x="392" y="636" on="0"/>
        <pt x="172" y="636" on="0"/>
      </contour>
    </TTGlyph>
    <TTGlyph name="d" xMin="30" yMin="-15" xMax="545" yMax="665">
      <contour>
        <pt x="545" y="0" on="1"/>
        <pt x="445" y="0" on="1"/>
        <pt x="402" y="42" on="1"/>
        <pt x="358" y="-15" on="0"/>
        <pt x="245" y="-15" on="1"/>
        <pt x="184" y="-15" on="0"/>
        <pt x="96" y="31" on="0"/>
        <pt x="73" y="71" on="1"/>
        <pt x="30" y="146" on="0"/>
        <pt x="30" y="250" on="1"/>
        <pt x="30" y="377" on="0"/>
        <pt x="86" y="442" on="1"/>
        <pt x="107" y="467" on="0"/>
        <pt x="181" y="500" on="0"/>
        <pt x="230" y="500" on="1"/>
        <pt x="345" y="500" on="1"/>
        <pt x="345" y="650" on="1"/>
        <pt x="545" y="665" on="1"/>
      </contour>
      <contour>
        <pt x="245" y="327" on="1"/>
        <pt x="245" y="131" on="1"/>
        <pt x="276" y="131" on="1"/>
        <pt x="310" y="131" on="0"/>
        <pt x="343" y="144" on="0"/>
        <pt x="345" y="167" on="1"/>
        <pt x="345" y="369" on="1"/>
        <pt x="314" y="369" on="1"/>
        <pt x="278" y="369" on="0"/>
        <pt x="245" y="354" on="0"/>
      </contour>
    </TTGlyph>
    <TTGlyph name="dagger" xMin="30" yMin="-50" xMax="510" yMax="665">
      <contour>
        <pt x="510" y="330" on="1"/>
        <pt x="348" y="350" on="1"/>
        <pt x="380" y="-50" on="1"/>
        <pt x="160" y="-50" on="1"/>
        <pt x="191" y="350" on="1"/>
        <pt x="30" y="330" on="1"/>
        <pt x="30" y="520" on="1"/>
        <pt x="185" y="500" on="1"/>
        <pt x="160" y="665" on="1"/>
        <pt x="380" y="665" on="1"/>
        <pt x="355" y="497" on="1"/>
        <pt x="510" y="520" on="1"/>
      </contour>
    </TTGlyph>
    <TTGlyph name="daggerdbl" xMin="30" yMin="-50" xMax="510" yMax="665">
      <contour>
        <pt x="510" y="330" on="1"/>
        <pt x="351" y="350" on="1"/>
        <pt x="347" y="307" on="1"/>
        <pt x="351" y="264" on="1"/>
        <pt x="510" y="285" on="1"/>
        <pt x="510" y="95" on="1"/>
        <pt x="364" y="116" on="1"/>
        <pt x="380" y="-50" on="1"/>
        <pt x="160" y="-50" on="1"/>
        <pt x="175" y="116" on="1"/>
        <pt x="30" y="95" on="1"/>
        <pt x="30" y="285" on="1"/>
        <pt x="189" y="265" on="1"/>
        <pt x="193" y="307" on="1"/>
        <pt x="189" y="350" on="1"/>
        <pt x="30" y="330" on="1"/>
        <pt x="30" y="520" on="1"/>
        <pt x="175" y="499" on="1"/>
        <pt x="160" y="665" on="1"/>
        <pt x="380" y="665" on="1"/>
        <pt x="364" y="499" on="1"/>
        <pt x="510" y="520" on="1"/>
      </contour>
    </TTGlyph>
    <TTGlyph name="degree" xMin="30" yMin="357" xMax="377" yMax="704">
      <contour>
        <pt x="30" y="443" on="0"/>
        <pt x="30" y="619" on="0"/>
        <pt x="112" y="704" on="0"/>
        <pt x="295" y="704" on="0"/>
        <pt x="377" y="618" on="0"/>
        <pt x="377" y="443" on="0"/>
        <pt x="295" y="357" on="0"/>
        <pt x="112" y="357" on="0"/>
      </contour>
      <contour>
        <pt x="140" y="562" on="1"/>
        <pt x="140" y="461" on="1"/>
        <pt x="203" y="461" on="1"/>
        <pt x="226" y="461" on="0"/>
        <pt x="247" y="464" on="0"/>
        <pt x="265" y="482" on="0"/>
        <pt x="265" y="500" on="1"/>
        <pt x="265" y="600" on="1"/>
        <pt x="208" y="600" on="1"/>
        <pt x="183" y="600" on="0"/>
        <pt x="159" y="597" on="0"/>
        <pt x="140" y="580" on="0"/>
      </contour>
    </TTGlyph>
    <TTGlyph name="dieresis" xMin="26" yMin="552" xMax="404" yMax="708">
      <contour>
        <pt x="59" y="552" on="0"/>
        <pt x="26" y="586" on="0"/>
        <pt x="26" y="673" on="0"/>
        <pt x="59" y="708" on="0"/>
        <pt x="152" y="708" on="0"/>
        <pt x="185" y="673" on="0"/>
        <pt x="185" y="586" on="0"/>
        <pt x="153" y="552" on="0"/>
      </contour>
      <contour>
        <pt x="278" y="552" on="0"/>
        <pt x="245" y="586" on="0"/>
        <pt x="245" y="673" on="0"/>
        <pt x="278" y="708" on="0"/>
        <pt x="371" y="708" on="0"/>
        <pt x="404" y="673" on="0"/>
        <pt x="404" y="586" on="0"/>
        <pt x="372" y="552" on="0"/>
      </contour>
    </TTGlyph>
    <TTGlyph name="divide" xMin="72" yMin="48" xMax="527" yMax="575">
      <contour>
        <pt x="72" y="240" on="1"/>
        <pt x="72" y="384" on="1"/>
        <pt x="527" y="384" on="1"/>
        <pt x="527" y="240" on="1"/>
      </contour>
      <contour>
        <pt x="377" y="547" on="1"/>
        <pt x="377" y="457" on="1"/>
        <pt x="377" y="428" on="0"/>
        <pt x="338" y="428" on="1"/>
        <pt x="258" y="428" on="1"/>
        <pt x="219" y="428" on="0"/>
        <pt x="219" y="457" on="1"/>
        <pt x="219" y="547" on="1"/>
        <pt x="219" y="575" on="0"/>
        <pt x="258" y="575" on="1"/>
        <pt x="338" y="575" on="1"/>
        <pt x="377" y="575" on="0"/>
      </contour>
      <contour>
        <pt x="377" y="167" on="1"/>
        <pt x="377" y="77" on="1"/>
        <pt x="377" y="48" on="0"/>
        <pt x="338" y="48" on="1"/>
        <pt x="258" y="48" on="1"/>
        <pt x="219" y="48" on="0"/>
        <pt x="219" y="77" on="1"/>
        <pt x="219" y="167" on="1"/>
        <pt x="219" y="195" on="0"/>
        <pt x="258" y="195" on="1"/>
        <pt x="338" y="195" on="1"/>
        <pt x="377" y="195" on="0"/>
      </contour>
    </TTGlyph>
    <TTGlyph name="dollar" xMin="35" yMin="-100" xMax="516" yMax="718">
      <contour>
        <pt x="225" y="718" on="1"/>
        <pt x="352" y="718" on="1"/>
        <pt x="349" y="638" on="1"/>
        <pt x="429" y="633" on="0"/>
        <pt x="489" y="622" on="1"/>
        <pt x="460" y="467" on="1"/>
        <pt x="310" y="467" on="1"/>
        <pt x="275" y="467" on="0"/>
        <pt x="252" y="445" on="0"/>
        <pt x="251" y="414" on="1"/>
        <pt x="314" y="407" on="1"/>
        <pt x="429" y="394" on="0"/>
        <pt x="516" y="302" on="0"/>
        <pt x="516" y="156" on="0"/>
        <pt x="486" y="69" on="0"/>
        <pt x="458" y="46" on="1"/>
        <pt x="407" y="7" on="0"/>
        <pt x="324" y="1" on="1"/>
        <pt x="321" y="-100" on="1"/>
        <pt x="192" y="-100" on="1"/>
        <pt x="196" y="1" on="1"/>
        <pt x="101" y="8" on="0"/>
        <pt x="35" y="25" on="1"/>
        <pt x="64" y="184" on="1"/>
        <pt x="147" y="162" on="0"/>
        <pt x="238" y="162" on="1"/>
        <pt x="276" y="162" on="0"/>
        <pt x="309" y="166" on="1"/>
        <pt x="309" y="208" on="1"/>
        <pt x="247" y="215" on="1"/>
        <pt x="127" y="227" on="0"/>
        <pt x="87" y="285" on="1"/>
        <pt x="52" y="336" on="0"/>
        <pt x="52" y="418" on="1"/>
        <pt x="52" y="526" on="0"/>
        <pt x="141" y="624" on="0"/>
        <pt x="222" y="635" on="1"/>
      </contour>
    </TTGlyph>
    <TTGlyph name="dotaccent" xMin="37" yMin="537" xMax="228" yMax="729">
      <contour>
        <pt x="76" y="537" on="0"/>
        <pt x="37" y="577" on="0"/>
        <pt x="37" y="686" on="0"/>
        <pt x="76" y="729" on="0"/>
        <pt x="189" y="729" on="0"/>
        <pt x="228" y="686" on="0"/>
        <pt x="228" y="577" on="0"/>
        <pt x="190" y="537" on="0"/>
      </contour>
    </TTGlyph>
    <TTGlyph name="dotlessi" xMin="50" yMin="0" xMax="250" yMax="500">
      <contour>
        <pt x="50" y="0" on="1"/>
        <pt x="50" y="475" on="1"/>
        <pt x="250" y="500" on="1"/>
        <pt x="250" y="0" on="1"/>
      </contour>
    </TTGlyph>
    <TTGlyph name="e" xMin="30" yMin="-15" xMax="540" yMax="515">
      <contour>
        <pt x="245" y="170" on="1"/>
        <pt x="245" y="135" on="1"/>
        <pt x="275" y="132" on="0"/>
        <pt x="305" y="132" on="1"/>
        <pt x="398" y="132" on="0"/>
        <pt x="493" y="162" on="1"/>
        <pt x="517" y="15" on="1"/>
        <pt x="405" y="-15" on="0"/>
        <pt x="295" y="-15" on="1"/>
        <pt x="155" y="-15" on="0"/>
        <pt x="30" y="116" on="0"/>
        <pt x="30" y="384" on="0"/>
        <pt x="155" y="515" on="0"/>
        <pt x="434" y="515" on="0"/>
        <pt x="540" y="439" on="0"/>
        <pt x="540" y="335" on="1"/>
        <pt x="540" y="247" on="0"/>
        <pt x="413" y="170" on="0"/>
      </contour>
      <contour>
        <pt x="245" y="327" on="1"/>
        <pt x="245" y="286" on="1"/>
        <pt x="286" y="286" on="1"/>
        <pt x="322" y="286" on="0"/>
        <pt x="355" y="301" on="0"/>
        <pt x="355" y="328" on="1"/>
        <pt x="355" y="369" on="1"/>
        <pt x="314" y="369" on="1"/>
        <pt x="278" y="369" on="0"/>
        <pt x="245" y="354" on="0"/>
      </contour>
    </TTGlyph>
    <TTGlyph name="eacute" xMin="30" yMin="-15" xMax="540" yMax="739">
      <component glyphName="e" x="0" y="0" flags="0x1004"/>
      <component glyphName="acute" x="105" y="0" flags="0x1004"/>
    </TTGlyph>
    <TTGlyph name="ecircumflex" xMin="30" yMin="-15" xMax="540" yMax="740">
      <contour>
        <pt x="245" y="170" on="1"/>
        <pt x="245" y="135" on="1"/>
        <pt x="275" y="132" on="0"/>
        <pt x="305" y="132" on="1"/>
        <pt x="398" y="132" on="0"/>
        <pt x="493" y="162" on="1"/>
        <pt x="517" y="15" on="1"/>
        <pt x="405" y="-15" on="0"/>
        <pt x="295" y="-15" on="1"/>
        <pt x="155" y="-15" on="0"/>
        <pt x="30" y="116" on="0"/>
        <pt x="30" y="384" on="0"/>
        <pt x="155" y="515" on="0"/>
        <pt x="434" y="515" on="0"/>
        <pt x="540" y="439" on="0"/>
        <pt x="540" y="335" on="1"/>
        <pt x="540" y="247" on="0"/>
        <pt x="413" y="170" on="0"/>
      </contour>
      <contour>
        <pt x="245" y="327" on="1"/>
        <pt x="245" y="286" on="1"/>
        <pt x="286" y="286" on="1"/>
        <pt x="322" y="286" on="0"/>
        <pt x="355" y="301" on="0"/>
        <pt x="355" y="328" on="1"/>
        <pt x="355" y="369" on="1"/>
        <pt x="314" y="369" on="1"/>
        <pt x="278" y="369" on="0"/>
        <pt x="245" y="354" on="0"/>
      </contour>
      <contour>
        <pt x="260" y="740" on="1"/>
        <pt x="308" y="740" on="1"/>
        <pt x="315" y="740" on="0"/>
        <pt x="324" y="731" on="1"/>
        <pt x="437" y="586" on="1"/>
        <pt x="377" y="537" on="1"/>
        <pt x="284" y="600" on="1"/>
        <pt x="191" y="537" on="1"/>
        <pt x="131" y="586" on="1"/>
        <pt x="244" y="731" on="1"/>
        <pt x="253" y="740" on="0"/>
      </contour>
    </TTGlyph>
    <TTGlyph name="edieresis" xMin="30" yMin="-15" xMax="540" yMax="708">
      <component glyphName="e" x="0" y="0" flags="0x1004"/>
      <component glyphName="dieresis" x="70" y="0" flags="0x1004"/>
    </TTGlyph>
    <TTGlyph name="egrave" xMin="30" yMin="-15" xMax="540" yMax="739">
      <contour>
        <pt x="245" y="170" on="1"/>
        <pt x="245" y="135" on="1"/>
        <pt x="275" y="132" on="0"/>
        <pt x="305" y="132" on="1"/>
        <pt x="398" y="132" on="0"/>
        <pt x="493" y="162" on="1"/>
        <pt x="517" y="15" on="1"/>
        <pt x="405" y="-15" on="0"/>
        <pt x="295" y="-15" on="1"/>
        <pt x="155" y="-15" on="0"/>
        <pt x="30" y="116" on="0"/>
        <pt x="30" y="384" on="0"/>
        <pt x="155" y="515" on="0"/>
        <pt x="434" y="515" on="0"/>
        <pt x="540" y="439" on="0"/>
        <pt x="540" y="335" on="1"/>
        <pt x="540" y="247" on="0"/>
        <pt x="413" y="170" on="0"/>
      </contour>
      <contour>
        <pt x="245" y="327" on="1"/>
        <pt x="245" y="286" on="1"/>
        <pt x="286" y="286" on="1"/>
        <pt x="322" y="286" on="0"/>
        <pt x="355" y="301" on="0"/>
        <pt x="355" y="328" on="1"/>
        <pt x="355" y="369" on="1"/>
        <pt x="314" y="369" on="1"/>
        <pt x="278" y="369" on="0"/>
        <pt x="245" y="354" on="0"/>
      </contour>
      <contour>
        <pt x="353" y="539" on="1"/>
        <pt x="179" y="574" on="1"/>
        <pt x="163" y="577" on="0"/>
        <pt x="153" y="586" on="1"/>
        <pt x="108" y="625" on="1"/>
        <pt x="104" y="631" on="0"/>
        <pt x="104" y="644" on="0"/>
        <pt x="113" y="654" on="1"/>
        <pt x="176" y="728" on="1"/>
        <pt x="185" y="739" on="0"/>
        <pt x="199" y="739" on="0"/>
        <pt x="205" y="735" on="1"/>
        <pt x="394" y="596" on="1"/>
      </contour>
    </TTGlyph>
    <TTGlyph name="eight" xMin="35" yMin="-15" xMax="565" yMax="640">
      <contour>
        <pt x="232" y="640" on="0"/>
        <pt x="368" y="640" on="0"/>
        <pt x="472" y="609" on="0"/>
        <pt x="544" y="525" on="0"/>
        <pt x="544" y="459" on="1"/>
        <pt x="544" y="364" on="0"/>
        <pt x="477" y="315" on="1"/>
        <pt x="477" y="308" on="1"/>
        <pt x="515" y="290" on="0"/>
        <pt x="565" y="214" on="0"/>
        <pt x="565" y="171" on="1"/>
        <pt x="565" y="-15" on="0"/>
        <pt x="35" y="-15" on="0"/>
        <pt x="35" y="171" on="1"/>
        <pt x="35" y="214" on="0"/>
        <pt x="85" y="290" on="0"/>
        <pt x="123" y="308" on="1"/>
        <pt x="123" y="315" on="1"/>
        <pt x="56" y="362" on="0"/>
        <pt x="56" y="459" on="1"/>
        <pt x="56" y="525" on="0"/>
        <pt x="128" y="609" on="0"/>
      </contour>
      <contour>
        <pt x="350" y="201" on="1"/>
        <pt x="281" y="234" on="1"/>
        <pt x="267" y="240" on="0"/>
        <pt x="261" y="240" on="1"/>
        <pt x="250" y="240" on="0"/>
        <pt x="250" y="223" on="1"/>
        <pt x="250" y="136" on="1"/>
        <pt x="291" y="136" on="1"/>
        <pt x="324" y="136" on="0"/>
        <pt x="350" y="151" on="0"/>
        <pt x="350" y="178" on="1"/>
      </contour>
      <contour>
        <pt x="250" y="423" on="1"/>
        <pt x="315" y="389" on="1"/>
        <pt x="323" y="385" on="0"/>
        <pt x="330" y="385" on="1"/>
        <pt x="350" y="385" on="0"/>
        <pt x="350" y="403" on="1"/>
        <pt x="350" y="484" on="1"/>
        <pt x="309" y="484" on="1"/>
        <pt x="276" y="484" on="0"/>
        <pt x="250" y="469" on="0"/>
        <pt x="250" y="442" on="1"/>
      </contour>
    </TTGlyph>
    <TTGlyph name="ellipsis" xMin="30" yMin="-6" xMax="847" yMax="206">
      <contour>
        <pt x="30" y="40" on="0"/>
        <pt x="30" y="158" on="0"/>
        <pt x="74" y="206" on="0"/>
        <pt x="203" y="206" on="0"/>
        <pt x="247" y="158" on="0"/>
        <pt x="247" y="40" on="0"/>
        <pt x="203" y="-6" on="0"/>
        <pt x="74" y="-6" on="0"/>
      </contour>
      <contour>
        <pt x="330" y="40" on="0"/>
        <pt x="330" y="158" on="0"/>
        <pt x="374" y="206" on="0"/>
        <pt x="503" y="206" on="0"/>
        <pt x="547" y="158" on="0"/>
        <pt x="547" y="40" on="0"/>
        <pt x="503" y="-6" on="0"/>
        <pt x="374" y="-6" on="0"/>
      </contour>
      <contour>
        <pt x="630" y="40" on="0"/>
        <pt x="630" y="158" on="0"/>
        <pt x="674" y="206" on="0"/>
        <pt x="803" y="206" on="0"/>
        <pt x="847" y="158" on="0"/>
        <pt x="847" y="40" on="0"/>
        <pt x="803" y="-6" on="0"/>
        <pt x="674" y="-6" on="0"/>
      </contour>
    </TTGlyph>
    <TTGlyph name="emdash" xMin="25" yMin="200" xMax="829" yMax="350">
      <contour>
        <pt x="25" y="200" on="1"/>
        <pt x="25" y="308" on="1"/>
        <pt x="25" y="335" on="0"/>
        <pt x="58" y="350" on="0"/>
        <pt x="94" y="350" on="1"/>
        <pt x="829" y="350" on="1"/>
        <pt x="829" y="242" on="1"/>
        <pt x="829" y="215" on="0"/>
        <pt x="796" y="200" on="0"/>
        <pt x="760" y="200" on="1"/>
      </contour>
    </TTGlyph>
    <TTGlyph name="endash" xMin="25" yMin="200" xMax="570" yMax="350">
      <contour>
        <pt x="25" y="200" on="1"/>
        <pt x="25" y="308" on="1"/>
        <pt x="25" y="335" on="0"/>
        <pt x="58" y="350" on="0"/>
        <pt x="94" y="350" on="1"/>
        <pt x="570" y="350" on="1"/>
        <pt x="570" y="242" on="1"/>
        <pt x="570" y="215" on="0"/>
        <pt x="537" y="200" on="0"/>
        <pt x="501" y="200" on="1"/>
      </contour>
    </TTGlyph>
    <TTGlyph name="equal" xMin="72" yMin="121" xMax="527" yMax="503">
      <contour>
        <pt x="72" y="121" on="1"/>
        <pt x="72" y="265" on="1"/>
        <pt x="527" y="265" on="1"/>
        <pt x="527" y="121" on="1"/>
      </contour>
      <contour>
        <pt x="72" y="359" on="1"/>
        <pt x="72" y="503" on="1"/>
        <pt x="527" y="503" on="1"/>
        <pt x="527" y="359" on="1"/>
      </contour>
    </TTGlyph>
    <TTGlyph name="eth" xMin="30" yMin="-15" xMax="560" yMax="665">
      <contour>
        <pt x="334" y="665" on="1"/>
        <pt x="388" y="599" on="1"/>
        <pt x="495" y="634" on="1"/>
        <pt x="510" y="581" on="1"/>
        <pt x="510" y="566" on="0"/>
        <pt x="495" y="553" on="0"/>
        <pt x="473" y="546" on="1"/>
        <pt x="436" y="534" on="1"/>
        <pt x="560" y="352" on="0"/>
        <pt x="560" y="215" on="1"/>
        <pt x="560" y="107" on="0"/>
        <pt x="432" y="-15" on="0"/>
        <pt x="164" y="-15" on="0"/>
        <pt x="30" y="94" on="0"/>
        <pt x="30" y="248" on="0"/>
        <pt x="149" y="364" on="0"/>
        <pt x="245" y="364" on="1"/>
        <pt x="322" y="364" on="1"/>
        <pt x="260" y="476" on="1"/>
        <pt x="158" y="443" on="1"/>
        <pt x="143" y="496" on="1"/>
        <pt x="143" y="511" on="0"/>
        <pt x="158" y="524" on="0"/>
        <pt x="180" y="531" on="1"/>
        <pt x="222" y="545" on="1"/>
        <pt x="163" y="652" on="1"/>
      </contour>
      <contour>
        <pt x="245" y="184" on="1"/>
        <pt x="245" y="131" on="1"/>
        <pt x="276" y="131" on="1"/>
        <pt x="312" y="131" on="0"/>
        <pt x="345" y="146" on="0"/>
        <pt x="345" y="173" on="1"/>
        <pt x="345" y="226" on="1"/>
        <pt x="314" y="226" on="1"/>
        <pt x="278" y="226" on="0"/>
        <pt x="245" y="211" on="0"/>
      </contour>
    </TTGlyph>
    <TTGlyph name="exclam" xMin="50" yMin="-7" xMax="280" yMax="625">
      <contour>
        <pt x="250" y="170" on="1"/>
        <pt x="80" y="170" on="1"/>
        <pt x="50" y="598" on="1"/>
        <pt x="50" y="625" on="0"/>
        <pt x="87" y="625" on="1"/>
        <pt x="243" y="625" on="1"/>
        <pt x="280" y="625" on="0"/>
        <pt x="280" y="598" on="1"/>
      </contour>
      <contour>
        <pt x="53" y="27" on="0"/>
        <pt x="53" y="113" on="0"/>
        <pt x="99" y="149" on="0"/>
        <pt x="231" y="149" on="0"/>
        <pt x="276" y="113" on="0"/>
        <pt x="276" y="27" on="0"/>
        <pt x="231" y="-7" on="0"/>
        <pt x="98" y="-7" on="0"/>
      </contour>
    </TTGlyph>
    <TTGlyph name="exclamdown" xMin="50" yMin="0" xMax="280" yMax="632">
      <contour>
        <pt x="80" y="455" on="1"/>
        <pt x="250" y="455" on="1"/>
        <pt x="280" y="27" on="1"/>
        <pt x="280" y="0" on="0"/>
        <pt x="243" y="0" on="1"/>
        <pt x="87" y="0" on="1"/>
        <pt x="50" y="0" on="0"/>
        <pt x="50" y="27" on="1"/>
      </contour>
      <contour>
        <pt x="53" y="512" on="0"/>
        <pt x="53" y="598" on="0"/>
        <pt x="98" y="632" on="0"/>
        <pt x="231" y="632" on="0"/>
        <pt x="276" y="598" on="0"/>
        <pt x="276" y="512" on="0"/>
        <pt x="231" y="476" on="0"/>
        <pt x="99" y="476" on="0"/>
      </contour>
    </TTGlyph>
    <TTGlyph name="f" xMin="30" yMin="0" xMax="373" yMax="675">
      <contour>
        <pt x="280" y="542" on="1"/>
        <pt x="280" y="500" on="1"/>
        <pt x="340" y="500" on="1"/>
        <pt x="340" y="370" on="1"/>
        <pt x="280" y="370" on="1"/>
        <pt x="280" y="0" on="1"/>
        <pt x="80" y="0" on="1"/>
        <pt x="80" y="370" on="1"/>
        <pt x="30" y="370" on="1"/>
        <pt x="30" y="500" on="1"/>
        <pt x="80" y="500" on="1"/>
        <pt x="87" y="560" on="1"/>
        <pt x="101" y="675" on="0"/>
        <pt x="263" y="675" on="1"/>
        <pt x="305" y="675" on="0"/>
        <pt x="373" y="665" on="1"/>
        <pt x="362" y="534" on="1"/>
      </contour>
    </TTGlyph>
    <TTGlyph name="fi" xMin="20" yMin="0" xMax="570" yMax="675">
      <contour>
        <pt x="370" y="0" on="1"/>
        <pt x="370" y="370" on="1"/>
        <pt x="270" y="370" on="1"/>
        <pt x="270" y="0" on="1"/>
        <pt x="70" y="0" on="1"/>
        <pt x="70" y="370" on="1"/>
        <pt x="20" y="370" on="1"/>
        <pt x="20" y="500" on="1"/>
        <pt x="70" y="500" on="1"/>
        <pt x="77" y="560" on="1"/>
        <pt x="91" y="675" on="0"/>
        <pt x="253" y="675" on="1"/>
        <pt x="329" y="675" on="0"/>
        <pt x="414" y="650" on="1"/>
        <pt x="383" y="533" on="1"/>
        <pt x="270" y="542" on="1"/>
        <pt x="270" y="500" on="1"/>
        <pt x="404" y="500" on="1"/>
        <pt x="570" y="525" on="1"/>
        <pt x="570" y="0" on="1"/>
      </contour>
    </TTGlyph>
    <TTGlyph name="five" xMin="42" yMin="-15" xMax="569" yMax="625">
      <contour>
        <pt x="42" y="11" on="1"/>
        <pt x="70" y="176" on="1"/>
        <pt x="165" y="153" on="0"/>
        <pt x="308" y="153" on="0"/>
        <pt x="354" y="159" on="1"/>
        <pt x="354" y="209" on="1"/>
        <pt x="279" y="217" on="1"/>
        <pt x="155" y="230" on="0"/>
        <pt x="66" y="289" on="0"/>
        <pt x="66" y="365" on="1"/>
        <pt x="66" y="376" on="0"/>
        <pt x="76" y="625" on="1"/>
        <pt x="531" y="625" on="1"/>
        <pt x="516" y="453" on="1"/>
        <pt x="279" y="467" on="1"/>
        <pt x="279" y="416" on="1"/>
        <pt x="338" y="409" on="1"/>
        <pt x="469" y="393" on="0"/>
        <pt x="569" y="296" on="0"/>
        <pt x="569" y="209" on="1"/>
        <pt x="569" y="146" on="0"/>
        <pt x="535" y="59" on="0"/>
        <pt x="488" y="14" on="0"/>
        <pt x="402" y="-10" on="0"/>
        <pt x="337" y="-15" on="0"/>
        <pt x="283" y="-15" on="1"/>
        <pt x="153" y="-15" on="0"/>
      </contour>
    </TTGlyph>
    <TTGlyph name="fl" xMin="20" yMin="-11" xMax="632" yMax="675">
      <contour>
        <pt x="270" y="542" on="1"/>
        <pt x="270" y="500" on="1"/>
        <pt x="330" y="500" on="1"/>
        <pt x="330" y="370" on="1"/>
        <pt x="270" y="370" on="1"/>
        <pt x="270" y="0" on="1"/>
        <pt x="70" y="0" on="1"/>
        <pt x="70" y="370" on="1"/>
        <pt x="20" y="370" on="1"/>
        <pt x="20" y="500" on="1"/>
        <pt x="70" y="500" on="1"/>
        <pt x="77" y="560" on="1"/>
        <pt x="91" y="675" on="0"/>
        <pt x="253" y="675" on="1"/>
        <pt x="329" y="675" on="0"/>
        <pt x="414" y="650" on="1"/>
        <pt x="583" y="665" on="1"/>
        <pt x="583" y="143" on="1"/>
        <pt x="614" y="137" on="0"/>
        <pt x="632" y="136" on="1"/>
        <pt x="623" y="-11" on="1"/>
        <pt x="495" y="-11" on="0"/>
        <pt x="454" y="4" on="1"/>
        <pt x="403" y="23" on="0"/>
        <pt x="391" y="52" on="1"/>
        <pt x="383" y="70" on="0"/>
        <pt x="383" y="94" on="1"/>
        <pt x="383" y="533" on="1"/>
      </contour>
    </TTGlyph>
    <TTGlyph name="florin" xMin="11" yMin="-165" xMax="479" yMax="641">
      <contour>
        <pt x="329" y="428" on="1"/>
        <pt x="326" y="369" on="1"/>
        <pt x="439" y="369" on="1"/>
        <pt x="429" y="262" on="1"/>
        <pt x="322" y="262" on="1"/>
        <pt x="311" y="0" on="1"/>
        <pt x="303" y="-165" on="0"/>
        <pt x="156" y="-165" on="1"/>
        <pt x="11" y="-165" on="1"/>
        <pt x="11" y="-35" on="1"/>
        <pt x="63" y="-25" on="1"/>
        <pt x="86" y="-21" on="0"/>
        <pt x="110" y="-4" on="0"/>
        <pt x="111" y="15" on="1"/>
        <pt x="121" y="262" on="1"/>
        <pt x="45" y="262" on="1"/>
        <pt x="45" y="369" on="1"/>
        <pt x="126" y="369" on="1"/>
        <pt x="129" y="443" on="1"/>
        <pt x="133" y="543" on="0"/>
        <pt x="219" y="641" on="0"/>
        <pt x="397" y="641" on="0"/>
        <pt x="479" y="622" on="1"/>
        <pt x="449" y="477" on="1"/>
        <pt x="402" y="477" on="1"/>
        <pt x="367" y="477" on="0"/>
        <pt x="330" y="459" on="0"/>
      </contour>
    </TTGlyph>
    <TTGlyph name="four" xMin="16" yMin="0" xMax="589" yMax="625">
      <contour>
        <pt x="324" y="0" on="1"/>
        <pt x="324" y="100" on="1"/>
        <pt x="16" y="100" on="1"/>
        <pt x="16" y="225" on="1"/>
        <pt x="170" y="625" on="1"/>
        <pt x="524" y="625" on="1"/>
        <pt x="524" y="272" on="1"/>
        <pt x="589" y="272" on="1"/>
        <pt x="589" y="100" on="1"/>
        <pt x="524" y="100" on="1"/>
        <pt x="524" y="0" on="1"/>
      </contour>
      <contour>
        <pt x="314" y="475" on="1"/>
        <pt x="225" y="272" on="1"/>
        <pt x="324" y="272" on="1"/>
        <pt x="324" y="475" on="1"/>
      </contour>
    </TTGlyph>
    <TTGlyph name="fraction" xMin="70" yMin="-40" xMax="433" yMax="665">
      <contour>
        <pt x="433" y="665" on="1"/>
        <pt x="164" y="-15" on="1"/>
        <pt x="159" y="-25" on="0"/>
        <pt x="155" y="-29" on="1"/>
        <pt x="144" y="-40" on="0"/>
        <pt x="121" y="-40" on="1"/>
        <pt x="70" y="-40" on="1"/>
        <pt x="339" y="640" on="1"/>
        <pt x="344" y="650" on="0"/>
        <pt x="348" y="654" on="1"/>
        <pt x="359" y="665" on="0"/>
        <pt x="382" y="665" on="1"/>
      </contour>
    </TTGlyph>
    <TTGlyph name="g" xMin="15" yMin="-165" xMax="543" yMax="576">
      <contour>
        <pt x="23" y="-135" on="1"/>
        <pt x="49" y="14" on="1"/>
        <pt x="134" y="-15" on="0"/>
        <pt x="248" y="-15" on="1"/>
        <pt x="282" y="-15" on="0"/>
        <pt x="296" y="-13" on="1"/>
        <pt x="296" y="22" on="1"/>
        <pt x="207" y="22" on="0"/>
        <pt x="152" y="37" on="0"/>
        <pt x="135" y="52" on="0"/>
        <pt x="132" y="62" on="0"/>
        <pt x="132" y="71" on="1"/>
        <pt x="162" y="157" on="1"/>
        <pt x="90" y="170" on="0"/>
        <pt x="15" y="252" on="0"/>
        <pt x="15" y="427" on="0"/>
        <pt x="133" y="515" on="0"/>
        <pt x="266" y="515" on="1"/>
        <pt x="314" y="515" on="0"/>
        <pt x="351" y="509" on="1"/>
        <pt x="438" y="576" on="1"/>
        <pt x="543" y="475" on="1"/>
        <pt x="486" y="408" on="1"/>
        <pt x="499" y="373" on="0"/>
        <pt x="499" y="318" on="1"/>
        <pt x="499" y="239" on="0"/>
        <pt x="420" y="162" on="0"/>
        <pt x="319" y="154" on="1"/>
        <pt x="315" y="130" on="1"/>
        <pt x="423" y="124" on="0"/>
        <pt x="512" y="71" on="0"/>
        <pt x="512" y="0" on="1"/>
        <pt x="512" y="-121" on="0"/>
        <pt x="395" y="-150" on="1"/>
        <pt x="337" y="-165" on="0"/>
        <pt x="140" y="-165" on="0"/>
      </contour>
      <contour>
        <pt x="203" y="340" on="1"/>
        <pt x="203" y="275" on="1"/>
        <pt x="234" y="275" on="1"/>
        <pt x="270" y="275" on="0"/>
        <pt x="303" y="290" on="0"/>
        <pt x="303" y="317" on="1"/>
        <pt x="303" y="382" on="1"/>
        <pt x="272" y="382" on="1"/>
        <pt x="236" y="382" on="0"/>
        <pt x="203" y="367" on="0"/>
      </contour>
    </TTGlyph>
    <TTGlyph name="germandbls" xMin="20" yMin="-15" xMax="642" yMax="675">
      <contour>
        <pt x="20" y="370" on="1"/>
        <pt x="20" y="500" on="1"/>
        <pt x="70" y="500" on="1"/>
        <pt x="77" y="560" on="1"/>
        <pt x="85" y="635" on="0"/>
        <pt x="158" y="657" on="1"/>
        <pt x="220" y="675" on="0"/>
        <pt x="330" y="675" on="1"/>
        <pt x="552" y="675" on="0"/>
        <pt x="552" y="515" on="1"/>
        <pt x="552" y="483" on="0"/>
        <pt x="512" y="372" on="0"/>
        <pt x="470" y="314" on="1"/>
        <pt x="563" y="314" on="0"/>
        <pt x="642" y="229" on="0"/>
        <pt x="642" y="151" on="1"/>
        <pt x="642" y="-15" on="0"/>
        <pt x="444" y="-15" on="1"/>
        <pt x="340" y="-15" on="0"/>
        <pt x="306" y="-1" on="1"/>
        <pt x="326" y="141" on="1"/>
        <pt x="370" y="130" on="0"/>
        <pt x="449" y="130" on="0"/>
        <pt x="450" y="134" on="1"/>
        <pt x="450" y="166" on="1"/>
        <pt x="380" y="166" on="0"/>
        <pt x="312" y="214" on="0"/>
        <pt x="312" y="270" on="1"/>
        <pt x="312" y="309" on="0"/>
        <pt x="355" y="453" on="0"/>
        <pt x="355" y="474" on="1"/>
        <pt x="355" y="519" on="0"/>
        <pt x="305" y="519" on="1"/>
        <pt x="289" y="519" on="0"/>
        <pt x="270" y="515" on="1"/>
        <pt x="270" y="0" on="1"/>
        <pt x="70" y="0" on="1"/>
        <pt x="70" y="370" on="1"/>
      </contour>
    </TTGlyph>
    <TTGlyph name="grave" xMin="39" yMin="539" xMax="329" yMax="739">
      <contour>
        <pt x="288" y="539" on="1"/>
        <pt x="114" y="574" on="1"/>
        <pt x="98" y="577" on="0"/>
        <pt x="88" y="586" on="1"/>
        <pt x="43" y="625" on="1"/>
        <pt x="39" y="631" on="0"/>
        <pt x="39" y="644" on="0"/>
        <pt x="48" y="654" on="1"/>
        <pt x="111" y="728" on="1"/>
        <pt x="120" y="739" on="0"/>
        <pt x="134" y="739" on="0"/>
        <pt x="140" y="735" on="1"/>
        <pt x="329" y="596" on="1"/>
      </contour>
    </TTGlyph>
    <TTGlyph name="greater" xMin="107" yMin="37" xMax="499" yMax="587">
      <contour>
        <pt x="174" y="37" on="1"/>
        <pt x="107" y="171" on="1"/>
        <pt x="354" y="308" on="1"/>
        <pt x="354" y="315" on="1"/>
        <pt x="107" y="453" on="1"/>
        <pt x="174" y="587" on="1"/>
        <pt x="499" y="403" on="1"/>
        <pt x="499" y="221" on="1"/>
      </contour>
    </TTGlyph>
    <TTGlyph name="greaterequal" xMin="101" yMin="-15" xMax="493" yMax="587">
      <contour>
        <pt x="101" y="453" on="1"/>
        <pt x="168" y="587" on="1"/>
        <pt x="493" y="442" on="1"/>
        <pt x="493" y="282" on="1"/>
        <pt x="168" y="137" on="1"/>
        <pt x="101" y="271" on="1"/>
        <pt x="326" y="359" on="1"/>
        <pt x="326" y="364" on="1"/>
      </contour>
      <contour>
        <pt x="493" y="105" on="1"/>
        <pt x="493" y="-15" on="1"/>
        <pt x="107" y="-15" on="1"/>
        <pt x="107" y="105" on="1"/>
      </contour>
    </TTGlyph>
    <TTGlyph name="guillemotleft" xMin="25" yMin="25" xMax="550" yMax="475">
      <contour>
        <pt x="25" y="300" on="1"/>
        <pt x="219" y="475" on="1"/>
        <pt x="300" y="424" on="1"/>
        <pt x="200" y="250" on="1"/>
        <pt x="300" y="76" on="1"/>
        <pt x="219" y="25" on="1"/>
        <pt x="25" y="200" on="1"/>
      </contour>
      <contour>
        <pt x="275" y="300" on="1"/>
        <pt x="469" y="475" on="1"/>
        <pt x="550" y="424" on="1"/>
        <pt x="450" y="250" on="1"/>
        <pt x="550" y="76" on="1"/>
        <pt x="469" y="25" on="1"/>
        <pt x="275" y="200" on="1"/>
      </contour>
    </TTGlyph>
    <TTGlyph name="guillemotright" xMin="25" yMin="25" xMax="550" yMax="475">
      <contour>
        <pt x="356" y="475" on="1"/>
        <pt x="550" y="300" on="1"/>
        <pt x="550" y="200" on="1"/>
        <pt x="356" y="25" on="1"/>
        <pt x="275" y="76" on="1"/>
        <pt x="375" y="250" on="1"/>
        <pt x="275" y="424" on="1"/>
      </contour>
      <contour>
        <pt x="106" y="475" on="1"/>
        <pt x="300" y="300" on="1"/>
        <pt x="300" y="200" on="1"/>
        <pt x="106" y="25" on="1"/>
        <pt x="25" y="76" on="1"/>
        <pt x="125" y="250" on="1"/>
        <pt x="25" y="424" on="1"/>
      </contour>
    </TTGlyph>
    <TTGlyph name="guilsinglleft" xMin="25" yMin="25" xMax="300" yMax="475">
      <contour>
        <pt x="25" y="300" on="1"/>
        <pt x="219" y="475" on="1"/>
        <pt x="300" y="424" on="1"/>
        <pt x="200" y="250" on="1"/>
        <pt x="300" y="76" on="1"/>
        <pt x="219" y="25" on="1"/>
        <pt x="25" y="200" on="1"/>
      </contour>
    </TTGlyph>
    <TTGlyph name="guilsinglright" xMin="25" yMin="25" xMax="300" yMax="475">
      <contour>
        <pt x="106" y="475" on="1"/>
        <pt x="300" y="300" on="1"/>
        <pt x="300" y="200" on="1"/>
        <pt x="106" y="25" on="1"/>
        <pt x="25" y="76" on="1"/>
        <pt x="125" y="250" on="1"/>
        <pt x="25" y="424" on="1"/>
      </contour>
    </TTGlyph>
    <TTGlyph name="h" xMin="50" yMin="0" xMax="550" yMax="665">
      <contour>
        <pt x="250" y="308" on="1"/>
        <pt x="250" y="0" on="1"/>
        <pt x="50" y="0" on="1"/>
        <pt x="50" y="650" on="1"/>
        <pt x="250" y="665" on="1"/>
        <pt x="250" y="482" on="1"/>
        <pt x="314" y="515" on="0"/>
        <pt x="470" y="515" on="0"/>
        <pt x="550" y="454" on="0"/>
        <pt x="550" y="400" on="1"/>
        <pt x="550" y="0" on="1"/>
        <pt x="350" y="0" on="1"/>
        <pt x="350" y="350" on="1"/>
        <pt x="319" y="350" on="1"/>
        <pt x="283" y="350" on="0"/>
        <pt x="250" y="335" on="0"/>
      </contour>
    </TTGlyph>
    <TTGlyph name="hungarumlaut" xMin="48" yMin="530" xMax="555" yMax="741">
      <contour>
        <pt x="88" y="530" on="1"/>
        <pt x="48" y="589" on="1"/>
        <pt x="188" y="729" on="1"/>
        <pt x="197" y="740" on="0"/>
        <pt x="210" y="741" on="0"/>
        <pt x="222" y="729" on="1"/>
        <pt x="285" y="655" on="1"/>
        <pt x="292" y="647" on="0"/>
        <pt x="292" y="629" on="0"/>
        <pt x="283" y="620" on="1"/>
        <pt x="242" y="582" on="1"/>
        <pt x="233" y="573" on="0"/>
        <pt x="209" y="566" on="1"/>
      </contour>
      <contour>
        <pt x="351" y="530" on="1"/>
        <pt x="311" y="589" on="1"/>
        <pt x="451" y="729" on="1"/>
        <pt x="460" y="740" on="0"/>
        <pt x="473" y="741" on="0"/>
        <pt x="485" y="729" on="1"/>
        <pt x="548" y="655" on="1"/>
        <pt x="555" y="647" on="0"/>
        <pt x="555" y="629" on="0"/>
        <pt x="546" y="620" on="1"/>
        <pt x="505" y="582" on="1"/>
        <pt x="496" y="573" on="0"/>
        <pt x="472" y="566" on="1"/>
      </contour>
    </TTGlyph>
    <TTGlyph name="hyphen" xMin="25" yMin="200" xMax="325" yMax="350">
      <contour>
        <pt x="25" y="200" on="1"/>
        <pt x="25" y="308" on="1"/>
        <pt x="25" y="335" on="0"/>
        <pt x="58" y="350" on="0"/>
        <pt x="94" y="350" on="1"/>
        <pt x="325" y="350" on="1"/>
        <pt x="325" y="242" on="1"/>
        <pt x="325" y="215" on="0"/>
        <pt x="292" y="200" on="0"/>
        <pt x="256" y="200" on="1"/>
      </contour>
    </TTGlyph>
    <TTGlyph name="i" xMin="39" yMin="0" xMax="262" yMax="675">
      <contour>
        <pt x="50" y="0" on="1"/>
        <pt x="50" y="475" on="1"/>
        <pt x="250" y="500" on="1"/>
        <pt x="250" y="0" on="1"/>
      </contour>
      <contour>
        <pt x="39" y="549" on="0"/>
        <pt x="39" y="639" on="0"/>
        <pt x="84" y="675" on="0"/>
        <pt x="217" y="675" on="0"/>
        <pt x="262" y="639" on="0"/>
        <pt x="262" y="549" on="0"/>
        <pt x="217" y="515" on="0"/>
        <pt x="84" y="515" on="0"/>
      </contour>
    </TTGlyph>
    <TTGlyph name="iacute" xMin="37" yMin="0" xMax="327" yMax="739">
      <component glyphName="dotlessi" x="0" y="0" flags="0x1004"/>
      <component glyphName="acute" x="-33" y="0" flags="0x1004"/>
    </TTGlyph>
    <TTGlyph name="icircumflex" xMin="-6" yMin="0" xMax="300" yMax="740">
      <contour>
        <pt x="50" y="0" on="1"/>
        <pt x="50" y="475" on="1"/>
        <pt x="250" y="500" on="1"/>
        <pt x="250" y="0" on="1"/>
      </contour>
      <contour>
        <pt x="123" y="740" on="1"/>
        <pt x="171" y="740" on="1"/>
        <pt x="178" y="740" on="0"/>
        <pt x="187" y="731" on="1"/>
        <pt x="300" y="586" on="1"/>
        <pt x="240" y="537" on="1"/>
        <pt x="147" y="600" on="1"/>
        <pt x="54" y="537" on="1"/>
        <pt x="-6" y="586" on="1"/>
        <pt x="107" y="731" on="1"/>
        <pt x="116" y="740" on="0"/>
      </contour>
    </TTGlyph>
    <TTGlyph name="idieresis" xMin="-42" yMin="0" xMax="336" yMax="708">
      <component glyphName="dotlessi" x="0" y="0" flags="0x1004"/>
      <component glyphName="dieresis" x="-68" y="0" flags="0x1004"/>
    </TTGlyph>
    <TTGlyph name="igrave" xMin="-28" yMin="0" xMax="262" yMax="739">
      <contour>
        <pt x="50" y="0" on="1"/>
        <pt x="50" y="475" on="1"/>
        <pt x="250" y="500" on="1"/>
        <pt x="250" y="0" on="1"/>
      </contour>
      <contour>
        <pt x="221" y="539" on="1"/>
        <pt x="47" y="574" on="1"/>
        <pt x="31" y="577" on="0"/>
        <pt x="21" y="586" on="1"/>
        <pt x="-24" y="625" on="1"/>
        <pt x="-28" y="631" on="0"/>
        <pt x="-28" y="644" on="0"/>
        <pt x="-19" y="654" on="1"/>
        <pt x="44" y="728" on="1"/>
        <pt x="53" y="739" on="0"/>
        <pt x="67" y="739" on="0"/>
        <pt x="73" y="735" on="1"/>
        <pt x="262" y="596" on="1"/>
      </contour>
    </TTGlyph>
    <TTGlyph name="infinity" xMin="50" yMin="-15" xMax="855" yMax="515">
      <contour>
        <pt x="603" y="-15" on="1"/>
        <pt x="526" y="-15" on="0"/>
        <pt x="486" y="4" on="1"/>
        <pt x="470" y="12" on="0"/>
        <pt x="470" y="17" on="1"/>
        <pt x="492" y="79" on="1"/>
        <pt x="483" y="84" on="1"/>
        <pt x="445" y="31" on="0"/>
        <pt x="360" y="-15" on="0"/>
        <pt x="302" y="-15" on="1"/>
        <pt x="169" y="-15" on="0"/>
        <pt x="50" y="116" on="0"/>
        <pt x="50" y="384" on="0"/>
        <pt x="166" y="515" on="0"/>
        <pt x="295" y="515" on="1"/>
        <pt x="375" y="515" on="0"/>
        <pt x="418" y="496" on="1"/>
        <pt x="434" y="488" on="0"/>
        <pt x="434" y="483" on="1"/>
        <pt x="411" y="421" on="1"/>
        <pt x="420" y="416" on="1"/>
        <pt x="460" y="469" on="0"/>
        <pt x="550" y="515" on="0"/>
        <pt x="610" y="515" on="1"/>
        <pt x="739" y="515" on="0"/>
        <pt x="855" y="384" on="0"/>
        <pt x="855" y="116" on="0"/>
        <pt x="736" y="-15" on="0"/>
      </contour>
      <contour>
        <pt x="662" y="193" on="1"/>
        <pt x="662" y="349" on="1"/>
        <pt x="627" y="349" on="0"/>
        <pt x="586" y="332" on="0"/>
        <pt x="576" y="307" on="1"/>
        <pt x="520" y="151" on="1"/>
        <pt x="593" y="151" on="1"/>
        <pt x="629" y="151" on="0"/>
        <pt x="662" y="166" on="0"/>
      </contour>
      <contour>
        <pt x="243" y="307" on="1"/>
        <pt x="243" y="151" on="1"/>
        <pt x="278" y="151" on="0"/>
        <pt x="319" y="168" on="0"/>
        <pt x="329" y="193" on="1"/>
        <pt x="385" y="349" on="1"/>
        <pt x="312" y="349" on="1"/>
        <pt x="276" y="349" on="0"/>
        <pt x="243" y="334" on="0"/>
      </contour>
    </TTGlyph>
    <TTGlyph name="integral" xMin="-25" yMin="-158" xMax="385" yMax="632">
      <contour>
        <pt x="281" y="429" on="1"/>
        <pt x="255" y="-41" on="1"/>
        <pt x="253" y="-78" on="0"/>
        <pt x="194" y="-128" on="0"/>
        <pt x="148" y="-139" on="1"/>
        <pt x="67" y="-158" on="0"/>
        <pt x="-19" y="-158" on="1"/>
        <pt x="-25" y="-41" on="1"/>
        <pt x="64" y="-22" on="0"/>
        <pt x="77" y="6" on="1"/>
        <pt x="83" y="19" on="0"/>
        <pt x="84" y="45" on="1"/>
        <pt x="109" y="515" on="1"/>
        <pt x="111" y="552" on="0"/>
        <pt x="167" y="602" on="0"/>
        <pt x="212" y="613" on="1"/>
        <pt x="291" y="632" on="0"/>
        <pt x="379" y="632" on="1"/>
        <pt x="385" y="515" on="1"/>
        <pt x="317" y="499" on="0"/>
        <pt x="283" y="467" on="0"/>
      </contour>
    </TTGlyph>
    <TTGlyph name="j" xMin="-50" yMin="-165" xMax="262" yMax="675">
      <contour>
        <pt x="-50" y="-165" on="1"/>
        <pt x="-50" y="-35" on="1"/>
        <pt x="2" y="-25" on="1"/>
        <pt x="33" y="-19" on="0"/>
        <pt x="50" y="2" on="0"/>
        <pt x="50" y="15" on="1"/>
        <pt x="50" y="475" on="1"/>
        <pt x="250" y="500" on="1"/>
        <pt x="250" y="0" on="1"/>
        <pt x="250" y="-81" on="0"/>
        <pt x="170" y="-165" on="0"/>
        <pt x="95" y="-165" on="1"/>
      </contour>
      <contour>
        <pt x="39" y="549" on="0"/>
        <pt x="39" y="639" on="0"/>
        <pt x="84" y="675" on="0"/>
        <pt x="217" y="675" on="0"/>
        <pt x="262" y="639" on="0"/>
        <pt x="262" y="549" on="0"/>
        <pt x="217" y="515" on="0"/>
        <pt x="84" y="515" on="0"/>
      </contour>
    </TTGlyph>
    <TTGlyph name="k" xMin="50" yMin="0" xMax="550" yMax="665">
      <contour>
        <pt x="334" y="0" on="1"/>
        <pt x="257" y="198" on="1"/>
        <pt x="250" y="198" on="1"/>
        <pt x="250" y="0" on="1"/>
        <pt x="50" y="0" on="1"/>
        <pt x="50" y="650" on="1"/>
        <pt x="250" y="665" on="1"/>
        <pt x="250" y="335" on="1"/>
        <pt x="257" y="335" on="1"/>
        <pt x="329" y="500" on="1"/>
        <pt x="545" y="500" on="1"/>
        <pt x="429" y="262" on="1"/>
        <pt x="550" y="0" on="1"/>
      </contour>
    </TTGlyph>
    <TTGlyph name="l" xMin="50" yMin="-11" xMax="299" yMax="665">
      <contour>
        <pt x="250" y="665" on="1"/>
        <pt x="250" y="143" on="1"/>
        <pt x="282" y="137" on="0"/>
        <pt x="299" y="136" on="1"/>
        <pt x="290" y="-11" on="1"/>
        <pt x="162" y="-11" on="0"/>
        <pt x="121" y="4" on="1"/>
        <pt x="70" y="23" on="0"/>
        <pt x="58" y="52" on="1"/>
        <pt x="50" y="70" on="0"/>
        <pt x="50" y="94" on="1"/>
        <pt x="50" y="650" on="1"/>
      </contour>
    </TTGlyph>
    <TTGlyph name="less" xMin="107" yMin="37" xMax="499" yMax="587">
      <contour>
        <pt x="432" y="587" on="1"/>
        <pt x="499" y="453" on="1"/>
        <pt x="252" y="315" on="1"/>
        <pt x="252" y="308" on="1"/>
        <pt x="499" y="171" on="1"/>
        <pt x="432" y="37" on="1"/>
        <pt x="107" y="221" on="1"/>
        <pt x="107" y="403" on="1"/>
      </contour>
    </TTGlyph>
    <TTGlyph name="lessequal" xMin="107" yMin="-15" xMax="499" yMax="587">
      <contour>
        <pt x="432" y="587" on="1"/>
        <pt x="499" y="453" on="1"/>
        <pt x="274" y="364" on="1"/>
        <pt x="274" y="359" on="1"/>
        <pt x="499" y="271" on="1"/>
        <pt x="432" y="137" on="1"/>
        <pt x="107" y="282" on="1"/>
        <pt x="107" y="442" on="1"/>
      </contour>
      <contour>
        <pt x="107" y="-15" on="1"/>
        <pt x="107" y="105" on="1"/>
        <pt x="493" y="105" on="1"/>
        <pt x="493" y="-15" on="1"/>
      </contour>
    </TTGlyph>
    <TTGlyph name="logicalnot" xMin="72" yMin="100" xMax="527" yMax="384">
      <contour>
        <pt x="72" y="240" on="1"/>
        <pt x="72" y="384" on="1"/>
        <pt x="527" y="384" on="1"/>
        <pt x="527" y="100" on="1"/>
        <pt x="393" y="100" on="1"/>
        <pt x="393" y="240" on="1"/>
      </contour>
    </TTGlyph>
    <TTGlyph name="lozenge" xMin="51" yMin="-150" xMax="649" yMax="625">
      <contour>
        <pt x="452" y="-150" on="1"/>
        <pt x="249" y="-150" on="1"/>
        <pt x="51" y="237" on="1"/>
        <pt x="249" y="625" on="1"/>
        <pt x="452" y="625" on="1"/>
        <pt x="649" y="237" on="1"/>
      </contour>
      <contour>
        <pt x="242" y="238" on="1"/>
        <pt x="343" y="40" on="1"/>
        <pt x="358" y="40" on="1"/>
        <pt x="457" y="236" on="1"/>
        <pt x="358" y="431" on="1"/>
        <pt x="343" y="431" on="1"/>
      </contour>
    </TTGlyph>
    <TTGlyph name="lslash" xMin="-33" yMin="-11" xMax="351" yMax="665">
      <contour>
        <pt x="0" y="220" on="1"/>
        <pt x="-33" y="321" on="0"/>
        <pt x="-33" y="328" on="1"/>
        <pt x="-33" y="351" on="0"/>
        <pt x="17" y="367" on="1"/>
        <pt x="319" y="466" on="1"/>
        <pt x="351" y="365" on="0"/>
        <pt x="351" y="354" on="1"/>
        <pt x="351" y="334" on="0"/>
        <pt x="301" y="318" on="1"/>
      </contour>
      <contour>
        <pt x="250" y="665" on="1"/>
        <pt x="250" y="143" on="1"/>
        <pt x="282" y="137" on="0"/>
        <pt x="299" y="136" on="1"/>
        <pt x="290" y="-11" on="1"/>
        <pt x="162" y="-11" on="0"/>
        <pt x="121" y="4" on="1"/>
        <pt x="70" y="23" on="0"/>
        <pt x="58" y="52" on="1"/>
        <pt x="50" y="70" on="0"/>
        <pt x="50" y="94" on="1"/>
        <pt x="50" y="650" on="1"/>
      </contour>
    </TTGlyph>
    <TTGlyph name="m" xMin="50" yMin="0" xMax="810" yMax="515">
      <contour>
        <pt x="330" y="350" on="1"/>
        <pt x="316" y="350" on="1"/>
        <pt x="293" y="350" on="0"/>
        <pt x="270" y="346" on="0"/>
        <pt x="250" y="325" on="0"/>
        <pt x="250" y="304" on="1"/>
        <pt x="250" y="0" on="1"/>
        <pt x="50" y="0" on="1"/>
        <pt x="50" y="500" on="1"/>
        <pt x="150" y="500" on="1"/>
        <pt x="195" y="454" on="1"/>
        <pt x="256" y="515" on="0"/>
        <pt x="454" y="515" on="0"/>
        <pt x="498" y="474" on="1"/>
        <pt x="559" y="515" on="0"/>
        <pt x="720" y="515" on="0"/>
        <pt x="810" y="454" on="0"/>
        <pt x="810" y="400" on="1"/>
        <pt x="810" y="0" on="1"/>
        <pt x="610" y="0" on="1"/>
        <pt x="610" y="350" on="1"/>
        <pt x="596" y="350" on="1"/>
        <pt x="575" y="350" on="0"/>
        <pt x="551" y="346" on="0"/>
        <pt x="531" y="328" on="0"/>
        <pt x="530" y="310" on="1"/>
        <pt x="530" y="0" on="1"/>
        <pt x="330" y="0" on="1"/>
      </contour>
    </TTGlyph>
    <TTGlyph name="macron" xMin="50" yMin="568" xMax="349" yMax="695">
      <contour>
        <pt x="349" y="568" on="1"/>
        <pt x="103" y="568" on="1"/>
        <pt x="69" y="568" on="0"/>
        <pt x="50" y="593" on="0"/>
        <pt x="50" y="632" on="1"/>
        <pt x="50" y="695" on="1"/>
        <pt x="297" y="695" on="1"/>
        <pt x="332" y="695" on="0"/>
        <pt x="349" y="671" on="0"/>
        <pt x="349" y="632" on="1"/>
      </contour>
    </TTGlyph>
    <TTGlyph name="minus" xMin="72" yMin="240" xMax="527" yMax="384">
      <contour>
        <pt x="72" y="240" on="1"/>
        <pt x="72" y="384" on="1"/>
        <pt x="527" y="384" on="1"/>
        <pt x="527" y="240" on="1"/>
      </contour>
    </TTGlyph>
    <TTGlyph name="mu" xMin="40" yMin="-165" xMax="540" yMax="515">
      <contour>
        <pt x="240" y="500" on="1"/>
        <pt x="240" y="131" on="1"/>
        <pt x="271" y="131" on="1"/>
        <pt x="307" y="131" on="0"/>
        <pt x="340" y="146" on="0"/>
        <pt x="340" y="173" on="1"/>
        <pt x="340" y="500" on="1"/>
        <pt x="540" y="515" on="1"/>
        <pt x="540" y="0" on="1"/>
        <pt x="440" y="0" on="1"/>
        <pt x="397" y="43" on="1"/>
        <pt x="360" y="0" on="0"/>
        <pt x="274" y="0" on="1"/>
        <pt x="202" y="0" on="1"/>
        <pt x="170" y="-165" on="1"/>
        <pt x="40" y="-165" on="1"/>
        <pt x="40" y="500" on="1"/>
      </contour>
    </TTGlyph>
    <TTGlyph name="multiply" xMin="62" yMin="75" xMax="536" yMax="549">
      <contour>
        <pt x="164" y="75" on="1"/>
        <pt x="62" y="177" on="1"/>
        <pt x="197" y="312" on="1"/>
        <pt x="62" y="447" on="1"/>
        <pt x="164" y="549" on="1"/>
        <pt x="299" y="414" on="1"/>
        <pt x="434" y="549" on="1"/>
        <pt x="536" y="447" on="1"/>
        <pt x="401" y="312" on="1"/>
        <pt x="536" y="177" on="1"/>
        <pt x="434" y="75" on="1"/>
        <pt x="299" y="210" on="1"/>
      </contour>
    </TTGlyph>
    <TTGlyph name="n" xMin="50" yMin="0" xMax="550" yMax="515">
      <contour>
        <pt x="150" y="500" on="1"/>
        <pt x="200" y="450" on="1"/>
        <pt x="293" y="515" on="0"/>
        <pt x="400" y="515" on="1"/>
        <pt x="470" y="515" on="0"/>
        <pt x="550" y="454" on="0"/>
        <pt x="550" y="400" on="1"/>
        <pt x="550" y="0" on="1"/>
        <pt x="350" y="0" on="1"/>
        <pt x="350" y="350" on="1"/>
        <pt x="319" y="350" on="1"/>
        <pt x="285" y="350" on="0"/>
        <pt x="250" y="335" on="0"/>
        <pt x="250" y="312" on="1"/>
        <pt x="250" y="0" on="1"/>
        <pt x="50" y="0" on="1"/>
        <pt x="50" y="500" on="1"/>
      </contour>
    </TTGlyph>
    <TTGlyph name="nine" xMin="34" yMin="-15" xMax="564" yMax="640">
      <contour>
        <pt x="249" y="447" on="1"/>
        <pt x="249" y="376" on="1"/>
        <pt x="290" y="376" on="1"/>
        <pt x="323" y="376" on="0"/>
        <pt x="349" y="391" on="0"/>
        <pt x="349" y="418" on="1"/>
        <pt x="349" y="489" on="1"/>
        <pt x="308" y="489" on="1"/>
        <pt x="275" y="489" on="0"/>
        <pt x="249" y="474" on="0"/>
      </contour>
      <contour>
        <pt x="349" y="217" on="1"/>
        <pt x="299" y="218" on="1"/>
        <pt x="139" y="221" on="0"/>
        <pt x="85" y="274" on="1"/>
        <pt x="34" y="323" on="0"/>
        <pt x="34" y="425" on="1"/>
        <pt x="34" y="557" on="0"/>
        <pt x="113" y="602" on="1"/>
        <pt x="152" y="624" on="0"/>
        <pt x="239" y="640" on="0"/>
        <pt x="299" y="640" on="1"/>
        <pt x="450" y="640" on="0"/>
        <pt x="564" y="484" on="0"/>
        <pt x="564" y="141" on="0"/>
        <pt x="450" y="-15" on="0"/>
        <pt x="164" y="-15" on="0"/>
        <pt x="53" y="11" on="1"/>
        <pt x="81" y="176" on="1"/>
        <pt x="176" y="153" on="0"/>
        <pt x="302" y="153" on="0"/>
        <pt x="349" y="159" on="1"/>
      </contour>
    </TTGlyph>
    <TTGlyph name="notequal" xMin="49" yMin="-40" xMax="552" yMax="665">
      <component glyphName="equal" x="0" y="0" flags="0x1004"/>
      <component glyphName="slash" x="49" y="0" flags="0x1004"/>
    </TTGlyph>
    <TTGlyph name="ntilde" xMin="50" yMin="0" xMax="550" yMax="721">
      <component glyphName="n" x="0" y="0" flags="0x1004"/>
      <component glyphName="tilde" x="68" y="0" flags="0x1004"/>
    </TTGlyph>
    <TTGlyph name="numbersign" xMin="0" yMin="-40" xMax="746" yMax="665">
      <contour>
        <pt x="425" y="665" on="1"/>
        <pt x="349" y="474" on="1"/>
        <pt x="529" y="474" on="1"/>
        <pt x="595" y="640" on="1"/>
        <pt x="600" y="650" on="0"/>
        <pt x="604" y="654" on="1"/>
        <pt x="615" y="665" on="0"/>
        <pt x="638" y="665" on="1"/>
        <pt x="689" y="665" on="1"/>
        <pt x="613" y="474" on="1"/>
        <pt x="746" y="474" on="1"/>
        <pt x="728" y="426" on="1"/>
        <pt x="718" y="402" on="0"/>
        <pt x="706" y="398" on="1"/>
        <pt x="700" y="397" on="0"/>
        <pt x="689" y="395" on="1"/>
        <pt x="582" y="395" on="1"/>
        <pt x="516" y="228" on="1"/>
        <pt x="649" y="228" on="1"/>
        <pt x="631" y="181" on="1"/>
        <pt x="623" y="163" on="0"/>
        <pt x="607" y="152" on="0"/>
        <pt x="592" y="150" on="1"/>
        <pt x="485" y="150" on="1"/>
        <pt x="420" y="-15" on="1"/>
        <pt x="415" y="-25" on="0"/>
        <pt x="411" y="-29" on="1"/>
        <pt x="400" y="-40" on="0"/>
        <pt x="377" y="-40" on="1"/>
        <pt x="326" y="-40" on="1"/>
        <pt x="401" y="150" on="1"/>
        <pt x="221" y="150" on="1"/>
        <pt x="156" y="-15" on="1"/>
        <pt x="151" y="-25" on="0"/>
        <pt x="147" y="-29" on="1"/>
        <pt x="136" y="-40" on="0"/>
        <pt x="113" y="-40" on="1"/>
        <pt x="62" y="-40" on="1"/>
        <pt x="137" y="150" on="1"/>
        <pt x="0" y="150" on="1"/>
        <pt x="19" y="197" on="1"/>
        <pt x="26" y="215" on="0"/>
        <pt x="43" y="226" on="0"/>
        <pt x="58" y="228" on="1"/>
        <pt x="168" y="228" on="1"/>
        <pt x="234" y="395" on="1"/>
        <pt x="97" y="395" on="1"/>
        <pt x="116" y="443" on="1"/>
        <pt x="126" y="467" on="0"/>
        <pt x="138" y="470" on="1"/>
        <pt x="144" y="472" on="0"/>
        <pt x="155" y="474" on="1"/>
        <pt x="265" y="474" on="1"/>
        <pt x="331" y="640" on="1"/>
        <pt x="336" y="650" on="0"/>
        <pt x="340" y="654" on="1"/>
        <pt x="351" y="665" on="0"/>
        <pt x="374" y="665" on="1"/>
      </contour>
      <contour>
        <pt x="318" y="395" on="1"/>
        <pt x="252" y="228" on="1"/>
        <pt x="432" y="228" on="1"/>
        <pt x="498" y="395" on="1"/>
      </contour>
    </TTGlyph>
    <TTGlyph name="o" xMin="30" yMin="-15" xMax="560" yMax="515">
      <contour>
        <pt x="30" y="116" on="0"/>
        <pt x="30" y="384" on="0"/>
        <pt x="155" y="515" on="0"/>
        <pt x="435" y="515" on="0"/>
        <pt x="560" y="384" on="0"/>
        <pt x="560" y="116" on="0"/>
        <pt x="435" y="-15" on="0"/>
        <pt x="155" y="-15" on="0"/>
      </contour>
      <contour>
        <pt x="245" y="327" on="1"/>
        <pt x="245" y="131" on="1"/>
        <pt x="276" y="131" on="1"/>
        <pt x="312" y="131" on="0"/>
        <pt x="345" y="146" on="0"/>
        <pt x="345" y="173" on="1"/>
        <pt x="345" y="369" on="1"/>
        <pt x="314" y="369" on="1"/>
        <pt x="278" y="369" on="0"/>
        <pt x="245" y="354" on="0"/>
      </contour>
    </TTGlyph>
    <TTGlyph name="oacute" xMin="30" yMin="-15" xMax="560" yMax="739">
      <component glyphName="o" x="0" y="0" flags="0x1004"/>
      <component glyphName="acute" x="115" y="0" flags="0x1004"/>
    </TTGlyph>
    <TTGlyph name="ocircumflex" xMin="30" yMin="-15" xMax="560" yMax="740">
      <contour>
        <pt x="30" y="116" on="0"/>
        <pt x="30" y="384" on="0"/>
        <pt x="155" y="515" on="0"/>
        <pt x="435" y="515" on="0"/>
        <pt x="560" y="384" on="0"/>
        <pt x="560" y="116" on="0"/>
        <pt x="435" y="-15" on="0"/>
        <pt x="155" y="-15" on="0"/>
      </contour>
      <contour>
        <pt x="245" y="327" on="1"/>
        <pt x="245" y="131" on="1"/>
        <pt x="276" y="131" on="1"/>
        <pt x="312" y="131" on="0"/>
        <pt x="345" y="146" on="0"/>
        <pt x="345" y="173" on="1"/>
        <pt x="345" y="369" on="1"/>
        <pt x="314" y="369" on="1"/>
        <pt x="278" y="369" on="0"/>
        <pt x="245" y="354" on="0"/>
      </contour>
      <contour>
        <pt x="270" y="740" on="1"/>
        <pt x="318" y="740" on="1"/>
        <pt x="325" y="740" on="0"/>
        <pt x="334" y="731" on="1"/>
        <pt x="447" y="586" on="1"/>
        <pt x="387" y="537" on="1"/>
        <pt x="294" y="600" on="1"/>
        <pt x="201" y="537" on="1"/>
        <pt x="141" y="586" on="1"/>
        <pt x="254" y="731" on="1"/>
        <pt x="263" y="740" on="0"/>
      </contour>
    </TTGlyph>
    <TTGlyph name="odieresis" xMin="30" yMin="-15" xMax="560" yMax="708">
      <component glyphName="o" x="0" y="0" flags="0x1004"/>
      <component glyphName="dieresis" x="80" y="0" flags="0x1004"/>
    </TTGlyph>
    <TTGlyph name="oe" xMin="30" yMin="-15" xMax="857" yMax="515">
      <contour>
        <pt x="30" y="116" on="0"/>
        <pt x="30" y="384" on="0"/>
        <pt x="155" y="515" on="0"/>
        <pt x="435" y="515" on="0"/>
        <pt x="560" y="384" on="0"/>
        <pt x="560" y="116" on="0"/>
        <pt x="435" y="-15" on="0"/>
        <pt x="155" y="-15" on="0"/>
      </contour>
      <contour>
        <pt x="245" y="327" on="1"/>
        <pt x="245" y="131" on="1"/>
        <pt x="276" y="131" on="1"/>
        <pt x="312" y="131" on="0"/>
        <pt x="345" y="146" on="0"/>
        <pt x="345" y="173" on="1"/>
        <pt x="345" y="369" on="1"/>
        <pt x="314" y="369" on="1"/>
        <pt x="278" y="369" on="0"/>
        <pt x="245" y="354" on="0"/>
      </contour>
      <contour>
        <pt x="562" y="170" on="1"/>
        <pt x="562" y="135" on="1"/>
        <pt x="592" y="132" on="0"/>
        <pt x="622" y="132" on="1"/>
        <pt x="715" y="132" on="0"/>
        <pt x="810" y="162" on="1"/>
        <pt x="834" y="15" on="1"/>
        <pt x="722" y="-15" on="0"/>
        <pt x="612" y="-15" on="1"/>
        <pt x="472" y="-15" on="0"/>
        <pt x="347" y="116" on="0"/>
        <pt x="347" y="384" on="0"/>
        <pt x="472" y="515" on="0"/>
        <pt x="751" y="515" on="0"/>
        <pt x="857" y="439" on="0"/>
        <pt x="857" y="335" on="1"/>
        <pt x="857" y="247" on="0"/>
        <pt x="730" y="170" on="0"/>
      </contour>
      <contour>
        <pt x="562" y="327" on="1"/>
        <pt x="562" y="286" on="1"/>
        <pt x="603" y="286" on="1"/>
        <pt x="639" y="286" on="0"/>
        <pt x="672" y="301" on="0"/>
        <pt x="672" y="328" on="1"/>
        <pt x="672" y="369" on="1"/>
        <pt x="631" y="369" on="1"/>
        <pt x="595" y="369" on="0"/>
        <pt x="562" y="354" on="0"/>
      </contour>
    </TTGlyph>
    <TTGlyph name="ogonek" xMin="142" yMin="-165" xMax="358" yMax="21">
      <contour>
        <pt x="300" y="21" on="1"/>
        <pt x="319" y="0" on="1"/>
        <pt x="265" y="-26" on="1"/>
        <pt x="265" y="-47" on="0"/>
        <pt x="277" y="-58" on="0"/>
        <pt x="298" y="-58" on="1"/>
        <pt x="347" y="-58" on="1"/>
        <pt x="358" y="-146" on="1"/>
        <pt x="298" y="-165" on="0"/>
        <pt x="199" y="-165" on="0"/>
        <pt x="142" y="-117" on="0"/>
        <pt x="142" y="-81" on="1"/>
        <pt x="142" y="-15" on="0"/>
        <pt x="220" y="21" on="1"/>
      </contour>
    </TTGlyph>
    <TTGlyph name="ograve" xMin="30" yMin="-15" xMax="560" yMax="739">
      <component glyphName="o" x="0" y="0" flags="0x1004"/>
      <component glyphName="grave" x="80" y="0" flags="0x1004"/>
    </TTGlyph>
    <TTGlyph name="one" xMin="66" yMin="0" xMax="566" yMax="625">
      <contour>
        <pt x="566" y="0" on="1"/>
        <pt x="66" y="0" on="1"/>
        <pt x="66" y="160" on="1"/>
        <pt x="244" y="160" on="1"/>
        <pt x="244" y="425" on="1"/>
        <pt x="66" y="413" on="1"/>
        <pt x="66" y="573" on="1"/>
        <pt x="296" y="625" on="1"/>
        <pt x="454" y="625" on="1"/>
        <pt x="454" y="160" on="1"/>
        <pt x="566" y="160" on="1"/>
      </contour>
    </TTGlyph>
    <TTGlyph name="onehalf" xMin="59" yMin="-40" xMax="921" yMax="665">
      <contour>
        <pt x="618" y="270" on="1"/>
        <pt x="599" y="381" on="1"/>
        <pt x="668" y="398" on="0"/>
        <pt x="799" y="398" on="0"/>
        <pt x="849" y="390" on="0"/>
        <pt x="874" y="378" on="1"/>
        <pt x="921" y="355" on="0"/>
        <pt x="921" y="270" on="1"/>
        <pt x="921" y="211" on="0"/>
        <pt x="859" y="163" on="0"/>
        <pt x="746" y="125" on="1"/>
        <pt x="746" y="110" on="1"/>
        <pt x="915" y="110" on="1"/>
        <pt x="915" y="0" on="1"/>
        <pt x="593" y="0" on="1"/>
        <pt x="593" y="82" on="1"/>
        <pt x="593" y="138" on="0"/>
        <pt x="616" y="162" on="1"/>
        <pt x="627" y="172" on="0"/>
        <pt x="638" y="184" on="0"/>
        <pt x="671" y="202" on="0"/>
        <pt x="685" y="209" on="0"/>
        <pt x="708" y="219" on="1"/>
        <pt x="778" y="251" on="1"/>
        <pt x="778" y="283" on="1"/>
        <pt x="756" y="285" on="0"/>
        <pt x="686" y="285" on="0"/>
      </contour>
      <contour>
        <pt x="373" y="227" on="1"/>
        <pt x="59" y="227" on="1"/>
        <pt x="59" y="337" on="1"/>
        <pt x="154" y="337" on="1"/>
        <pt x="154" y="480" on="1"/>
        <pt x="59" y="475" on="1"/>
        <pt x="59" y="584" on="1"/>
        <pt x="190" y="616" on="1"/>
        <pt x="294" y="616" on="1"/>
        <pt x="294" y="337" on="1"/>
        <pt x="373" y="337" on="1"/>
      </contour>
      <contour>
        <pt x="659" y="665" on="1"/>
        <pt x="390" y="-15" on="1"/>
        <pt x="385" y="-25" on="0"/>
        <pt x="381" y="-29" on="1"/>
        <pt x="370" y="-40" on="0"/>
        <pt x="347" y="-40" on="1"/>
        <pt x="296" y="-40" on="1"/>
        <pt x="565" y="640" on="1"/>
        <pt x="570" y="650" on="0"/>
        <pt x="574" y="654" on="1"/>
        <pt x="585" y="665" on="0"/>
        <pt x="608" y="665" on="1"/>
      </contour>
    </TTGlyph>
    <TTGlyph name="onequarter" xMin="59" yMin="-40" xMax="935" yMax="665">
      <contour>
        <pt x="762" y="0" on="1"/>
        <pt x="762" y="60" on="1"/>
        <pt x="578" y="60" on="1"/>
        <pt x="578" y="144" on="1"/>
        <pt x="672" y="389" on="1"/>
        <pt x="896" y="389" on="1"/>
        <pt x="896" y="172" on="1"/>
        <pt x="935" y="172" on="1"/>
        <pt x="935" y="60" on="1"/>
        <pt x="896" y="60" on="1"/>
        <pt x="896" y="0" on="1"/>
      </contour>
      <contour>
        <pt x="762" y="172" on="1"/>
        <pt x="762" y="295" on="1"/>
        <pt x="754" y="295" on="1"/>
        <pt x="709" y="172" on="1"/>
      </contour>
      <contour>
        <pt x="373" y="227" on="1"/>
        <pt x="59" y="227" on="1"/>
        <pt x="59" y="337" on="1"/>
        <pt x="154" y="337" on="1"/>
        <pt x="154" y="480" on="1"/>
        <pt x="59" y="475" on="1"/>
        <pt x="59" y="584" on="1"/>
        <pt x="190" y="616" on="1"/>
        <pt x="294" y="616" on="1"/>
        <pt x="294" y="337" on="1"/>
        <pt x="373" y="337" on="1"/>
      </contour>
      <contour>
        <pt x="689" y="665" on="1"/>
        <pt x="420" y="-15" on="1"/>
        <pt x="415" y="-25" on="0"/>
        <pt x="411" y="-29" on="1"/>
        <pt x="400" y="-40" on="0"/>
        <pt x="377" y="-40" on="1"/>
        <pt x="326" y="-40" on="1"/>
        <pt x="595" y="640" on="1"/>
        <pt x="600" y="650" on="0"/>
        <pt x="604" y="654" on="1"/>
        <pt x="615" y="665" on="0"/>
        <pt x="638" y="665" on="1"/>
      </contour>
    </TTGlyph>
    <TTGlyph name="onesuperior" xMin="53" yMin="343" xMax="367" yMax="732">
      <contour>
        <pt x="367" y="343" on="1"/>
        <pt x="53" y="343" on="1"/>
        <pt x="53" y="453" on="1"/>
        <pt x="148" y="453" on="1"/>
        <pt x="148" y="596" on="1"/>
        <pt x="53" y="591" on="1"/>
        <pt x="53" y="700" on="1"/>
        <pt x="184" y="732" on="1"/>
        <pt x="288" y="732" on="1"/>
        <pt x="288" y="453" on="1"/>
        <pt x="367" y="453" on="1"/>
      </contour>
    </TTGlyph>
    <TTGlyph name="ordfeminine" xMin="12" yMin="191" xMax="424" yMax="770">
      <contour>
        <pt x="43" y="744" on="1"/>
        <pt x="124" y="770" on="0"/>
        <pt x="320" y="770" on="0"/>
        <pt x="424" y="711" on="0"/>
        <pt x="424" y="635" on="1"/>
        <pt x="424" y="356" on="1"/>
        <pt x="337" y="356" on="1"/>
        <pt x="295" y="398" on="1"/>
        <pt x="271" y="373" on="0"/>
        <pt x="191" y="344" on="0"/>
        <pt x="149" y="344" on="1"/>
        <pt x="12" y="344" on="0"/>
        <pt x="12" y="475" on="1"/>
        <pt x="12" y="551" on="0"/>
        <pt x="124" y="606" on="0"/>
        <pt x="231" y="606" on="1"/>
        <pt x="255" y="606" on="1"/>
        <pt x="255" y="642" on="1"/>
        <pt x="228" y="646" on="0"/>
        <pt x="130" y="646" on="0"/>
        <pt x="62" y="628" on="1"/>
      </contour>
      <contour>
        <pt x="191" y="493" on="1"/>
        <pt x="191" y="462" on="1"/>
        <pt x="207" y="462" on="1"/>
        <pt x="252" y="462" on="0"/>
        <pt x="255" y="484" on="1"/>
        <pt x="255" y="518" on="1"/>
        <pt x="237" y="518" on="1"/>
        <pt x="206" y="518" on="0"/>
        <pt x="191" y="504" on="0"/>
      </contour>
      <contour>
        <pt x="35" y="191" on="1"/>
        <pt x="35" y="271" on="1"/>
        <pt x="35" y="291" on="0"/>
        <pt x="56" y="300" on="0"/>
        <pt x="83" y="300" on="1"/>
        <pt x="423" y="300" on="1"/>
        <pt x="423" y="222" on="1"/>
        <pt x="423" y="202" on="0"/>
        <pt x="400" y="191" on="0"/>
        <pt x="375" y="191" on="1"/>
      </contour>
    </TTGlyph>
    <TTGlyph name="ordmasculine" xMin="20" yMin="191" xMax="446" yMax="770">
      <contour>
        <pt x="20" y="449" on="0"/>
        <pt x="20" y="665" on="0"/>
        <pt x="120" y="770" on="0"/>
        <pt x="346" y="770" on="0"/>
        <pt x="446" y="665" on="0"/>
        <pt x="446" y="449" on="0"/>
        <pt x="346" y="344" on="0"/>
        <pt x="120" y="344" on="0"/>
      </contour>
      <contour>
        <pt x="201" y="618" on="1"/>
        <pt x="201" y="472" on="1"/>
        <pt x="218" y="472" on="1"/>
        <pt x="242" y="472" on="0"/>
        <pt x="265" y="481" on="0"/>
        <pt x="265" y="497" on="1"/>
        <pt x="265" y="643" on="1"/>
        <pt x="247" y="643" on="1"/>
        <pt x="223" y="643" on="0"/>
        <pt x="201" y="634" on="0"/>
      </contour>
      <contour>
        <pt x="35" y="191" on="1"/>
        <pt x="35" y="271" on="1"/>
        <pt x="35" y="291" on="0"/>
        <pt x="56" y="300" on="0"/>
        <pt x="83" y="300" on="1"/>
        <pt x="423" y="300" on="1"/>
        <pt x="423" y="222" on="1"/>
        <pt x="423" y="202" on="0"/>
        <pt x="400" y="191" on="0"/>
        <pt x="375" y="191" on="1"/>
      </contour>
    </TTGlyph>
    <TTGlyph name="oslash" xMin="30" yMin="-104" xMax="560" yMax="601">
      <contour>
        <pt x="240" y="100" on="1"/>
        <pt x="412" y="400" on="1"/>
        <pt x="351" y="400" on="1"/>
        <pt x="179" y="100" on="1"/>
      </contour>
      <contour>
        <pt x="151" y="85" on="1"/>
        <pt x="251" y="85" on="1"/>
        <pt x="157" y="-79" on="1"/>
        <pt x="152" y="-89" on="0"/>
        <pt x="148" y="-93" on="1"/>
        <pt x="137" y="-104" on="0"/>
        <pt x="114" y="-104" on="1"/>
        <pt x="43" y="-104" on="1"/>
      </contour>
      <contour>
        <pt x="444" y="422" on="1"/>
        <pt x="546" y="601" on="1"/>
        <pt x="475" y="601" on="1"/>
        <pt x="452" y="601" on="0"/>
        <pt x="441" y="590" on="1"/>
        <pt x="437" y="586" on="0"/>
        <pt x="432" y="576" on="1"/>
        <pt x="344" y="422" on="1"/>
      </contour>
      <contour>
        <pt x="30" y="116" on="0"/>
        <pt x="30" y="384" on="0"/>
        <pt x="155" y="515" on="0"/>
        <pt x="435" y="515" on="0"/>
        <pt x="560" y="384" on="0"/>
        <pt x="560" y="116" on="0"/>
        <pt x="435" y="-15" on="0"/>
        <pt x="155" y="-15" on="0"/>
      </contour>
      <contour>
        <pt x="245" y="327" on="1"/>
        <pt x="245" y="354" on="0"/>
        <pt x="278" y="369" on="0"/>
        <pt x="314" y="369" on="1"/>
        <pt x="345" y="369" on="1"/>
        <pt x="345" y="173" on="1"/>
        <pt x="345" y="146" on="0"/>
        <pt x="312" y="131" on="0"/>
        <pt x="276" y="131" on="1"/>
        <pt x="245" y="131" on="1"/>
      </contour>
    </TTGlyph>
    <TTGlyph name="otilde" xMin="30" yMin="-15" xMax="560" yMax="721">
      <contour>
        <pt x="30" y="116" on="0"/>
        <pt x="30" y="384" on="0"/>
        <pt x="155" y="515" on="0"/>
        <pt x="435" y="515" on="0"/>
        <pt x="560" y="384" on="0"/>
        <pt x="560" y="116" on="0"/>
        <pt x="435" y="-15" on="0"/>
        <pt x="155" y="-15" on="0"/>
      </contour>
      <contour>
        <pt x="245" y="327" on="1"/>
        <pt x="245" y="131" on="1"/>
        <pt x="276" y="131" on="1"/>
        <pt x="312" y="131" on="0"/>
        <pt x="345" y="146" on="0"/>
        <pt x="345" y="173" on="1"/>
        <pt x="345" y="369" on="1"/>
        <pt x="314" y="369" on="1"/>
        <pt x="278" y="369" on="0"/>
        <pt x="245" y="354" on="0"/>
      </contour>
      <contour>
        <pt x="438" y="716" on="1"/>
        <pt x="488" y="635" on="1"/>
        <pt x="369" y="555" on="0"/>
        <pt x="340" y="543" on="0"/>
        <pt x="312" y="543" on="0"/>
        <pt x="295" y="547" on="0"/>
        <pt x="275" y="558" on="0"/>
        <pt x="264" y="566" on="0"/>
        <pt x="239" y="584" on="0"/>
        <pt x="234" y="588" on="1"/>
        <pt x="152" y="548" on="1"/>
        <pt x="102" y="629" on="1"/>
        <pt x="221" y="709" on="0"/>
        <pt x="250" y="721" on="0"/>
        <pt x="278" y="721" on="0"/>
        <pt x="295" y="717" on="0"/>
        <pt x="315" y="706" on="0"/>
        <pt x="326" y="698" on="0"/>
        <pt x="351" y="680" on="0"/>
        <pt x="356" y="676" on="1"/>
      </contour>
    </TTGlyph>
    <TTGlyph name="p" xMin="50" yMin="-165" xMax="565" yMax="515">
      <contour>
        <pt x="50" y="500" on="1"/>
        <pt x="150" y="500" on="1"/>
        <pt x="187" y="450" on="1"/>
        <pt x="231" y="515" on="0"/>
        <pt x="350" y="515" on="1"/>
        <pt x="411" y="515" on="0"/>
        <pt x="499" y="469" on="0"/>
        <pt x="522" y="429" on="1"/>
        <pt x="565" y="354" on="0"/>
        <pt x="565" y="250" on="1"/>
        <pt x="565" y="123" on="0"/>
        <pt x="510" y="58" on="1"/>
        <pt x="488" y="33" on="0"/>
        <pt x="414" y="0" on="0"/>
        <pt x="365" y="0" on="1"/>
        <pt x="250" y="0" on="1"/>
        <pt x="250" y="-150" on="1"/>
        <pt x="50" y="-165" on="1"/>
      </contour>
      <contour>
        <pt x="250" y="332" on="1"/>
        <pt x="250" y="131" on="1"/>
        <pt x="281" y="131" on="1"/>
        <pt x="317" y="131" on="0"/>
        <pt x="350" y="146" on="0"/>
        <pt x="350" y="173" on="1"/>
        <pt x="350" y="369" on="1"/>
        <pt x="319" y="369" on="1"/>
        <pt x="297" y="369" on="0"/>
        <pt x="271" y="365" on="0"/>
        <pt x="251" y="348" on="0"/>
      </contour>
    </TTGlyph>
    <TTGlyph name="paragraph" xMin="30" yMin="0" xMax="564" yMax="625">
      <contour>
        <pt x="70" y="0" on="1"/>
        <pt x="70" y="50" on="1"/>
        <pt x="185" y="86" on="1"/>
        <pt x="185" y="218" on="1"/>
        <pt x="30" y="239" on="0"/>
        <pt x="30" y="418" on="1"/>
        <pt x="30" y="513" on="0"/>
        <pt x="126" y="625" on="0"/>
        <pt x="245" y="625" on="1"/>
        <pt x="564" y="625" on="1"/>
        <pt x="564" y="465" on="1"/>
        <pt x="514" y="465" on="1"/>
        <pt x="514" y="0" on="1"/>
        <pt x="319" y="0" on="1"/>
        <pt x="319" y="465" on="1"/>
        <pt x="289" y="465" on="1"/>
        <pt x="289" y="0" on="1"/>
      </contour>
    </TTGlyph>
    <TTGlyph name="parenleft" xMin="20" yMin="-136" xMax="284" yMax="620">
      <contour>
        <pt x="274" y="620" on="1"/>
        <pt x="284" y="473" on="1"/>
        <pt x="267" y="466" on="0"/>
        <pt x="244" y="447" on="0"/>
        <pt x="230" y="424" on="1"/>
        <pt x="200" y="377" on="0"/>
        <pt x="200" y="242" on="1"/>
        <pt x="200" y="104" on="0"/>
        <pt x="230" y="58" on="1"/>
        <pt x="245" y="35" on="0"/>
        <pt x="266" y="19" on="0"/>
        <pt x="284" y="11" on="1"/>
        <pt x="274" y="-136" on="1"/>
        <pt x="20" y="-103" on="0"/>
        <pt x="20" y="587" on="0"/>
      </contour>
    </TTGlyph>
    <TTGlyph name="parenright" xMin="30" yMin="-146" xMax="294" yMax="610">
      <contour>
        <pt x="30" y="463" on="1"/>
        <pt x="40" y="610" on="1"/>
        <pt x="294" y="577" on="0"/>
        <pt x="294" y="-113" on="0"/>
        <pt x="40" y="-146" on="1"/>
        <pt x="30" y="1" on="1"/>
        <pt x="48" y="9" on="0"/>
        <pt x="69" y="25" on="0"/>
        <pt x="84" y="48" on="1"/>
        <pt x="114" y="94" on="0"/>
        <pt x="114" y="232" on="1"/>
        <pt x="114" y="367" on="0"/>
        <pt x="84" y="414" on="1"/>
        <pt x="70" y="437" on="0"/>
        <pt x="47" y="456" on="0"/>
      </contour>
    </TTGlyph>
    <TTGlyph name="partialdiff" xMin="38" yMin="-15" xMax="553" yMax="625">
      <contour>
        <pt x="333" y="455" on="1"/>
        <pt x="367" y="454" on="1"/>
        <pt x="370" y="481" on="1"/>
        <pt x="211" y="522" on="1"/>
        <pt x="211" y="625" on="1"/>
        <pt x="364" y="625" on="1"/>
        <pt x="448" y="589" on="0"/>
        <pt x="553" y="423" on="0"/>
        <pt x="553" y="319" on="1"/>
        <pt x="553" y="176" on="0"/>
        <pt x="486" y="84" on="1"/>
        <pt x="452" y="38" on="0"/>
        <pt x="335" y="-15" on="0"/>
        <pt x="258" y="-15" on="1"/>
        <pt x="144" y="-15" on="0"/>
        <pt x="38" y="82" on="0"/>
        <pt x="38" y="179" on="1"/>
        <pt x="38" y="455" on="0"/>
      </contour>
      <contour>
        <pt x="252" y="279" on="1"/>
        <pt x="232" y="131" on="1"/>
        <pt x="261" y="131" on="1"/>
        <pt x="283" y="131" on="0"/>
        <pt x="308" y="135" on="0"/>
        <pt x="331" y="155" on="0"/>
        <pt x="333" y="173" on="1"/>
        <pt x="353" y="321" on="1"/>
        <pt x="323" y="321" on="1"/>
        <pt x="289" y="321" on="0"/>
        <pt x="255" y="306" on="0"/>
      </contour>
    </TTGlyph>
    <TTGlyph name="percent" xMin="20" yMin="-15" xMax="842" yMax="640">
      <contour>
        <pt x="659" y="625" on="1"/>
        <pt x="314" y="25" on="1"/>
        <pt x="304" y="8" on="0"/>
        <pt x="289" y="0" on="0"/>
        <pt x="265" y="0" on="1"/>
        <pt x="200" y="0" on="1"/>
        <pt x="545" y="600" on="1"/>
        <pt x="555" y="617" on="0"/>
        <pt x="570" y="625" on="0"/>
        <pt x="594" y="625" on="1"/>
      </contour>
      <contour>
        <pt x="472" y="76" on="0"/>
        <pt x="472" y="264" on="0"/>
        <pt x="559" y="355" on="0"/>
        <pt x="755" y="355" on="0"/>
        <pt x="842" y="264" on="0"/>
        <pt x="842" y="76" on="0"/>
        <pt x="755" y="-15" on="0"/>
        <pt x="559" y="-15" on="0"/>
      </contour>
      <contour>
        <pt x="630" y="209" on="1"/>
        <pt x="630" y="102" on="1"/>
        <pt x="652" y="102" on="1"/>
        <pt x="673" y="102" on="0"/>
        <pt x="684" y="111" on="0"/>
        <pt x="684" y="131" on="1"/>
        <pt x="684" y="238" on="1"/>
        <pt x="662" y="238" on="1"/>
        <pt x="641" y="238" on="0"/>
        <pt x="630" y="229" on="0"/>
      </contour>
      <contour>
        <pt x="20" y="361" on="0"/>
        <pt x="20" y="549" on="0"/>
        <pt x="107" y="640" on="0"/>
        <pt x="303" y="640" on="0"/>
        <pt x="390" y="549" on="0"/>
        <pt x="390" y="361" on="0"/>
        <pt x="303" y="270" on="0"/>
        <pt x="107" y="270" on="0"/>
      </contour>
      <contour>
        <pt x="178" y="494" on="1"/>
        <pt x="178" y="387" on="1"/>
        <pt x="200" y="387" on="1"/>
        <pt x="221" y="387" on="0"/>
        <pt x="232" y="396" on="0"/>
        <pt x="232" y="416" on="1"/>
        <pt x="232" y="523" on="1"/>
        <pt x="210" y="523" on="1"/>
        <pt x="189" y="523" on="0"/>
        <pt x="178" y="514" on="0"/>
      </contour>
    </TTGlyph>
    <TTGlyph name="period" xMin="30" yMin="-6" xMax="247" yMax="206">
      <contour>
        <pt x="30" y="40" on="0"/>
        <pt x="30" y="158" on="0"/>
        <pt x="74" y="206" on="0"/>
        <pt x="203" y="206" on="0"/>
        <pt x="247" y="158" on="0"/>
        <pt x="247" y="40" on="0"/>
        <pt x="203" y="-6" on="0"/>
        <pt x="74" y="-6" on="0"/>
      </contour>
    </TTGlyph>
    <TTGlyph name="periodcentered" xMin="30" yMin="144" xMax="247" yMax="356">
      <contour>
        <pt x="30" y="190" on="0"/>
        <pt x="30" y="308" on="0"/>
        <pt x="74" y="356" on="0"/>
        <pt x="203" y="356" on="0"/>
        <pt x="247" y="308" on="0"/>
        <pt x="247" y="190" on="0"/>
        <pt x="203" y="144" on="0"/>
        <pt x="74" y="144" on="0"/>
      </contour>
    </TTGlyph>
    <TTGlyph name="perthousand" xMin="20" yMin="-15" xMax="1125" yMax="640">
      <contour>
        <pt x="472" y="76" on="0"/>
        <pt x="472" y="264" on="0"/>
        <pt x="559" y="355" on="0"/>
        <pt x="755" y="355" on="0"/>
        <pt x="798" y="309" on="1"/>
        <pt x="843" y="355" on="0"/>
        <pt x="1038" y="355" on="0"/>
        <pt x="1125" y="264" on="0"/>
        <pt x="1125" y="76" on="0"/>
        <pt x="1038" y="-15" on="0"/>
        <pt x="843" y="-15" on="0"/>
        <pt x="798" y="31" on="1"/>
        <pt x="755" y="-15" on="0"/>
        <pt x="559" y="-15" on="0"/>
      </contour>
      <contour>
        <pt x="20" y="361" on="0"/>
        <pt x="20" y="549" on="0"/>
        <pt x="107" y="640" on="0"/>
        <pt x="303" y="640" on="0"/>
        <pt x="390" y="549" on="0"/>
        <pt x="390" y="361" on="0"/>
        <pt x="303" y="270" on="0"/>
        <pt x="107" y="270" on="0"/>
      </contour>
      <contour>
        <pt x="659" y="625" on="1"/>
        <pt x="314" y="25" on="1"/>
        <pt x="304" y="8" on="0"/>
        <pt x="289" y="0" on="0"/>
        <pt x="265" y="0" on="1"/>
        <pt x="200" y="0" on="1"/>
        <pt x="545" y="600" on="1"/>
        <pt x="555" y="617" on="0"/>
        <pt x="570" y="625" on="0"/>
        <pt x="594" y="625" on="1"/>
      </contour>
      <contour>
        <pt x="630" y="209" on="1"/>
        <pt x="630" y="102" on="1"/>
        <pt x="652" y="102" on="1"/>
        <pt x="673" y="102" on="0"/>
        <pt x="684" y="111" on="0"/>
        <pt x="684" y="131" on="1"/>
        <pt x="684" y="238" on="1"/>
        <pt x="662" y="238" on="1"/>
        <pt x="641" y="238" on="0"/>
        <pt x="630" y="229" on="0"/>
      </contour>
      <contour>
        <pt x="913" y="209" on="1"/>
        <pt x="913" y="102" on="1"/>
        <pt x="935" y="102" on="1"/>
        <pt x="956" y="102" on="0"/>
        <pt x="967" y="111" on="0"/>
        <pt x="967" y="131" on="1"/>
        <pt x="967" y="238" on="1"/>
        <pt x="945" y="238" on="1"/>
        <pt x="924" y="238" on="0"/>
        <pt x="913" y="229" on="0"/>
      </contour>
      <contour>
        <pt x="178" y="494" on="1"/>
        <pt x="178" y="387" on="1"/>
        <pt x="200" y="387" on="1"/>
        <pt x="221" y="387" on="0"/>
        <pt x="232" y="396" on="0"/>
        <pt x="232" y="416" on="1"/>
        <pt x="232" y="523" on="1"/>
        <pt x="210" y="523" on="1"/>
        <pt x="189" y="523" on="0"/>
        <pt x="178" y="514" on="0"/>
      </contour>
    </TTGlyph>
    <TTGlyph name="pi" xMin="55" yMin="-11" xMax="630" yMax="536">
      <contour>
        <pt x="55" y="500" on="1"/>
        <pt x="477" y="500" on="1"/>
        <pt x="481" y="517" on="0"/>
        <pt x="483" y="536" on="1"/>
        <pt x="630" y="529" on="1"/>
        <pt x="630" y="416" on="0"/>
        <pt x="612" y="384" on="1"/>
        <pt x="591" y="350" on="0"/>
        <pt x="552" y="350" on="1"/>
        <pt x="552" y="143" on="1"/>
        <pt x="584" y="137" on="0"/>
        <pt x="601" y="136" on="1"/>
        <pt x="592" y="-11" on="1"/>
        <pt x="464" y="-11" on="0"/>
        <pt x="423" y="4" on="1"/>
        <pt x="372" y="23" on="0"/>
        <pt x="360" y="52" on="1"/>
        <pt x="352" y="70" on="0"/>
        <pt x="352" y="94" on="1"/>
        <pt x="352" y="350" on="1"/>
        <pt x="345" y="350" on="1"/>
        <pt x="297" y="348" on="0"/>
        <pt x="291" y="312" on="1"/>
        <pt x="235" y="0" on="1"/>
        <pt x="83" y="0" on="1"/>
        <pt x="108" y="366" on="1"/>
        <pt x="55" y="378" on="1"/>
      </contour>
    </TTGlyph>
    <TTGlyph name="plus" xMin="72" yMin="84" xMax="527" yMax="539">
      <contour>
        <pt x="72" y="240" on="1"/>
        <pt x="72" y="384" on="1"/>
        <pt x="227" y="384" on="1"/>
        <pt x="227" y="539" on="1"/>
        <pt x="371" y="539" on="1"/>
        <pt x="371" y="384" on="1"/>
        <pt x="527" y="384" on="1"/>
        <pt x="527" y="240" on="1"/>
        <pt x="371" y="240" on="1"/>
        <pt x="371" y="84" on="1"/>
        <pt x="227" y="84" on="1"/>
        <pt x="227" y="240" on="1"/>
      </contour>
    </TTGlyph>
    <TTGlyph name="plusminus" xMin="72" yMin="0" xMax="527" yMax="640">
      <contour>
        <pt x="72" y="341" on="1"/>
        <pt x="72" y="485" on="1"/>
        <pt x="227" y="485" on="1"/>
        <pt x="227" y="640" on="1"/>
        <pt x="371" y="640" on="1"/>
        <pt x="371" y="485" on="1"/>
        <pt x="527" y="485" on="1"/>
        <pt x="527" y="341" on="1"/>
        <pt x="371" y="341" on="1"/>
        <pt x="371" y="185" on="1"/>
        <pt x="227" y="185" on="1"/>
        <pt x="227" y="341" on="1"/>
      </contour>
      <contour>
        <pt x="72" y="0" on="1"/>
        <pt x="72" y="144" on="1"/>
        <pt x="527" y="144" on="1"/>
        <pt x="527" y="0" on="1"/>
      </contour>
    </TTGlyph>
    <TTGlyph name="product" xMin="53" yMin="-150" xMax="752" yMax="661">
      <contour>
        <pt x="53" y="625" on="1"/>
        <pt x="599" y="625" on="1"/>
        <pt x="603" y="642" on="0"/>
        <pt x="605" y="661" on="1"/>
        <pt x="752" y="654" on="1"/>
        <pt x="752" y="541" on="0"/>
        <pt x="734" y="510" on="1"/>
        <pt x="713" y="475" on="0"/>
        <pt x="674" y="475" on="1"/>
        <pt x="674" y="-150" on="1"/>
        <pt x="474" y="-150" on="1"/>
        <pt x="474" y="475" on="1"/>
        <pt x="410" y="475" on="1"/>
        <pt x="380" y="474" on="0"/>
        <pt x="351" y="454" on="0"/>
        <pt x="349" y="425" on="1"/>
        <pt x="300" y="-150" on="1"/>
        <pt x="123" y="-150" on="1"/>
        <pt x="140" y="484" on="1"/>
        <pt x="53" y="503" on="1"/>
      </contour>
    </TTGlyph>
    <TTGlyph name="q" xMin="30" yMin="-165" xMax="545" yMax="515">
      <contour>
        <pt x="445" y="500" on="1"/>
        <pt x="545" y="500" on="1"/>
        <pt x="545" y="-151" on="1"/>
        <pt x="345" y="-165" on="1"/>
        <pt x="345" y="0" on="1"/>
        <pt x="306" y="-15" on="0"/>
        <pt x="184" y="-15" on="0"/>
        <pt x="96" y="32" on="0"/>
        <pt x="73" y="72" on="1"/>
        <pt x="30" y="148" on="0"/>
        <pt x="30" y="371" on="0"/>
        <pt x="143" y="515" on="0"/>
        <pt x="265" y="515" on="1"/>
        <pt x="352" y="515" on="0"/>
        <pt x="417" y="472" on="1"/>
      </contour>
      <contour>
        <pt x="245" y="327" on="1"/>
        <pt x="245" y="131" on="1"/>
        <pt x="276" y="131" on="1"/>
        <pt x="312" y="131" on="0"/>
        <pt x="345" y="146" on="0"/>
        <pt x="345" y="173" on="1"/>
        <pt x="345" y="369" on="1"/>
        <pt x="314" y="369" on="1"/>
        <pt x="278" y="369" on="0"/>
        <pt x="245" y="354" on="0"/>
      </contour>
    </TTGlyph>
    <TTGlyph name="question" xMin="40" yMin="-7" xMax="488" yMax="640">
      <contour>
        <pt x="318" y="302" on="1"/>
        <pt x="301" y="175" on="1"/>
        <pt x="131" y="175" on="1"/>
        <pt x="116" y="363" on="1"/>
        <pt x="116" y="381" on="0"/>
        <pt x="140" y="402" on="0"/>
        <pt x="181" y="416" on="1"/>
        <pt x="288" y="453" on="1"/>
        <pt x="288" y="487" on="1"/>
        <pt x="262" y="489" on="0"/>
        <pt x="195" y="489" on="0"/>
        <pt x="85" y="476" on="0"/>
        <pt x="64" y="469" on="1"/>
        <pt x="40" y="612" on="1"/>
        <pt x="149" y="640" on="0"/>
        <pt x="248" y="640" on="1"/>
        <pt x="394" y="640" on="0"/>
        <pt x="442" y="600" on="1"/>
        <pt x="488" y="563" on="0"/>
        <pt x="488" y="407" on="0"/>
        <pt x="411" y="334" on="0"/>
      </contour>
      <contour>
        <pt x="105" y="27" on="0"/>
        <pt x="105" y="113" on="0"/>
        <pt x="151" y="149" on="0"/>
        <pt x="283" y="149" on="0"/>
        <pt x="328" y="113" on="0"/>
        <pt x="328" y="27" on="0"/>
        <pt x="283" y="-7" on="0"/>
        <pt x="150" y="-7" on="0"/>
      </contour>
    </TTGlyph>
    <TTGlyph name="questiondown" xMin="40" yMin="-15" xMax="488" yMax="632">
      <contour>
        <pt x="210" y="323" on="1"/>
        <pt x="227" y="450" on="1"/>
        <pt x="397" y="450" on="1"/>
        <pt x="412" y="262" on="1"/>
        <pt x="412" y="244" on="0"/>
        <pt x="388" y="223" on="0"/>
        <pt x="347" y="209" on="1"/>
        <pt x="240" y="172" on="1"/>
        <pt x="240" y="138" on="1"/>
        <pt x="266" y="136" on="0"/>
        <pt x="333" y="136" on="0"/>
        <pt x="443" y="149" on="0"/>
        <pt x="464" y="156" on="1"/>
        <pt x="488" y="13" on="1"/>
        <pt x="379" y="-15" on="0"/>
        <pt x="280" y="-15" on="1"/>
        <pt x="134" y="-15" on="0"/>
        <pt x="86" y="24" on="1"/>
        <pt x="40" y="62" on="0"/>
        <pt x="40" y="218" on="0"/>
        <pt x="117" y="291" on="0"/>
      </contour>
      <contour>
        <pt x="423" y="598" on="0"/>
        <pt x="423" y="512" on="0"/>
        <pt x="377" y="476" on="0"/>
        <pt x="245" y="476" on="0"/>
        <pt x="200" y="512" on="0"/>
        <pt x="200" y="598" on="0"/>
        <pt x="245" y="632" on="0"/>
        <pt x="378" y="632" on="0"/>
      </contour>
    </TTGlyph>
    <TTGlyph name="quotedbl" xMin="25" yMin="300" xMax="475" yMax="650">
      <contour>
        <pt x="175" y="300" on="1"/>
        <pt x="75" y="300" on="1"/>
        <pt x="25" y="561" on="0"/>
        <pt x="25" y="565" on="1"/>
        <pt x="25" y="623" on="1"/>
        <pt x="25" y="650" on="0"/>
        <pt x="62" y="650" on="1"/>
        <pt x="188" y="650" on="1"/>
        <pt x="225" y="650" on="0"/>
        <pt x="225" y="623" on="1"/>
        <pt x="225" y="565" on="1"/>
        <pt x="225" y="561" on="0"/>
      </contour>
      <contour>
        <pt x="425" y="300" on="1"/>
        <pt x="325" y="300" on="1"/>
        <pt x="275" y="561" on="0"/>
        <pt x="275" y="565" on="1"/>
        <pt x="275" y="623" on="1"/>
        <pt x="275" y="650" on="0"/>
        <pt x="312" y="650" on="1"/>
        <pt x="438" y="650" on="1"/>
        <pt x="475" y="650" on="0"/>
        <pt x="475" y="623" on="1"/>
        <pt x="475" y="565" on="1"/>
        <pt x="475" y="561" on="0"/>
      </contour>
    </TTGlyph>
    <TTGlyph name="quotedblbase" xMin="41" yMin="-149" xMax="508" yMax="208">
      <contour>
        <pt x="66" y="30" on="0"/>
        <pt x="41" y="65" on="0"/>
        <pt x="41" y="160" on="0"/>
        <pt x="85" y="208" on="0"/>
        <pt x="214" y="208" on="0"/>
        <pt x="258" y="160" on="0"/>
        <pt x="258" y="101" on="1"/>
        <pt x="258" y="89" on="1"/>
        <pt x="255" y="45" on="0"/>
        <pt x="233" y="2" on="1"/>
        <pt x="226" y="-11" on="0"/>
        <pt x="225" y="-13" on="1"/>
        <pt x="157" y="-149" on="1"/>
        <pt x="68" y="-120" on="1"/>
        <pt x="101" y="24" on="1"/>
      </contour>
      <contour>
        <pt x="316" y="30" on="0"/>
        <pt x="291" y="65" on="0"/>
        <pt x="291" y="160" on="0"/>
        <pt x="335" y="208" on="0"/>
        <pt x="464" y="208" on="0"/>
        <pt x="508" y="160" on="0"/>
        <pt x="508" y="101" on="1"/>
        <pt x="508" y="91" on="1"/>
        <pt x="505" y="52" on="0"/>
        <pt x="498" y="33" on="1"/>
        <pt x="484" y="0" on="0"/>
        <pt x="475" y="-13" on="1"/>
        <pt x="407" y="-149" on="1"/>
        <pt x="318" y="-120" on="1"/>
        <pt x="351" y="24" on="1"/>
      </contour>
    </TTGlyph>
    <TTGlyph name="quotedblleft" xMin="17" yMin="313" xMax="484" yMax="670">
      <contour>
        <pt x="267" y="420" on="1"/>
        <pt x="267" y="432" on="1"/>
        <pt x="269" y="469" on="0"/>
        <pt x="285" y="506" on="0"/>
        <pt x="298" y="530" on="0"/>
        <pt x="300" y="534" on="1"/>
        <pt x="368" y="670" on="1"/>
        <pt x="457" y="641" on="1"/>
        <pt x="424" y="496" on="1"/>
        <pt x="458" y="490" on="0"/>
        <pt x="484" y="455" on="0"/>
        <pt x="484" y="361" on="0"/>
        <pt x="440" y="313" on="0"/>
        <pt x="311" y="313" on="0"/>
        <pt x="267" y="361" on="0"/>
      </contour>
      <contour>
        <pt x="208" y="490" on="0"/>
        <pt x="234" y="455" on="0"/>
        <pt x="234" y="361" on="0"/>
        <pt x="190" y="313" on="0"/>
        <pt x="61" y="313" on="0"/>
        <pt x="17" y="361" on="0"/>
        <pt x="17" y="420" on="1"/>
        <pt x="17" y="432" on="1"/>
        <pt x="19" y="469" on="0"/>
        <pt x="35" y="506" on="0"/>
        <pt x="48" y="530" on="0"/>
        <pt x="50" y="534" on="1"/>
        <pt x="118" y="670" on="1"/>
        <pt x="207" y="641" on="1"/>
        <pt x="174" y="496" on="1"/>
      </contour>
    </TTGlyph>
    <TTGlyph name="quotedblright" xMin="41" yMin="301" xMax="508" yMax="658">
      <contour>
        <pt x="66" y="480" on="0"/>
        <pt x="41" y="515" on="0"/>
        <pt x="41" y="610" on="0"/>
        <pt x="85" y="658" on="0"/>
        <pt x="214" y="658" on="0"/>
        <pt x="258" y="610" on="0"/>
        <pt x="258" y="551" on="1"/>
        <pt x="258" y="539" on="1"/>
        <pt x="255" y="495" on="0"/>
        <pt x="233" y="452" on="1"/>
        <pt x="226" y="439" on="0"/>
        <pt x="225" y="437" on="1"/>
        <pt x="157" y="301" on="1"/>
        <pt x="68" y="330" on="1"/>
        <pt x="101" y="474" on="1"/>
      </contour>
      <contour>
        <pt x="316" y="480" on="0"/>
        <pt x="291" y="515" on="0"/>
        <pt x="291" y="610" on="0"/>
        <pt x="335" y="658" on="0"/>
        <pt x="464" y="658" on="0"/>
        <pt x="508" y="610" on="0"/>
        <pt x="508" y="551" on="1"/>
        <pt x="508" y="541" on="1"/>
        <pt x="505" y="502" on="0"/>
        <pt x="498" y="483" on="1"/>
        <pt x="484" y="450" on="0"/>
        <pt x="475" y="437" on="1"/>
        <pt x="407" y="301" on="1"/>
        <pt x="318" y="330" on="1"/>
        <pt x="351" y="474" on="1"/>
      </contour>
    </TTGlyph>
    <TTGlyph name="quoteleft" xMin="17" yMin="313" xMax="234" yMax="670">
      <contour>
        <pt x="208" y="490" on="0"/>
        <pt x="234" y="455" on="0"/>
        <pt x="234" y="361" on="0"/>
        <pt x="190" y="313" on="0"/>
        <pt x="61" y="313" on="0"/>
        <pt x="17" y="361" on="0"/>
        <pt x="17" y="420" on="1"/>
        <pt x="17" y="432" on="1"/>
        <pt x="19" y="469" on="0"/>
        <pt x="35" y="506" on="0"/>
        <pt x="48" y="530" on="0"/>
        <pt x="50" y="534" on="1"/>
        <pt x="118" y="670" on="1"/>
        <pt x="207" y="641" on="1"/>
        <pt x="174" y="496" on="1"/>
      </contour>
    </TTGlyph>
    <TTGlyph name="quoteright" xMin="41" yMin="301" xMax="258" yMax="658">
      <contour>
        <pt x="258" y="551" on="1"/>
        <pt x="258" y="539" on="1"/>
        <pt x="255" y="495" on="0"/>
        <pt x="233" y="452" on="1"/>
        <pt x="226" y="439" on="0"/>
        <pt x="225" y="437" on="1"/>
        <pt x="157" y="301" on="1"/>
        <pt x="68" y="330" on="1"/>
        <pt x="101" y="474" on="1"/>
        <pt x="66" y="480" on="0"/>
        <pt x="41" y="515" on="0"/>
        <pt x="41" y="610" on="0"/>
        <pt x="85" y="658" on="0"/>
        <pt x="214" y="658" on="0"/>
        <pt x="258" y="610" on="0"/>
      </contour>
    </TTGlyph>
    <TTGlyph name="quotesinglbase" xMin="41" yMin="-149" xMax="258" yMax="208">
      <contour>
        <pt x="258" y="101" on="1"/>
        <pt x="258" y="89" on="1"/>
        <pt x="255" y="45" on="0"/>
        <pt x="233" y="2" on="1"/>
        <pt x="226" y="-11" on="0"/>
        <pt x="225" y="-13" on="1"/>
        <pt x="157" y="-149" on="1"/>
        <pt x="68" y="-120" on="1"/>
        <pt x="101" y="24" on="1"/>
        <pt x="66" y="30" on="0"/>
        <pt x="41" y="65" on="0"/>
        <pt x="41" y="160" on="0"/>
        <pt x="85" y="208" on="0"/>
        <pt x="214" y="208" on="0"/>
        <pt x="258" y="160" on="0"/>
      </contour>
    </TTGlyph>
    <TTGlyph name="quotesingle" xMin="25" yMin="300" xMax="225" yMax="650">
      <contour>
        <pt x="175" y="300" on="1"/>
        <pt x="75" y="300" on="1"/>
        <pt x="25" y="561" on="0"/>
        <pt x="25" y="565" on="1"/>
        <pt x="25" y="623" on="1"/>
        <pt x="25" y="650" on="0"/>
        <pt x="62" y="650" on="1"/>
        <pt x="188" y="650" on="1"/>
        <pt x="225" y="650" on="0"/>
        <pt x="225" y="623" on="1"/>
        <pt x="225" y="565" on="1"/>
        <pt x="225" y="561" on="0"/>
      </contour>
    </TTGlyph>
    <TTGlyph name="r" xMin="50" yMin="0" xMax="365" yMax="515">
      <contour>
        <pt x="50" y="500" on="1"/>
        <pt x="150" y="500" on="1"/>
        <pt x="205" y="444" on="1"/>
        <pt x="264" y="498" on="0"/>
        <pt x="353" y="515" on="1"/>
        <pt x="365" y="326" on="1"/>
        <pt x="341" y="325" on="0"/>
        <pt x="264" y="303" on="0"/>
        <pt x="250" y="286" on="1"/>
        <pt x="250" y="0" on="1"/>
        <pt x="50" y="0" on="1"/>
      </contour>
    </TTGlyph>
    <TTGlyph name="radical" xMin="0" yMin="0" xMax="607" yMax="650">
      <contour>
        <pt x="514" y="552" on="1"/>
        <pt x="375" y="0" on="1"/>
        <pt x="162" y="0" on="1"/>
        <pt x="0" y="500" on="1"/>
        <pt x="207" y="500" on="1"/>
        <pt x="298" y="180" on="1"/>
        <pt x="308" y="180" on="1"/>
        <pt x="410" y="650" on="1"/>
        <pt x="607" y="650" on="1"/>
        <pt x="594" y="552" on="1"/>
      </contour>
    </TTGlyph>
    <TTGlyph name="registered" xMin="30" yMin="179" xMax="533" yMax="682">
      <contour>
        <pt x="30" y="304" on="0"/>
        <pt x="30" y="558" on="0"/>
        <pt x="149" y="682" on="0"/>
        <pt x="414" y="682" on="0"/>
        <pt x="533" y="558" on="0"/>
        <pt x="533" y="304" on="0"/>
        <pt x="414" y="179" on="0"/>
        <pt x="149" y="179" on="0"/>
      </contour>
      <contour>
        <pt x="80" y="546" on="0"/>
        <pt x="80" y="316" on="0"/>
        <pt x="172" y="225" on="0"/>
        <pt x="392" y="225" on="0"/>
        <pt x="483" y="316" on="0"/>
        <pt x="483" y="546" on="0"/>
        <pt x="392" y="636" on="0"/>
        <pt x="172" y="636" on="0"/>
      </contour>
      <contour>
        <pt x="425" y="281" on="1"/>
        <pt x="313" y="281" on="1"/>
        <pt x="274" y="368" on="1"/>
        <pt x="262" y="368" on="1"/>
        <pt x="262" y="281" on="1"/>
        <pt x="160" y="281" on="1"/>
        <pt x="160" y="581" on="1"/>
        <pt x="311" y="581" on="1"/>
        <pt x="416" y="581" on="0"/>
        <pt x="416" y="475" on="1"/>
        <pt x="416" y="405" on="0"/>
        <pt x="373" y="380" on="1"/>
      </contour>
      <contour>
        <pt x="262" y="498" on="1"/>
        <pt x="262" y="448" on="1"/>
        <pt x="279" y="448" on="1"/>
        <pt x="307" y="448" on="0"/>
        <pt x="307" y="463" on="1"/>
        <pt x="307" y="483" on="1"/>
        <pt x="307" y="498" on="0"/>
        <pt x="279" y="498" on="1"/>
      </contour>
    </TTGlyph>
    <TTGlyph name="ring" xMin="17" yMin="527" xMax="248" yMax="758">
      <contour>
        <pt x="71" y="527" on="0"/>
        <pt x="17" y="584" on="0"/>
        <pt x="17" y="701" on="0"/>
        <pt x="71" y="758" on="0"/>
        <pt x="194" y="758" on="0"/>
        <pt x="248" y="701" on="0"/>
        <pt x="248" y="584" on="0"/>
        <pt x="194" y="527" on="0"/>
      </contour>
      <contour>
        <pt x="90" y="664" on="1"/>
        <pt x="90" y="596" on="1"/>
        <pt x="132" y="596" on="1"/>
        <pt x="147" y="596" on="0"/>
        <pt x="154" y="597" on="1"/>
        <pt x="174" y="600" on="0"/>
        <pt x="174" y="622" on="1"/>
        <pt x="174" y="689" on="1"/>
        <pt x="135" y="689" on="1"/>
        <pt x="105" y="689" on="0"/>
        <pt x="90" y="675" on="0"/>
      </contour>
    </TTGlyph>
    <TTGlyph name="s" xMin="25" yMin="-15" xMax="506" yMax="515">
      <contour>
        <pt x="162" y="515" on="0"/>
        <pt x="386" y="515" on="0"/>
        <pt x="480" y="484" on="1"/>
        <pt x="457" y="348" on="1"/>
        <pt x="379" y="370" on="0"/>
        <pt x="301" y="370" on="1"/>
        <pt x="277" y="370" on="0"/>
        <pt x="233" y="366" on="1"/>
        <pt x="233" y="334" on="1"/>
        <pt x="395" y="334" on="0"/>
        <pt x="453" y="286" on="1"/>
        <pt x="482" y="262" on="0"/>
        <pt x="506" y="205" on="0"/>
        <pt x="506" y="124" on="0"/>
        <pt x="487" y="60" on="0"/>
        <pt x="448" y="22" on="0"/>
        <pt x="406" y="-2" on="0"/>
        <pt x="372" y="-7" on="1"/>
        <pt x="319" y="-15" on="0"/>
        <pt x="249" y="-15" on="1"/>
        <pt x="125" y="-15" on="0"/>
        <pt x="25" y="14" on="1"/>
        <pt x="50" y="156" on="1"/>
        <pt x="134" y="130" on="0"/>
        <pt x="232" y="130" on="1"/>
        <pt x="277" y="130" on="0"/>
        <pt x="314" y="134" on="1"/>
        <pt x="314" y="166" on="1"/>
        <pt x="154" y="166" on="0"/>
        <pt x="33" y="250" on="0"/>
        <pt x="33" y="445" on="0"/>
      </contour>
    </TTGlyph>
    <TTGlyph name="scaron" xMin="25" yMin="-15" xMax="506" yMax="740">
      <component glyphName="s" x="0" y="0" flags="0x1004"/>
      <component glyphName="caron" x="73" y="0" flags="0x1004"/>
    </TTGlyph>
    <TTGlyph name="section" xMin="50" yMin="-121" xMax="538" yMax="618">
      <contour>
        <pt x="280" y="216" on="1"/>
        <pt x="360" y="216" on="1"/>
        <pt x="360" y="242" on="1"/>
        <pt x="360" y="265" on="0"/>
        <pt x="349" y="277" on="0"/>
        <pt x="326" y="277" on="1"/>
        <pt x="246" y="277" on="1"/>
        <pt x="246" y="252" on="1"/>
        <pt x="246" y="229" on="0"/>
        <pt x="257" y="216" on="0"/>
      </contour>
      <contour>
        <pt x="50" y="-91" on="1"/>
        <pt x="72" y="31" on="1"/>
        <pt x="340" y="31" on="1"/>
        <pt x="340" y="65" on="1"/>
        <pt x="132" y="65" on="0"/>
        <pt x="82" y="138" on="1"/>
        <pt x="59" y="173" on="0"/>
        <pt x="59" y="299" on="0"/>
        <pt x="82" y="342" on="1"/>
        <pt x="59" y="375" on="0"/>
        <pt x="59" y="485" on="0"/>
        <pt x="86" y="556" on="0"/>
        <pt x="125" y="594" on="0"/>
        <pt x="196" y="614" on="0"/>
        <pt x="254" y="618" on="0"/>
        <pt x="302" y="618" on="1"/>
        <pt x="418" y="618" on="0"/>
        <pt x="514" y="593" on="1"/>
        <pt x="492" y="466" on="1"/>
        <pt x="265" y="466" on="1"/>
        <pt x="265" y="432" on="1"/>
        <pt x="427" y="432" on="0"/>
        <pt x="485" y="386" on="1"/>
        <pt x="514" y="363" on="0"/>
        <pt x="538" y="306" on="0"/>
        <pt x="538" y="198" on="0"/>
        <pt x="513" y="155" on="1"/>
        <pt x="538" y="119" on="0"/>
        <pt x="538" y="26" on="0"/>
        <pt x="522" y="-32" on="0"/>
        <pt x="498" y="-71" on="0"/>
        <pt x="455" y="-98" on="0"/>
        <pt x="417" y="-112" on="0"/>
        <pt x="386" y="-116" on="1"/>
        <pt x="339" y="-121" on="0"/>
        <pt x="278" y="-121" on="1"/>
        <pt x="153" y="-121" on="0"/>
      </contour>
    </TTGlyph>
    <TTGlyph name="semicolon" xMin="30" yMin="-151" xMax="247" yMax="506">
      <contour>
        <pt x="247" y="99" on="1"/>
        <pt x="247" y="87" on="1"/>
        <pt x="244" y="43" on="0"/>
        <pt x="222" y="0" on="1"/>
        <pt x="215" y="-13" on="0"/>
        <pt x="214" y="-15" on="1"/>
        <pt x="146" y="-151" on="1"/>
        <pt x="57" y="-122" on="1"/>
        <pt x="90" y="22" on="1"/>
        <pt x="55" y="28" on="0"/>
        <pt x="30" y="63" on="0"/>
        <pt x="30" y="158" on="0"/>
        <pt x="74" y="206" on="0"/>
        <pt x="203" y="206" on="0"/>
        <pt x="247" y="158" on="0"/>
      </contour>
      <contour>
        <pt x="30" y="340" on="0"/>
        <pt x="30" y="458" on="0"/>
        <pt x="74" y="506" on="0"/>
        <pt x="203" y="506" on="0"/>
        <pt x="247" y="458" on="0"/>
        <pt x="247" y="340" on="0"/>
        <pt x="203" y="294" on="0"/>
        <pt x="74" y="294" on="0"/>
      </contour>
    </TTGlyph>
    <TTGlyph name="seven" xMin="59" yMin="0" xMax="554" yMax="625">
      <contour>
        <pt x="554" y="500" on="1"/>
        <pt x="361" y="0" on="1"/>
        <pt x="135" y="0" on="1"/>
        <pt x="314" y="451" on="1"/>
        <pt x="74" y="448" on="1"/>
        <pt x="59" y="625" on="1"/>
        <pt x="554" y="625" on="1"/>
      </contour>
    </TTGlyph>
    <TTGlyph name="six" xMin="35" yMin="-15" xMax="565" yMax="640">
      <contour>
        <pt x="350" y="178" on="1"/>
        <pt x="350" y="257" on="1"/>
        <pt x="309" y="257" on="1"/>
        <pt x="276" y="257" on="0"/>
        <pt x="250" y="242" on="0"/>
        <pt x="250" y="215" on="1"/>
        <pt x="250" y="136" on="1"/>
        <pt x="291" y="136" on="1"/>
        <pt x="324" y="136" on="0"/>
        <pt x="350" y="151" on="0"/>
      </contour>
      <contour>
        <pt x="565" y="266" on="0"/>
        <pt x="565" y="134" on="0"/>
        <pt x="525" y="45" on="0"/>
        <pt x="447" y="1" on="0"/>
        <pt x="360" y="-15" on="0"/>
        <pt x="300" y="-15" on="1"/>
        <pt x="149" y="-15" on="0"/>
        <pt x="35" y="141" on="0"/>
        <pt x="35" y="312" on="1"/>
        <pt x="35" y="399" on="0"/>
        <pt x="61" y="513" on="0"/>
        <pt x="95" y="556" on="1"/>
        <pt x="160" y="640" on="0"/>
        <pt x="349" y="640" on="1"/>
        <pt x="387" y="640" on="0"/>
        <pt x="512" y="623" on="0"/>
        <pt x="542" y="614" on="1"/>
        <pt x="512" y="461" on="1"/>
        <pt x="431" y="475" on="0"/>
        <pt x="284" y="475" on="0"/>
        <pt x="250" y="466" on="1"/>
        <pt x="250" y="415" on="1"/>
        <pt x="300" y="415" on="1"/>
        <pt x="360" y="415" on="0"/>
        <pt x="447" y="399" on="0"/>
        <pt x="525" y="355" on="0"/>
      </contour>
    </TTGlyph>
    <TTGlyph name="slash" xMin="0" yMin="-40" xMax="503" yMax="665">
      <contour>
        <pt x="503" y="665" on="1"/>
        <pt x="114" y="-15" on="1"/>
        <pt x="109" y="-25" on="0"/>
        <pt x="105" y="-29" on="1"/>
        <pt x="94" y="-40" on="0"/>
        <pt x="71" y="-40" on="1"/>
        <pt x="0" y="-40" on="1"/>
        <pt x="389" y="640" on="1"/>
        <pt x="394" y="650" on="0"/>
        <pt x="398" y="654" on="1"/>
        <pt x="409" y="665" on="0"/>
        <pt x="432" y="665" on="1"/>
      </contour>
    </TTGlyph>
    <TTGlyph name="sterling" xMin="40" yMin="0" xMax="546" yMax="641">
      <contour>
        <pt x="460" y="262" on="1"/>
        <pt x="308" y="262" on="1"/>
        <pt x="299" y="160" on="1"/>
        <pt x="521" y="160" on="1"/>
        <pt x="546" y="0" on="1"/>
        <pt x="40" y="0" on="1"/>
        <pt x="40" y="100" on="1"/>
        <pt x="90" y="135" on="1"/>
        <pt x="104" y="262" on="1"/>
        <pt x="40" y="262" on="1"/>
        <pt x="40" y="369" on="1"/>
        <pt x="116" y="369" on="1"/>
        <pt x="124" y="443" on="1"/>
        <pt x="134" y="540" on="0"/>
        <pt x="245" y="641" on="0"/>
        <pt x="440" y="641" on="0"/>
        <pt x="525" y="622" on="1"/>
        <pt x="495" y="477" on="1"/>
        <pt x="397" y="477" on="1"/>
        <pt x="363" y="477" on="0"/>
        <pt x="327" y="459" on="0"/>
        <pt x="324" y="428" on="1"/>
        <pt x="318" y="369" on="1"/>
        <pt x="470" y="369" on="1"/>
      </contour>
    </TTGlyph>
    <TTGlyph name="summation" xMin="43" yMin="-150" xMax="598" yMax="625">
      <contour>
        <pt x="598" y="0" on="1"/>
        <pt x="576" y="-150" on="1"/>
        <pt x="62" y="-150" on="1"/>
        <pt x="43" y="-98" on="1"/>
        <pt x="254" y="211" on="1"/>
        <pt x="72" y="573" on="1"/>
        <pt x="91" y="625" on="1"/>
        <pt x="598" y="625" on="1"/>
        <pt x="580" y="500" on="1"/>
        <pt x="396" y="475" on="1"/>
        <pt x="352" y="469" on="0"/>
        <pt x="352" y="448" on="1"/>
        <pt x="352" y="438" on="0"/>
        <pt x="358" y="425" on="1"/>
        <pt x="453" y="247" on="1"/>
        <pt x="286" y="14" on="1"/>
        <pt x="294" y="0" on="1"/>
      </contour>
    </TTGlyph>
    <TTGlyph name="t" xMin="20" yMin="-11" xMax="339" yMax="630">
      <contour>
        <pt x="20" y="371" on="1"/>
        <pt x="20" y="500" on="1"/>
        <pt x="70" y="500" on="1"/>
        <pt x="70" y="580" on="1"/>
        <pt x="270" y="630" on="1"/>
        <pt x="270" y="500" on="1"/>
        <pt x="339" y="500" on="1"/>
        <pt x="339" y="371" on="1"/>
        <pt x="270" y="371" on="1"/>
        <pt x="270" y="143" on="1"/>
        <pt x="296" y="138" on="0"/>
        <pt x="329" y="136" on="1"/>
        <pt x="320" y="-11" on="1"/>
        <pt x="183" y="-11" on="0"/>
        <pt x="142" y="4" on="1"/>
        <pt x="91" y="22" on="0"/>
        <pt x="78" y="52" on="1"/>
        <pt x="70" y="70" on="0"/>
        <pt x="70" y="94" on="1"/>
        <pt x="70" y="371" on="1"/>
      </contour>
    </TTGlyph>
    <TTGlyph name="thorn" xMin="-47" yMin="-165" xMax="468" yMax="665">
      <contour>
        <pt x="-47" y="650" on="1"/>
        <pt x="153" y="665" on="1"/>
        <pt x="153" y="499" on="1"/>
        <pt x="191" y="515" on="0"/>
        <pt x="314" y="515" on="0"/>
        <pt x="402" y="469" on="0"/>
        <pt x="425" y="429" on="1"/>
        <pt x="468" y="354" on="0"/>
        <pt x="468" y="250" on="1"/>
        <pt x="468" y="109" on="0"/>
        <pt x="338" y="-15" on="0"/>
        <pt x="212" y="-15" on="1"/>
        <pt x="185" y="-15" on="0"/>
        <pt x="153" y="-13" on="1"/>
        <pt x="153" y="-150" on="1"/>
        <pt x="-47" y="-165" on="1"/>
      </contour>
      <contour>
        <pt x="153" y="332" on="1"/>
        <pt x="153" y="131" on="1"/>
        <pt x="184" y="131" on="1"/>
        <pt x="220" y="131" on="0"/>
        <pt x="253" y="146" on="0"/>
        <pt x="253" y="173" on="1"/>
        <pt x="253" y="369" on="1"/>
        <pt x="222" y="369" on="1"/>
        <pt x="200" y="369" on="0"/>
        <pt x="174" y="365" on="0"/>
        <pt x="154" y="348" on="0"/>
      </contour>
    </TTGlyph>
    <TTGlyph name="three" xMin="47" yMin="-15" xMax="564" yMax="640">
      <contour>
        <pt x="349" y="405" on="1"/>
        <pt x="349" y="470" on="1"/>
        <pt x="319" y="475" on="0"/>
        <pt x="185" y="475" on="0"/>
        <pt x="85" y="454" on="1"/>
        <pt x="59" y="602" on="1"/>
        <pt x="181" y="640" on="0"/>
        <pt x="295" y="640" on="1"/>
        <pt x="393" y="640" on="0"/>
        <pt x="481" y="616" on="0"/>
        <pt x="502" y="599" on="1"/>
        <pt x="548" y="560" on="0"/>
        <pt x="548" y="481" on="1"/>
        <pt x="548" y="381" on="0"/>
        <pt x="465" y="337" on="1"/>
        <pt x="465" y="332" on="1"/>
        <pt x="564" y="291" on="0"/>
        <pt x="564" y="183" on="1"/>
        <pt x="564" y="130" on="0"/>
        <pt x="531" y="55" on="0"/>
        <pt x="481" y="14" on="0"/>
        <pt x="440" y="2" on="1"/>
        <pt x="379" y="-15" on="0"/>
        <pt x="158" y="-15" on="0"/>
        <pt x="47" y="11" on="1"/>
        <pt x="75" y="176" on="1"/>
        <pt x="170" y="153" on="0"/>
        <pt x="302" y="153" on="0"/>
        <pt x="349" y="159" on="1"/>
        <pt x="349" y="223" on="1"/>
        <pt x="177" y="240" on="1"/>
        <pt x="177" y="385" on="1"/>
      </contour>
    </TTGlyph>
    <TTGlyph name="threequarters" xMin="53" yMin="-40" xMax="935" yMax="665">
      <contour>
        <pt x="762" y="0" on="1"/>
        <pt x="762" y="60" on="1"/>
        <pt x="578" y="60" on="1"/>
        <pt x="578" y="144" on="1"/>
        <pt x="672" y="389" on="1"/>
        <pt x="896" y="389" on="1"/>
        <pt x="896" y="172" on="1"/>
        <pt x="935" y="172" on="1"/>
        <pt x="935" y="60" on="1"/>
        <pt x="896" y="60" on="1"/>
        <pt x="896" y="0" on="1"/>
      </contour>
      <contour>
        <pt x="762" y="172" on="1"/>
        <pt x="762" y="295" on="1"/>
        <pt x="754" y="295" on="1"/>
        <pt x="709" y="172" on="1"/>
      </contour>
      <contour>
        <pt x="235" y="478" on="1"/>
        <pt x="235" y="510" on="1"/>
        <pt x="207" y="512" on="0"/>
        <pt x="198" y="512" on="1"/>
        <pt x="139" y="512" on="0"/>
        <pt x="78" y="498" on="1"/>
        <pt x="59" y="608" on="1"/>
        <pt x="128" y="625" on="0"/>
        <pt x="249" y="625" on="0"/>
        <pt x="299" y="618" on="0"/>
        <pt x="322" y="608" on="1"/>
        <pt x="369" y="588" on="0"/>
        <pt x="369" y="464" on="0"/>
        <pt x="327" y="434" on="1"/>
        <pt x="378" y="408" on="0"/>
        <pt x="378" y="344" on="1"/>
        <pt x="378" y="250" on="0"/>
        <pt x="302" y="229" on="1"/>
        <pt x="261" y="218" on="0"/>
        <pt x="122" y="218" on="0"/>
        <pt x="53" y="235" on="1"/>
        <pt x="72" y="349" on="1"/>
        <pt x="139" y="333" on="0"/>
        <pt x="218" y="333" on="0"/>
        <pt x="235" y="335" on="1"/>
        <pt x="235" y="366" on="1"/>
        <pt x="132" y="377" on="1"/>
        <pt x="132" y="466" on="1"/>
      </contour>
      <contour>
        <pt x="670" y="665" on="1"/>
        <pt x="401" y="-15" on="1"/>
        <pt x="396" y="-25" on="0"/>
        <pt x="392" y="-29" on="1"/>
        <pt x="381" y="-40" on="0"/>
        <pt x="358" y="-40" on="1"/>
        <pt x="307" y="-40" on="1"/>
        <pt x="576" y="640" on="1"/>
        <pt x="581" y="650" on="0"/>
        <pt x="585" y="654" on="1"/>
        <pt x="596" y="665" on="0"/>
        <pt x="619" y="665" on="1"/>
      </contour>
    </TTGlyph>
    <TTGlyph name="threesuperior" xMin="37" yMin="334" xMax="362" yMax="741">
      <contour>
        <pt x="219" y="594" on="1"/>
        <pt x="219" y="626" on="1"/>
        <pt x="191" y="628" on="0"/>
        <pt x="182" y="628" on="1"/>
        <pt x="123" y="628" on="0"/>
        <pt x="62" y="614" on="1"/>
        <pt x="43" y="724" on="1"/>
        <pt x="112" y="741" on="0"/>
        <pt x="233" y="741" on="0"/>
        <pt x="283" y="734" on="0"/>
        <pt x="306" y="724" on="1"/>
        <pt x="353" y="704" on="0"/>
        <pt x="353" y="580" on="0"/>
        <pt x="311" y="550" on="1"/>
        <pt x="362" y="524" on="0"/>
        <pt x="362" y="460" on="1"/>
        <pt x="362" y="366" on="0"/>
        <pt x="286" y="345" on="1"/>
        <pt x="245" y="334" on="0"/>
        <pt x="106" y="334" on="0"/>
        <pt x="37" y="351" on="1"/>
        <pt x="56" y="465" on="1"/>
        <pt x="123" y="449" on="0"/>
        <pt x="202" y="449" on="0"/>
        <pt x="219" y="451" on="1"/>
        <pt x="219" y="482" on="1"/>
        <pt x="116" y="493" on="1"/>
        <pt x="116" y="582" on="1"/>
      </contour>
    </TTGlyph>
    <TTGlyph name="tilde" xMin="36" yMin="543" xMax="422" yMax="721">
      <contour>
        <pt x="372" y="716" on="1"/>
        <pt x="422" y="635" on="1"/>
        <pt x="303" y="555" on="0"/>
        <pt x="274" y="543" on="0"/>
        <pt x="246" y="543" on="0"/>
        <pt x="229" y="547" on="0"/>
        <pt x="209" y="558" on="0"/>
        <pt x="198" y="566" on="0"/>
        <pt x="173" y="584" on="0"/>
        <pt x="168" y="588" on="1"/>
        <pt x="86" y="548" on="1"/>
        <pt x="36" y="629" on="1"/>
        <pt x="155" y="709" on="0"/>
        <pt x="184" y="721" on="0"/>
        <pt x="212" y="721" on="0"/>
        <pt x="229" y="717" on="0"/>
        <pt x="249" y="706" on="0"/>
        <pt x="260" y="698" on="0"/>
        <pt x="285" y="680" on="0"/>
        <pt x="290" y="676" on="1"/>
      </contour>
    </TTGlyph>
    <TTGlyph name="trademark" xMin="15" yMin="343" xMax="792" yMax="732">
      <contour>
        <pt x="461" y="343" on="1"/>
        <pt x="323" y="343" on="1"/>
        <pt x="348" y="732" on="1"/>
        <pt x="523" y="732" on="1"/>
        <pt x="554" y="584" on="1"/>
        <pt x="561" y="584" on="1"/>
        <pt x="592" y="732" on="1"/>
        <pt x="767" y="732" on="1"/>
        <pt x="792" y="343" on="1"/>
        <pt x="654" y="343" on="1"/>
        <pt x="646" y="491" on="1"/>
        <pt x="640" y="491" on="1"/>
        <pt x="605" y="343" on="1"/>
        <pt x="510" y="343" on="1"/>
        <pt x="474" y="491" on="1"/>
        <pt x="468" y="491" on="1"/>
      </contour>
      <contour>
        <pt x="326" y="617" on="1"/>
        <pt x="240" y="617" on="1"/>
        <pt x="240" y="343" on="1"/>
        <pt x="100" y="343" on="1"/>
        <pt x="100" y="617" on="1"/>
        <pt x="15" y="617" on="1"/>
        <pt x="15" y="732" on="1"/>
        <pt x="326" y="732" on="1"/>
      </contour>
    </TTGlyph>
    <TTGlyph name="two" xMin="35" yMin="0" xMax="558" yMax="640">
      <contour>
        <pt x="75" y="453" on="1"/>
        <pt x="49" y="602" on="1"/>
        <pt x="175" y="640" on="0"/>
        <pt x="300" y="640" on="1"/>
        <pt x="350" y="640" on="0"/>
        <pt x="417" y="634" on="0"/>
        <pt x="489" y="610" on="0"/>
        <pt x="510" y="589" on="1"/>
        <pt x="558" y="541" on="0"/>
        <pt x="558" y="343" on="0"/>
        <pt x="446" y="249" on="0"/>
        <pt x="266" y="188" on="1"/>
        <pt x="266" y="160" on="1"/>
        <pt x="548" y="160" on="1"/>
        <pt x="548" y="0" on="1"/>
        <pt x="35" y="0" on="1"/>
        <pt x="35" y="125" on="1"/>
        <pt x="35" y="181" on="0"/>
        <pt x="56" y="232" on="1"/>
        <pt x="69" y="261" on="0"/>
        <pt x="119" y="302" on="1"/>
        <pt x="146" y="325" on="0"/>
        <pt x="237" y="367" on="0"/>
        <pt x="318" y="404" on="0"/>
        <pt x="343" y="416" on="1"/>
        <pt x="343" y="470" on="1"/>
        <pt x="298" y="475" on="0"/>
        <pt x="260" y="475" on="1"/>
        <pt x="168" y="475" on="0"/>
      </contour>
    </TTGlyph>
    <TTGlyph name="twosuperior" xMin="36" yMin="343" xMax="364" yMax="741">
      <contour>
        <pt x="61" y="613" on="1"/>
        <pt x="42" y="724" on="1"/>
        <pt x="111" y="741" on="0"/>
        <pt x="242" y="741" on="0"/>
        <pt x="292" y="733" on="0"/>
        <pt x="316" y="721" on="1"/>
        <pt x="364" y="698" on="0"/>
        <pt x="364" y="613" on="1"/>
        <pt x="364" y="554" on="0"/>
        <pt x="302" y="506" on="0"/>
        <pt x="189" y="468" on="1"/>
        <pt x="189" y="453" on="1"/>
        <pt x="358" y="453" on="1"/>
        <pt x="358" y="343" on="1"/>
        <pt x="36" y="343" on="1"/>
        <pt x="36" y="425" on="1"/>
        <pt x="36" y="481" on="0"/>
        <pt x="60" y="504" on="1"/>
        <pt x="70" y="515" on="0"/>
        <pt x="81" y="527" on="0"/>
        <pt x="114" y="545" on="0"/>
        <pt x="128" y="552" on="0"/>
        <pt x="150" y="562" on="1"/>
        <pt x="221" y="594" on="1"/>
        <pt x="221" y="626" on="1"/>
        <pt x="199" y="628" on="0"/>
        <pt x="129" y="628" on="0"/>
      </contour>
    </TTGlyph>
    <TTGlyph name="u" xMin="40" yMin="-15" xMax="540" yMax="500">
      <contour>
        <pt x="240" y="500" on="1"/>
        <pt x="240" y="131" on="1"/>
        <pt x="271" y="131" on="1"/>
        <pt x="307" y="131" on="0"/>
        <pt x="340" y="146" on="0"/>
        <pt x="340" y="173" on="1"/>
        <pt x="340" y="500" on="1"/>
        <pt x="540" y="500" on="1"/>
        <pt x="540" y="0" on="1"/>
        <pt x="440" y="0" on="1"/>
        <pt x="382" y="57" on="1"/>
        <pt x="322" y="-15" on="0"/>
        <pt x="211" y="-15" on="1"/>
        <pt x="122" y="-15" on="0"/>
        <pt x="40" y="61" on="0"/>
        <pt x="40" y="150" on="1"/>
        <pt x="40" y="500" on="1"/>
      </contour>
    </TTGlyph>
    <TTGlyph name="uacute" xMin="40" yMin="-15" xMax="540" yMax="739">
      <component glyphName="u" x="0" y="0" flags="0x1004"/>
      <component glyphName="acute" x="115" y="0" flags="0x1004"/>
    </TTGlyph>
    <TTGlyph name="ucircumflex" xMin="40" yMin="-15" xMax="540" yMax="740">
      <contour>
        <pt x="240" y="500" on="1"/>
        <pt x="240" y="131" on="1"/>
        <pt x="271" y="131" on="1"/>
        <pt x="307" y="131" on="0"/>
        <pt x="340" y="146" on="0"/>
        <pt x="340" y="173" on="1"/>
        <pt x="340" y="500" on="1"/>
        <pt x="540" y="500" on="1"/>
        <pt x="540" y="0" on="1"/>
        <pt x="440" y="0" on="1"/>
        <pt x="382" y="57" on="1"/>
        <pt x="322" y="-15" on="0"/>
        <pt x="211" y="-15" on="1"/>
        <pt x="122" y="-15" on="0"/>
        <pt x="40" y="61" on="0"/>
        <pt x="40" y="150" on="1"/>
        <pt x="40" y="500" on="1"/>
      </contour>
      <contour>
        <pt x="270" y="740" on="1"/>
        <pt x="318" y="740" on="1"/>
        <pt x="325" y="740" on="0"/>
        <pt x="334" y="731" on="1"/>
        <pt x="447" y="586" on="1"/>
        <pt x="387" y="537" on="1"/>
        <pt x="294" y="600" on="1"/>
        <pt x="201" y="537" on="1"/>
        <pt x="141" y="586" on="1"/>
        <pt x="254" y="731" on="1"/>
        <pt x="263" y="740" on="0"/>
      </contour>
    </TTGlyph>
    <TTGlyph name="udieresis" xMin="40" yMin="-15" xMax="540" yMax="708">
      <component glyphName="u" x="0" y="0" flags="0x1004"/>
      <component glyphName="dieresis" x="80" y="0" flags="0x1004"/>
    </TTGlyph>
</ttFont>
